<svg width="46" height="41" viewBox="0 0 46 41" fill="none" xmlns="http://www.w3.org/2000/svg">
<path d="M37.9311 14.735H8.22209M37.9311 14.735C38.5877 14.735 39.2174 14.472 39.6817 14.0037C40.146 13.5354 40.4068 12.9003 40.4068 12.238V7.24406C40.4068 6.58182 40.146 5.9467 39.6817 5.47842C39.2174 5.01015 38.5877 4.74707 37.9311 4.74707H8.22209C7.56548 4.74707 6.93576 5.01015 6.47147 5.47842C6.00717 5.9467 5.74634 6.58182 5.74634 7.24406V12.238C5.74634 12.9003 6.00717 13.5354 6.47147 14.0037C6.93576 14.472 7.56548 14.735 8.22209 14.735M37.9311 14.735C38.5877 14.735 39.2174 14.9981 39.6817 15.4664C40.146 15.9347 40.4068 16.5698 40.4068 17.232V22.226C40.4068 22.8883 40.146 23.5234 39.6817 23.9917C39.2174 24.4599 38.5877 24.723 37.9311 24.723M8.22209 14.735C7.56548 14.735 6.93576 14.9981 6.47147 15.4664C6.00717 15.9347 5.74634 16.5698 5.74634 17.232V22.226C5.74634 22.8883 6.00717 23.5234 6.47147 23.9917C6.93576 24.4599 7.56548 24.723 8.22209 24.723M37.9311 24.723H8.22209M37.9311 24.723C38.5877 24.723 39.2174 24.9861 39.6817 25.4544C40.146 25.9226 40.4068 26.5578 40.4068 27.22V32.214C40.4068 32.8762 40.146 33.5113 39.6817 33.9796C39.2174 34.4479 38.5877 34.711 37.9311 34.711H8.22209C7.56548 34.711 6.93576 34.4479 6.47147 33.9796C6.00717 33.5113 5.74634 32.8762 5.74634 32.214V27.22C5.74634 26.5578 6.00717 25.9226 6.47147 25.4544C6.93576 24.9861 7.56548 24.723 8.22209 24.723M9.45996 9.74106H16.8872M9.45996 19.729H16.8872M9.45996 29.717H16.8872" stroke="#F8FCFF" stroke-width="1.84962"/>
</svg>
