<svg width="68" height="68" viewBox="0 0 68 68" fill="none" xmlns="http://www.w3.org/2000/svg">
<path d="M65.6311 62.9183L49.0474 46.861C53.6953 41.9104 56.1592 35.396 55.9125 28.7098C55.6659 22.0236 52.7282 15.696 47.7274 11.0791C42.7265 6.46222 36.059 3.92219 29.1497 4.00182C22.2404 4.08144 15.6373 6.77441 10.7513 11.5053C5.86537 16.2361 3.08411 22.6296 3.00188 29.3196C2.91964 36.0095 5.54295 42.4653 10.3112 47.3075C15.0795 52.1496 21.6146 54.9939 28.52 55.2328C35.4254 55.4716 42.1534 53.086 47.2663 48.5856L63.85 64.6428C64.0862 64.8715 64.4065 65 64.7406 65C65.0746 65 65.3949 64.8715 65.6311 64.6428C65.8673 64.4141 66 64.104 66 63.7806C66 63.4571 65.8673 63.147 65.6311 62.9183ZM5.58048 29.6551C5.58048 25.0752 6.98312 20.5981 9.61102 16.79C12.2389 12.9819 15.9741 10.0139 20.3441 8.26125C24.7141 6.50859 29.5228 6.05001 34.162 6.94351C38.8012 7.83701 43.0626 10.0425 46.4073 13.281C49.752 16.5195 52.0297 20.6456 52.9525 25.1375C53.8753 29.6294 53.4017 34.2854 51.5916 38.5167C49.7814 42.748 46.7161 46.3646 42.7832 48.9091C38.8502 51.4536 34.2264 52.8117 29.4963 52.8117C23.1554 52.8052 17.0763 50.3634 12.5926 46.0221C8.10898 41.6808 5.58715 35.7946 5.58048 29.6551Z" fill="#04268B"/>
</svg>
