<svg width="34" height="32" viewBox="0 0 34 32" fill="none" xmlns="http://www.w3.org/2000/svg">
<path d="M4.87209 5.88464V5C4.6408 5 4.41898 5.0932 4.25543 5.25911C4.09188 5.42501 4 5.65002 4 5.88464H4.87209ZM17.6628 5.88464H18.5349C18.5349 5.65002 18.443 5.42501 18.2795 5.25911C18.1159 5.0932 17.8941 5 17.6628 5V5.88464ZM17.6628 12.9618V12.0771C17.4315 12.0771 17.2097 12.1703 17.0461 12.3362C16.8826 12.5021 16.7907 12.7272 16.7907 12.9618H17.6628ZM4.87209 6.76928H17.6628V5H4.87209V6.76928ZM16.7907 5.88464V24.757H18.5349V5.88464H16.7907ZM5.74419 22.398V5.88464H4V22.398H5.74419ZM17.6628 13.8464H23.4767V12.0771H17.6628V13.8464ZM27.2558 17.6799V22.398H29V17.6799H27.2558ZM18.5349 24.757V12.9618H16.7907V24.757H18.5349ZM24.5047 25.7997C24.3697 25.9367 24.2094 26.0453 24.0331 26.1194C23.8567 26.1935 23.6677 26.2317 23.4767 26.2317C23.2858 26.2317 23.0968 26.1935 22.9204 26.1194C22.7441 26.0453 22.5838 25.9367 22.4488 25.7997L21.2163 27.05C21.816 27.6583 22.6293 28 23.4773 28C24.3254 28 25.1387 27.6583 25.7384 27.05L24.5047 25.7997ZM22.4488 23.7143C22.5838 23.5774 22.7441 23.4687 22.9204 23.3946C23.0968 23.3205 23.2858 23.2823 23.4767 23.2823C23.6677 23.2823 23.8567 23.3205 24.0331 23.3946C24.2094 23.4687 24.3697 23.5774 24.5047 23.7143L25.7372 22.464C25.1375 21.8557 24.3242 21.514 23.4762 21.514C22.6281 21.514 21.8148 21.8557 21.2151 22.464L22.4488 23.7143ZM10.5512 25.7997C10.4162 25.9367 10.2559 26.0453 10.0796 26.1194C9.9032 26.1935 9.71416 26.2317 9.52326 26.2317C9.33235 26.2317 9.14331 26.1935 8.96694 26.1194C8.79057 26.0453 8.63032 25.9367 8.49535 25.7997L7.26279 27.05C7.86247 27.6583 8.67579 28 9.52384 28C10.3719 28 11.1852 27.6583 11.7849 27.05L10.5512 25.7997ZM8.49535 23.7143C8.63032 23.5774 8.79057 23.4687 8.96694 23.3946C9.14331 23.3205 9.33235 23.2823 9.52326 23.2823C9.71416 23.2823 9.9032 23.3205 10.0796 23.3946C10.2559 23.4687 10.4162 23.5774 10.5512 23.7143L11.7837 22.464C11.184 21.8557 10.3707 21.514 9.52267 21.514C8.67462 21.514 7.8613 21.8557 7.26163 22.464L8.49535 23.7143ZM24.5047 23.7143C24.7884 24.0021 24.9302 24.3784 24.9302 24.757H26.6744C26.6744 23.9278 26.3616 23.0962 25.7384 22.4628L24.5047 23.7143ZM24.9302 24.757C24.9302 25.1356 24.7884 25.5119 24.5047 25.7997L25.7384 27.05C26.0357 26.7492 26.2704 26.3918 26.4312 25.9983C26.592 25.6048 26.6747 25.183 26.6744 24.757H24.9302ZM21.1512 23.8724H17.6628V25.6416H21.1512V23.8724ZM22.4488 25.7997C22.3136 25.663 22.2063 25.5005 22.1333 25.3215C22.0602 25.1426 22.0228 24.9507 22.0233 24.757H20.2791C20.2791 25.5862 20.5919 26.4178 21.2151 27.0512L22.4488 25.7997ZM22.0233 24.757C22.0233 24.3784 22.1651 24.0021 22.4488 23.7143L21.2151 22.464C20.9178 22.7648 20.6831 23.1222 20.5223 23.5157C20.3614 23.9092 20.2788 24.331 20.2791 24.757H22.0233ZM8.49535 25.7997C8.36008 25.663 8.25283 25.5005 8.17978 25.3215C8.10674 25.1426 8.06935 24.9507 8.06977 24.757H6.32558C6.32558 25.5862 6.63837 26.4178 7.26163 27.0512L8.49535 25.7997ZM8.06977 24.757C8.06977 24.3784 8.21163 24.0021 8.49535 23.7143L7.26279 22.464C6.96551 22.7649 6.7297 23.1223 6.56887 23.5157C6.40804 23.9092 6.32537 24.331 6.32558 24.757H8.06977ZM17.6628 23.8724H11.8488V25.6416H17.6628V23.8724ZM10.5512 23.7143C10.8349 24.0021 10.9767 24.3784 10.9767 24.757H12.7209C12.7209 23.9278 12.4081 23.0962 11.7849 22.4628L10.5512 23.7143ZM10.9767 24.757C10.9767 25.1356 10.8349 25.5119 10.5512 25.7997L11.7837 27.05C12.081 26.7492 12.3168 26.3917 12.4776 25.9983C12.6385 25.6048 12.7211 25.183 12.7209 24.757H10.9767ZM27.2558 22.398C27.2558 23.2118 26.6047 23.8724 25.8023 23.8724V25.6416C26.6504 25.6416 27.4637 25.2999 28.0634 24.6916C28.6631 24.0833 29 23.2582 29 22.398H27.2558ZM23.4767 13.8464C24.479 13.8464 25.4402 14.2503 26.149 14.9692C26.8577 15.6881 27.2558 16.6632 27.2558 17.6799H29C29 16.1939 28.4181 14.7689 27.3823 13.7181C26.3465 12.6674 24.9416 12.0771 23.4767 12.0771V13.8464ZM4 22.398C4 23.2582 4.3369 24.0833 4.93658 24.6916C5.53626 25.2999 6.3496 25.6416 7.19767 25.6416V23.8724C6.39535 23.8724 5.74419 23.2118 5.74419 22.398H4Z" fill="#04268B"/>
</svg>
