<svg width="68" height="68" viewBox="0 0 68 68" fill="none" xmlns="http://www.w3.org/2000/svg">
<path d="M17.1625 7.4375L17.1637 7.43658C18.1855 6.69572 19.2742 6.09275 20.2885 5.71621C21.3237 5.33194 22.167 5.22553 22.7531 5.3311M17.1625 7.4375L22.7531 5.3311M17.1625 7.4375C16.136 8.17986 15.2063 9.02276 14.5078 9.87062C13.7972 10.7331 13.3997 11.5109 13.2908 12.1284C13.2914 12.1261 13.2915 12.1282 13.2919 12.1352C13.2944 12.1743 13.3066 12.366 13.4493 12.7782C13.6058 13.2298 13.8686 13.807 14.2373 14.4996C14.9728 15.8814 16.0617 17.5972 17.3501 19.4747C19.8963 23.1852 23.1446 27.4161 25.7628 30.7279C25.7849 30.7345 25.8144 30.7423 25.8525 30.7507C26.0613 30.7963 26.3387 30.8191 26.7251 30.8423C26.7581 30.8443 26.7921 30.8463 26.8272 30.8483C27.1521 30.8673 27.5634 30.8913 27.9265 30.9552C28.2703 31.0156 28.9475 31.1649 29.4039 31.7229L29.404 31.7229L29.4119 31.7328C29.9011 32.343 29.8437 33.0639 29.7869 33.4275C29.7228 33.8378 29.5793 34.2561 29.4747 34.5549C29.4562 34.6076 29.4388 34.6572 29.4223 34.704C29.3646 34.8682 29.3191 34.9975 29.2847 35.1064L30.2497 36.285C30.2567 36.289 30.2645 36.2935 30.2733 36.2982C30.3551 36.3422 30.534 36.4205 30.832 36.4533C31.4206 36.518 32.6182 36.4176 34.5915 35.2443L35.6339 34.6244L36.3189 35.6253L49.3597 54.6828L49.3609 54.6846C49.737 55.2362 49.819 55.9042 49.8367 56.3774C49.8561 56.8959 49.8035 57.436 49.7357 57.8989C49.6867 58.234 49.6265 58.5491 49.5697 58.8149L54.9274 63.3614L55.4604 62.9792L53.1028 56.2381C52.844 56.2016 52.543 56.1522 52.2283 56.0865C51.7765 55.9922 51.2562 55.856 50.7798 55.6567C50.3428 55.474 49.7482 55.1604 49.3669 54.6054L49.3658 54.6037L36.3449 35.587L35.6664 34.5961L36.6048 33.8466C38.5977 32.255 39.0817 31.1221 39.1914 30.5732C39.2465 30.2973 39.2178 30.1226 39.1988 30.0466C39.193 30.0235 39.1876 30.0071 39.1841 29.9977L39.1748 29.981L39.1748 29.9809L39.1746 29.9806L39.1738 29.9793L39.1707 29.9736L39.1577 29.9503L39.1061 29.8578C39.0604 29.776 38.9926 29.6548 38.9044 29.4977C38.7709 29.26 38.5907 28.9402 38.3698 28.5507C38.2667 28.5476 38.1433 28.5472 37.9884 28.5466C37.9402 28.5465 37.8889 28.5463 37.8342 28.546C37.5246 28.5445 37.0834 28.5396 36.6753 28.4589C36.3062 28.3858 35.6086 28.1847 35.2126 27.4988C34.854 26.8784 34.952 26.1885 35.0128 25.8504C35.0778 25.489 35.1947 25.0936 35.2886 24.7765C35.2994 24.74 35.3099 24.7046 35.3199 24.6704C35.4309 24.293 35.5065 24.0138 35.5364 23.7924C35.5433 23.7416 35.5462 23.7038 35.5474 23.6771M17.1625 7.4375L35.5474 23.6771M22.7531 5.3311C22.744 5.3295 22.7454 5.33019 22.7577 5.33622C22.7989 5.35641 22.9622 5.43651 23.265 5.69175C23.6244 5.99471 24.0638 6.44335 24.5741 7.03454C25.5918 8.21348 26.7959 9.84688 28.0804 11.7276C30.6224 15.4499 33.4023 20.0272 35.5474 23.6771M22.7531 5.3311L35.5474 23.6771M25.7114 30.7101C25.7088 30.7087 25.7074 30.7081 25.7074 30.7082C25.7074 30.7082 25.7086 30.7089 25.7114 30.7101ZM35.5472 23.6282C35.5471 23.6267 35.547 23.626 35.547 23.626L35.5472 23.6282Z" stroke="#04268B" stroke-width="2.58525"/>
</svg>
