<svg width="68" height="68" viewBox="0 0 68 68" fill="none" xmlns="http://www.w3.org/2000/svg">
<path d="M36.0685 61.5165C35.0591 61.9061 33.9408 61.9061 32.9314 61.5165C25.0548 58.4926 18.2809 53.1504 13.5043 46.1957C8.72781 39.2409 6.17339 31.0008 6.17849 22.5637V11.1915C6.1761 10.7144 6.32734 10.2492 6.60983 9.86473C6.89231 9.48023 7.29105 9.19687 7.74707 9.05654C25.2056 3.87243 43.7943 3.87243 61.2528 9.05654C61.7088 9.19687 62.1075 9.48023 62.39 9.86473C62.6725 10.2492 62.8237 10.7144 62.8214 11.1915V22.5637C62.8265 31.0008 60.272 39.2409 55.4955 46.1957C50.719 53.1504 43.945 58.4926 36.0685 61.5165Z" stroke="#04268B" stroke-width="3" stroke-linecap="round" stroke-linejoin="round"/>
</svg>
