<svg width="29" height="39" viewBox="0 0 29 39" fill="none" xmlns="http://www.w3.org/2000/svg">
<path fill-rule="evenodd" clip-rule="evenodd" d="M7.08904 4C6.42472 4 5.78761 4.25953 5.31787 4.72151C4.84813 5.18348 4.58423 5.81005 4.58423 6.46338V32.7394C4.58423 33.3927 4.84813 34.0193 5.31787 34.4813C5.78761 34.9432 6.42472 35.2028 7.08904 35.2028H22.1179C22.7822 35.2028 23.4193 34.9432 23.8891 34.4813C24.3588 34.0193 24.6227 33.3927 24.6227 32.7394V6.46338C24.6227 5.81005 24.3588 5.18348 23.8891 4.72151C23.4193 4.25953 22.7822 4 22.1179 4H7.08904ZM6.2541 6.46338C6.2541 6.2456 6.34207 6.03674 6.49865 5.88275C6.65523 5.72876 6.8676 5.64225 7.08904 5.64225H9.59385V7.2845C9.59385 7.50228 9.68181 7.71113 9.8384 7.86513C9.99498 8.01912 10.2073 8.10563 10.4288 8.10563H18.7781C18.9996 8.10563 19.212 8.01912 19.3685 7.86513C19.5251 7.71113 19.6131 7.50228 19.6131 7.2845V5.64225H22.1179C22.3393 5.64225 22.5517 5.72876 22.7083 5.88275C22.8649 6.03674 22.9528 6.2456 22.9528 6.46338V32.7394C22.9528 32.9572 22.8649 33.166 22.7083 33.32C22.5517 33.474 22.3393 33.5605 22.1179 33.5605H7.08904C6.8676 33.5605 6.65523 33.474 6.49865 33.32C6.34207 33.166 6.2541 32.9572 6.2541 32.7394V6.46338Z" fill="#F8FCFF"/>
</svg>
