<svg width="34" height="32" viewBox="0 0 34 32" fill="none" xmlns="http://www.w3.org/2000/svg">
<path d="M17 28C10.3829 28 5 22.6171 5 16C5 9.38286 10.3829 4 17 4C23.6171 4 29 9.38286 29 16C29 22.6171 23.6171 28 17 28ZM17 5.71429C11.3257 5.71429 6.71429 10.3257 6.71429 16C6.71429 21.6743 11.3257 26.2857 17 26.2857C22.6743 26.2857 27.2857 21.6743 27.2857 16C27.2857 10.3257 22.6743 5.71429 17 5.71429Z" fill="#04268B"/>
<path d="M20.4376 19.7812C20.2744 19.7812 20.1113 19.745 19.9663 19.6544L15.4351 16.9356C15.3008 16.855 15.1901 16.7406 15.1138 16.6039C15.0375 16.4671 14.9983 16.3128 15.0001 16.1562V8.90625C15.0001 8.39875 15.3988 8 15.9063 8C16.4138 8 16.8126 8.39875 16.8126 8.90625V15.6488L20.9088 18.0956C21.0775 18.199 21.2079 18.3546 21.2803 18.5388C21.3526 18.723 21.3629 18.9258 21.3096 19.1164C21.2563 19.3069 21.1424 19.475 20.985 19.5949C20.8276 19.7149 20.6354 19.7803 20.4376 19.7812Z" fill="#04268B"/>
</svg>
