<svg width="33" height="40" viewBox="0 0 33 40" fill="none" xmlns="http://www.w3.org/2000/svg">
<path d="M26.8117 4.27295H5.83833C4.88898 4.27295 4.11963 5.0443 4.11963 5.99366V33.8075C4.11963 34.7579 4.88789 35.5271 5.83833 35.5271H26.8117C27.7622 35.5271 28.5304 34.7579 28.5304 33.8086V5.99476C28.5304 5.0443 27.7622 4.27295 26.8128 4.27295H26.8117ZM16.3272 34.9107C16.2339 34.9159 16.1404 34.9021 16.0526 34.87C15.9648 34.8379 15.8845 34.7881 15.8165 34.7238C15.7486 34.6595 15.6944 34.5821 15.6575 34.4961C15.6205 34.4101 15.6014 34.3175 15.6014 34.2239C15.6014 34.1303 15.6205 34.0377 15.6575 33.9517C15.6944 33.8658 15.7486 33.7883 15.8165 33.724C15.8845 33.6597 15.9648 33.61 16.0526 33.5778C16.1404 33.5457 16.2339 33.5319 16.3272 33.5372C16.5008 33.5492 16.6633 33.6267 16.782 33.7541C16.9007 33.8815 16.9667 34.0492 16.9667 34.2234C16.9667 34.3975 16.9007 34.5653 16.782 34.6926C16.6633 34.82 16.5008 34.8986 16.3272 34.9107ZM25.8865 32.2241C25.8863 32.3151 25.8499 32.4023 25.7855 32.4666C25.7211 32.5308 25.6339 32.5669 25.543 32.5669H7.11144C7.02061 32.5666 6.93357 32.5305 6.86924 32.4663C6.80491 32.4021 6.7685 32.315 6.76792 32.2241V7.44078C6.76792 7.25068 6.92157 7.09685 7.11144 7.09685H25.5408C25.7296 7.09685 25.8833 7.25068 25.8833 7.44078L25.8854 32.2241H25.8865Z" fill="#F8FCFF"/>
</svg>
