<svg width="38" height="40" viewBox="0 0 38 40" fill="none" xmlns="http://www.w3.org/2000/svg">
<path d="M11.4646 29.1123H7.94433C6.96052 29.1123 6.017 28.7181 5.32134 28.0163C4.62568 27.3145 4.23486 26.3627 4.23486 25.3703L4.23486 17.8863C4.23486 16.8939 4.62568 15.9421 5.32134 15.2403C6.017 14.5385 6.96052 14.1443 7.94433 14.1443L30.2271 14.1443C31.2109 14.1443 32.1544 14.5385 32.8501 15.2403C33.5457 15.9421 33.9365 16.8939 33.9365 17.8863V25.3703C33.9365 26.3627 33.5457 27.3145 32.8501 28.0163C32.1544 28.7181 31.2109 29.1123 30.2271 29.1123H26.5176" stroke="#F8FCFF" stroke-width="1.8827" stroke-linecap="round" stroke-linejoin="round"/>
<path d="M11.6797 10.4021V6.66006C11.6797 6.16384 11.8751 5.68795 12.2229 5.33706C12.5708 4.98618 13.0425 4.78906 13.5344 4.78906H24.6628C25.1547 4.78906 25.6265 4.98618 25.9743 5.33706C26.3221 5.68795 26.5175 6.16384 26.5175 6.66006V10.4021M11.6797 32.8541V23.4972H26.5175V32.8541C26.5175 33.3503 26.3221 33.8262 25.9743 34.1771C25.6265 34.528 25.1547 34.7251 24.6628 34.7251H13.5344C13.0425 34.7251 12.5708 34.528 12.2229 34.1771C11.8751 33.8262 11.6797 33.3503 11.6797 32.8541Z" stroke="#F8FCFF" stroke-width="1.8827" stroke-linecap="round" stroke-linejoin="round"/>
<path d="M31.1543 18.8224C31.1543 17.789 30.3239 16.9514 29.2996 16.9514C28.2752 16.9514 27.4448 17.789 27.4448 18.8224C27.4448 19.8557 28.2752 20.6934 29.2996 20.6934C30.3239 20.6934 31.1543 19.8557 31.1543 18.8224Z" fill="#F8FCFF"/>
</svg>
