<svg width="40" height="40" viewBox="0 0 40 40" fill="none" xmlns="http://www.w3.org/2000/svg">
<path d="M24.0291 34.5707H32.4624C33.0215 34.5707 33.5578 34.3486 33.9532 33.9532C34.3486 33.5578 34.5707 33.0215 34.5707 32.4624V7.16252C34.5707 6.60336 34.3486 6.0671 33.9532 5.67171C33.5578 5.27633 33.0215 5.0542 32.4624 5.0542H24.0291C23.4699 5.0542 22.9337 5.27633 22.5383 5.67171C22.1429 6.0671 21.9208 6.60336 21.9208 7.16252V32.4624C21.9208 33.0215 22.1429 33.5578 22.5383 33.9532C22.9337 34.3486 23.4699 34.5707 24.0291 34.5707ZM24.0291 34.5707H12.4333M17.7041 28.2457V34.5707M21.9208 15.5958H34.5707M25.0833 28.2457H31.4082M7.16252 11.3792H21.9208V28.2457H7.16252C6.60336 28.2457 6.0671 28.0236 5.67171 27.6282C5.27633 27.2328 5.0542 26.6966 5.0542 26.1374V13.4875C5.0542 12.9283 5.27633 12.3921 5.67171 11.9967C6.0671 11.6013 6.60336 11.3792 7.16252 11.3792Z" stroke="#F8FCFF" stroke-width="2.10832"/>
</svg>
