<svg width="27" height="26" viewBox="0 0 27 26" fill="none" xmlns="http://www.w3.org/2000/svg">
<g id="logos:telegram" clip-path="url(#clip0_715_17764)">
<path id="Vector" d="M13.3612 0.156006C9.99231 0.156006 6.75841 1.49543 4.37815 3.87728C1.99543 6.26007 0.656544 9.4916 0.655884 12.8613C0.655884 16.2296 1.9959 19.4635 4.37815 21.8454C6.75841 24.2272 9.99231 25.5667 13.3612 25.5667C16.7301 25.5667 19.964 24.2272 22.3443 21.8454C24.7265 19.4635 26.0665 16.2296 26.0665 12.8613C26.0665 9.49303 24.7265 6.25913 22.3443 3.87728C19.964 1.49543 16.7301 0.156006 13.3612 0.156006Z" fill="url(#paint0_linear_715_17764)"/>
<path id="Vector_2" d="M6.40698 12.7271C10.1114 11.1136 12.581 10.0497 13.8158 9.53572C17.3455 8.06805 18.078 7.81315 18.5564 7.80452C18.6617 7.80283 18.8959 7.82884 19.0488 7.95242C19.1758 8.05664 19.2116 8.19759 19.2294 8.29655C19.2453 8.39542 19.2671 8.62074 19.2493 8.79663C19.0587 10.8057 18.2309 15.6809 17.81 17.9312C17.6333 18.8833 17.2819 19.2025 16.9425 19.2337C16.204 19.3015 15.6441 18.7461 14.9295 18.2778C13.8118 17.5446 13.1805 17.0884 12.0946 16.3732C10.8399 15.5465 11.6539 15.0921 12.3686 14.3496C12.5552 14.1553 15.8069 11.1983 15.8685 10.9301C15.8764 10.8966 15.8844 10.7715 15.8089 10.7056C15.7355 10.6395 15.6263 10.6621 15.5469 10.68C15.4337 10.7054 13.649 11.8862 10.1868 14.2222C9.68058 14.5704 9.222 14.7401 8.80908 14.7312C8.35645 14.7215 7.48296 14.4747 6.8338 14.2639C6.03971 14.0052 5.40643 13.8684 5.46202 13.4291C5.48981 13.2004 5.80546 12.9664 6.40698 12.7271Z" fill="white"/>
</g>
<defs>
<linearGradient id="paint0_linear_715_17764" x1="1271.19" y1="0.156006" x2="1271.19" y2="2541.22" gradientUnits="userSpaceOnUse">
<stop stop-color="#2AABEE"/>
<stop offset="1" stop-color="#229ED9"/>
</linearGradient>
<clipPath id="clip0_715_17764">
<rect width="25.4107" height="25.4107" fill="white" transform="translate(0.655884 0.156006)"/>
</clipPath>
</defs>
</svg>
