<svg width="89" height="59" viewBox="0 0 89 59" fill="none" xmlns="http://www.w3.org/2000/svg">
<g clip-path="url(#clip0_685_30252)">
<path d="M80 4H10C8.67392 4 7.40215 4.53732 6.46447 5.49376C5.52678 6.45019 5 7.7474 5 9.1V49.9C5 51.2526 5.52678 52.5498 6.46447 53.5062C7.40215 54.4627 8.67392 55 10 55H80C81.3261 55 82.5979 54.4627 83.5355 53.5062C84.4732 52.5498 85 51.2526 85 49.9V9.1C85 7.7474 84.4732 6.45019 83.5355 5.49376C82.5979 4.53732 81.3261 4 80 4ZM80 49.9H10V9.1H80V49.9Z" fill="#04268B"/>
<path d="M17.8052 17.1387H22.7496V22.0831H17.8052V17.1387Z" fill="#04268B"/>
<path d="M27.6948 17.1387H32.6393V22.0831H27.6948V17.1387Z" fill="#04268B"/>
<path d="M37.5835 17.1387H42.5279V22.0831H37.5835V17.1387Z" fill="#04268B"/>
<path d="M47.4722 17.1387H52.4166V22.0831H47.4722V17.1387Z" fill="#04268B"/>
<path d="M57.3608 17.1387H62.3053V22.0831H57.3608V17.1387Z" fill="#04268B"/>
<path d="M67.25 17.1387H72.1944V22.0831H67.25V17.1387Z" fill="#04268B"/>
<path d="M17.8052 27.0278H22.7496V31.9723H17.8052V27.0278Z" fill="#04268B"/>
<path d="M27.6948 27.0278H32.6393V31.9723H27.6948V27.0278Z" fill="#04268B"/>
<path d="M37.5835 27.0278H42.5279V31.9723H37.5835V27.0278Z" fill="#04268B"/>
<path d="M47.4722 27.0278H52.4166V31.9723H47.4722V27.0278Z" fill="#04268B"/>
<path d="M57.3608 27.0278H62.3053V31.9723H57.3608V27.0278Z" fill="#04268B"/>
<path d="M67.25 27.0278H72.1944V31.9723H67.25V27.0278Z" fill="#04268B"/>
<path d="M67.25 39.3887H72.0461V44.3331H67.25V39.3887Z" fill="#04268B"/>
<path d="M17.8052 39.3887H22.7496V44.3331H17.8052V39.3887Z" fill="#04268B"/>
<path d="M28.0156 39.3887H62.0087V44.3331H28.0156V39.3887Z" fill="#04268B"/>
</g>
<defs>
<clipPath id="clip0_685_30252">
<rect width="89" height="59" fill="white"/>
</clipPath>
</defs>
</svg>
