<svg width="60" height="60" viewBox="0 0 60 60" fill="none" xmlns="http://www.w3.org/2000/svg">
<path d="M8.33333 8.33333H17V4H8.33333C5.95 4 4 5.95 4 8.33333V17H8.33333V8.33333ZM51.6667 4H43V8.33333H51.6667V17H56V8.33333C56 5.95 54.05 4 51.6667 4ZM8.33333 43H4V51.6667C4 54.05 5.95 56 8.33333 56H17V51.6667H8.33333V43ZM51.6667 51.6667H43V56H51.6667C54.05 56 56 54.05 56 51.6667V43H51.6667V51.6667ZM21.3333 17V12.6667H25.6667V17H21.3333ZM25.6667 34.3333V30H30V34.3333H25.6667ZM38.6667 12.6667H43V17H38.6667V12.6667ZM43 17H47.3333V21.3333H43V17ZM43 34.3333H47.3333V38.6667H43V34.3333ZM47.3333 30H38.6667V43H47.3333V47.3333H12.6667V12.6667H17V17H21.3333V25.6667H17V30H21.3333V34.3333H25.6667V38.6667H30V43H34.3333V38.6667H30V34.3333H34.3333V25.6667H25.6667V17H30V12.6667H34.3333V21.3333H38.6667V25.6667H47.3333V30ZM21.3333 43V38.6667H17V43H21.3333Z" fill="#04268B"/>
</svg>
