<svg width="62" height="60" viewBox="0 0 62 60" fill="none" xmlns="http://www.w3.org/2000/svg">
<path d="M43.9163 4.1665H18.083C16.0276 4.1665 14.0563 4.98302 12.6029 6.43643C11.1495 7.88983 10.333 9.86108 10.333 11.9165V48.0832C10.333 50.1386 11.1495 52.1098 12.6029 53.5632C14.0563 55.0167 16.0276 55.8332 18.083 55.8332H43.9163C45.9718 55.8332 47.943 55.0167 49.3964 53.5632C50.8498 52.1098 51.6663 50.1386 51.6663 48.0832V11.9165C51.6663 9.86108 50.8498 7.88983 49.3964 6.43643C47.943 4.98302 45.9718 4.1665 43.9163 4.1665ZM46.4997 48.0832C46.4997 48.7683 46.2275 49.4254 45.743 49.9099C45.2586 50.3943 44.6015 50.6665 43.9163 50.6665H18.083C17.3979 50.6665 16.7408 50.3943 16.2563 49.9099C15.7718 49.4254 15.4997 48.7683 15.4997 48.0832V11.9165C15.4997 11.2314 15.7718 10.5743 16.2563 10.0898C16.7408 9.60534 17.3979 9.33317 18.083 9.33317H43.9163C44.6015 9.33317 45.2586 9.60534 45.743 10.0898C46.2275 10.5743 46.4997 11.2314 46.4997 11.9165V48.0832ZM37.148 26.8998C38.1726 25.5648 38.7348 23.9326 38.7497 22.2498C38.7497 20.1944 37.9332 18.2232 36.4798 16.7698C35.0263 15.3164 33.0551 14.4998 30.9997 14.4998C28.9442 14.4998 26.973 15.3164 25.5196 16.7698C24.0662 18.2232 23.2497 20.1944 23.2497 22.2498C23.2645 23.9326 23.8268 25.5648 24.8513 26.8998C23.1038 28.1935 21.8089 30.0055 21.1509 32.0778C20.4929 34.1502 20.5053 36.3773 21.1865 38.4421C21.8676 40.507 23.1827 42.3043 24.9446 43.5784C26.7065 44.8525 28.8254 45.5383 30.9997 45.5383C33.174 45.5383 35.2929 44.8525 37.0547 43.5784C38.8166 42.3043 40.1317 40.507 40.8129 38.4421C41.494 36.3773 41.5065 34.1502 40.8485 32.0778C40.1905 30.0055 38.8955 28.1935 37.148 26.8998ZM30.9997 19.6665C31.5106 19.6665 32.0101 19.818 32.4349 20.1019C32.8597 20.3857 33.1908 20.7892 33.3864 21.2612C33.5819 21.7333 33.633 22.2527 33.5334 22.7538C33.4337 23.2549 33.1877 23.7152 32.8264 24.0765C32.4651 24.4378 32.0048 24.6839 31.5037 24.7835C31.0025 24.8832 30.4831 24.8321 30.0111 24.6365C29.539 24.441 29.1356 24.1099 28.8517 23.6851C28.5679 23.2602 28.4163 22.7608 28.4163 22.2498C28.4163 21.5647 28.6885 20.9076 29.173 20.4231C29.6575 19.9387 30.3145 19.6665 30.9997 19.6665ZM30.9997 40.3332C29.9778 40.3332 28.9789 40.0301 28.1292 39.4624C27.2796 38.8947 26.6173 38.0878 26.2263 37.1437C25.8352 36.1996 25.7329 35.1608 25.9323 34.1585C26.1316 33.1563 26.6237 32.2357 27.3463 31.5131C28.0689 30.7905 28.9895 30.2985 29.9917 30.0991C30.9939 29.8998 32.0328 30.0021 32.9769 30.3931C33.921 30.7842 34.7279 31.4464 35.2956 32.2961C35.8633 33.1457 36.1663 34.1446 36.1663 35.1665C36.1663 36.5368 35.622 37.8509 34.6531 38.8199C33.6841 39.7888 32.37 40.3332 30.9997 40.3332Z" fill="#04268B"/>
</svg>
