<svg width="71" height="57" viewBox="0 0 71 57" fill="none" xmlns="http://www.w3.org/2000/svg">
<path d="M67.4394 17.7743C67.1546 13.7257 65.339 9.93612 62.3599 7.17219C59.3808 4.40827 55.4605 2.87632 51.3922 2.88628H19.2979C15.1827 2.88072 11.2225 4.4526 8.23598 7.27705C5.24944 10.1015 3.46475 13.9626 3.25076 18.0625C3.23266 18.3396 3.23266 18.6177 3.25076 18.8949V42.9079C3.24224 44.3818 3.52698 45.8428 4.08847 47.2063C4.64997 48.5697 5.47706 49.8084 6.52184 50.8507C7.56662 51.8929 8.80833 52.718 10.175 53.2782C11.5417 53.8383 13.0062 54.1224 14.4838 54.1139C19.0733 54.1139 21.9296 50.7201 24.7219 47.4223C25.7489 46.2376 26.808 44.989 27.9313 43.9004C29.4215 42.8114 31.0956 41.9981 32.8738 41.4991C34.5157 41.307 36.1745 41.307 37.8163 41.4991C39.5946 41.9981 41.2686 42.8114 42.7589 43.9004C43.8822 44.989 44.9413 46.2376 45.9683 47.4223C48.7605 50.624 51.6169 54.1139 56.2064 54.1139C57.6839 54.1224 59.1484 53.8383 60.5151 53.2782C61.8818 52.718 63.1235 51.8929 64.1683 50.8507C65.2131 49.8084 66.0402 48.5697 66.6017 47.2063C67.1632 45.8428 67.4479 44.3818 67.4394 42.9079V18.8949C67.4567 18.6177 67.4567 18.3397 67.4394 18.0625V17.7743ZM61.0205 42.9079C61.0205 44.1816 60.5133 45.4031 59.6105 46.3038C58.7077 47.2045 57.4832 47.7104 56.2064 47.7104C54.6017 47.7104 52.9969 45.6613 50.8787 43.2921C49.7875 42.0434 48.5679 40.5706 47.1879 39.2579C44.864 37.3902 42.1749 36.0271 39.2927 35.2557C36.682 34.786 34.0081 34.786 31.3975 35.2557C28.5152 36.0271 25.8261 37.3902 23.5023 39.2579C22.1222 40.5706 20.9026 42.0434 19.8114 43.2921C17.8216 45.6613 16.0885 47.7104 14.4838 47.7104C13.207 47.7104 11.9825 47.2045 11.0797 46.3038C10.1768 45.4031 9.66962 44.1816 9.66962 42.9079V18.8949C9.68529 18.7352 9.68529 18.5744 9.66962 18.4147C9.79323 15.9513 10.862 13.6299 12.6544 11.9312C14.4468 10.2324 16.8256 9.28665 19.2979 9.28973H51.3922C53.7975 9.27926 56.1196 10.1673 57.9015 11.779C59.6834 13.3907 60.7961 15.6094 61.0205 17.9984V18.3826C61.0046 18.553 61.0046 18.7245 61.0205 18.8949V42.9079Z" fill="#04268B"/>
<path d="M47.9713 31.0251C49.5652 31.0251 50.8574 29.7329 50.8574 28.139C50.8574 26.5451 49.5652 25.2529 47.9713 25.2529C46.3773 25.2529 45.0852 26.5451 45.0852 28.139C45.0852 29.7329 46.3773 31.0251 47.9713 31.0251Z" fill="#04268B"/>
<path d="M54.4651 24.5319C56.059 24.5319 57.3511 23.2398 57.3511 21.6458C57.3511 20.0519 56.059 18.7598 54.4651 18.7598C52.8711 18.7598 51.579 20.0519 51.579 21.6458C51.579 23.2398 52.8711 24.5319 54.4651 24.5319Z" fill="#04268B"/>
<path d="M47.9713 18.0378C49.5652 18.0378 50.8574 16.7456 50.8574 15.1517C50.8574 13.5578 49.5652 12.2656 47.9713 12.2656C46.3773 12.2656 45.0852 13.5578 45.0852 15.1517C45.0852 16.7456 46.3773 18.0378 47.9713 18.0378Z" fill="#04268B"/>
<path d="M41.4779 24.5319C43.0718 24.5319 44.3639 23.2398 44.3639 21.6458C44.3639 20.0519 43.0718 18.7598 41.4779 18.7598C39.8839 18.7598 38.5918 20.0519 38.5918 21.6458C38.5918 23.2398 39.8839 24.5319 41.4779 24.5319Z" fill="#04268B"/>
<path d="M22.3573 27.4177C25.7444 27.4177 28.4902 24.6719 28.4902 21.2848C28.4902 17.8977 25.7444 15.1519 22.3573 15.1519C18.9702 15.1519 16.2244 17.8977 16.2244 21.2848C16.2244 24.6719 18.9702 27.4177 22.3573 27.4177Z" fill="#04268B"/>
</svg>
