<svg width="42" height="60" viewBox="0 0 42 60" fill="none" xmlns="http://www.w3.org/2000/svg">
<path fill-rule="evenodd" clip-rule="evenodd" d="M8.69141 4.35107C7.60102 4.35107 6.55528 4.77815 5.78426 5.53834C5.01323 6.29854 4.58008 7.32959 4.58008 8.40467V51.643C4.58008 52.7181 5.01323 53.7491 5.78426 54.5093C6.55528 55.2695 7.60102 55.6966 8.69141 55.6966H33.3594C34.4498 55.6966 35.4956 55.2695 36.2666 54.5093C37.0376 53.7491 37.4708 52.7181 37.4708 51.643V8.40467C37.4708 7.32959 37.0376 6.29854 36.2666 5.53834C35.4956 4.77815 34.4498 4.35107 33.3594 4.35107H8.69141ZM7.32097 8.40467C7.32097 8.04631 7.46535 7.70262 7.72236 7.44923C7.97937 7.19583 8.32795 7.05347 8.69141 7.05347H12.8027V9.75586C12.8027 10.1142 12.9471 10.4579 13.2041 10.7113C13.4612 10.9647 13.8097 11.1071 14.1732 11.1071H27.8776C28.2411 11.1071 28.5897 10.9647 28.8467 10.7113C29.1037 10.4579 29.2481 10.1142 29.2481 9.75586V7.05347H33.3594C33.7229 7.05347 34.0715 7.19583 34.3285 7.44923C34.5855 7.70262 34.7299 8.04631 34.7299 8.40467V51.643C34.7299 52.0013 34.5855 52.345 34.3285 52.5984C34.0715 52.8518 33.7229 52.9942 33.3594 52.9942H8.69141C8.32795 52.9942 7.97937 52.8518 7.72236 52.5984C7.46535 52.345 7.32097 52.0013 7.32097 51.643V8.40467Z" fill="#04268B"/>
<path d="M13.3076 19.5293L27.4112 30.5488L19.6942 39.4693L23.4196 46.8156" stroke="#04268B" stroke-width="0.972848"/>
</svg>
