<svg width="58" height="61" viewBox="0 0 58 61" fill="none" xmlns="http://www.w3.org/2000/svg">
<path d="M34.1828 8.50364H36.9828V4.2002H48.1828V8.50364H50.9828C52.5228 8.50364 53.7828 9.79468 53.7828 11.3726V42.9312C53.7828 44.5092 52.5228 45.8002 50.9828 45.8002H34.1828C32.6428 45.8002 31.3828 44.5092 31.3828 42.9312V11.3726C31.3828 9.79468 32.6428 8.50364 34.1828 8.50364ZM34.1828 11.3726V42.9312H50.9828V11.3726H34.1828Z" fill="#04268B"/>
<path d="M41.5985 37.0574C41.5431 37.0574 41.484 37.0479 41.4223 37.0301C41.2845 36.9837 41.1677 36.888 41.0937 36.7606C41.0196 36.6332 40.9933 36.4827 41.0195 36.3371L42.5124 28.5816L39.7912 27.8028C39.7054 27.7781 39.6262 27.7338 39.5595 27.6734C39.4928 27.6129 39.4405 27.5379 39.4063 27.4538C39.3722 27.3697 39.3571 27.2789 39.3623 27.188C39.3675 27.0972 39.3929 27.0087 39.4364 26.9293L44.5669 17.4333C44.6372 17.3079 44.7486 17.2119 44.8816 17.1623C45.0145 17.1127 45.1604 17.1126 45.2934 17.1621C45.4258 17.2116 45.5361 17.3084 45.6038 17.4345C45.6716 17.5607 45.6923 17.7076 45.662 17.8481L44.3259 24.5879L46.9108 25.2155C47.0914 25.2657 47.2333 25.3844 47.308 25.5439C47.3463 25.6269 47.3656 25.7178 47.3644 25.8096C47.3632 25.9014 47.3416 25.9917 47.3012 26.0737L42.1283 36.722C42.0793 36.8226 42.0037 36.9073 41.9101 36.9665C41.8166 37.0258 41.7086 37.0572 41.5985 37.0574ZM45.0108 17.9269L39.9805 27.2374L42.9569 28.0492C43.1132 28.0937 43.2097 28.2538 43.178 28.4164L41.6751 36.2214L46.7433 25.7891L43.8877 25.1348C43.809 25.1158 43.7407 25.0664 43.6971 24.9969C43.6535 24.9274 43.6381 24.8434 43.6542 24.7626L45.0108 17.9269Z" fill="#04268B"/>
<path d="M7.25051 5.80518V12.1326H4.60449V14.2034H19.3302V12.1326H16.6841V5.80518H14.6133V12.1326H9.32131V5.80518H7.25051ZM7.4806 16.0441V21.9459L10.5557 25.0176H13.3824L16.4541 21.9459V16.0441H7.4806ZM10.9319 27.0884V46.3008C10.9319 49.9131 13.0717 52.7087 16.0514 54.4459C19.0195 56.1831 22.862 56.9999 26.693 56.9999C30.524 56.9999 34.3664 56.1831 37.3346 54.4459C40.0266 52.8813 42.0284 50.4538 42.3965 47.3362H40.3142C39.9806 49.637 38.5195 51.3512 36.2992 52.6512C33.7452 54.1353 30.2248 54.9291 26.693 54.9291C23.1611 54.9291 19.6408 54.1353 17.0868 52.6512C14.5443 51.1671 13.0027 49.1308 13.0027 46.3008V27.0884H10.9319Z" fill="#04268B"/>
</svg>
