<svg width="37" height="60" viewBox="0 0 37 60" fill="none" xmlns="http://www.w3.org/2000/svg">
<path d="M8.10303 9.37931H11.603V4H25.603V9.37931H29.103C31.028 9.37931 32.603 10.9931 32.603 12.9655V52.4138C32.603 54.3862 31.028 56 29.103 56H8.10303C6.17803 56 4.60303 54.3862 4.60303 52.4138V12.9655C4.60303 10.9931 6.17803 9.37931 8.10303 9.37931ZM8.10303 12.9655V52.4138H29.103V12.9655H8.10303Z" fill="#04268B"/>
<path d="M17.3732 45.0718C17.3039 45.0718 17.23 45.0598 17.1529 45.0376C16.9806 44.9797 16.8346 44.86 16.7421 44.7007C16.6495 44.5415 16.6166 44.3534 16.6494 44.1713L18.5155 34.4769L15.114 33.5035C15.0068 33.4726 14.9077 33.4173 14.8244 33.3417C14.7411 33.2662 14.6756 33.1723 14.6329 33.0673C14.5902 32.9622 14.5714 32.8486 14.5779 32.7351C14.5844 32.6215 14.6161 32.5109 14.6705 32.4117L21.0836 20.5416C21.1715 20.3849 21.3108 20.2649 21.477 20.2029C21.6432 20.1408 21.8255 20.1407 21.9918 20.2026C22.1572 20.2645 22.2951 20.3855 22.3798 20.5431C22.4645 20.7008 22.4903 20.8845 22.4524 21.0601L20.7824 29.4848L24.0135 30.2693C24.2392 30.3321 24.4166 30.4806 24.51 30.6799C24.5579 30.7837 24.582 30.8973 24.5805 31.012C24.579 31.1267 24.552 31.2396 24.5014 31.3421L18.0354 44.6525C17.9741 44.7783 17.8796 44.8841 17.7627 44.9582C17.6457 45.0322 17.5108 45.0716 17.3732 45.0718ZM21.6385 21.1586L15.3506 32.7968L19.0712 33.8115C19.2665 33.8671 19.3871 34.0672 19.3474 34.2705L17.4689 44.0268L23.8042 30.9864L20.2346 30.1685C20.1363 30.1448 20.0508 30.083 19.9964 29.9961C19.9419 29.9093 19.9227 29.8042 19.9428 29.7032L21.6385 21.1586Z" fill="#04268B"/>
</svg>
