<svg width="27" height="26" viewBox="0 0 27 26" fill="none" xmlns="http://www.w3.org/2000/svg">
<g id="skill-icons:instagram" clip-path="url(#clip0_715_17759)">
<g id="Group">
<path id="Vector" d="M20.1947 0.156006H6.69525C3.40605 0.156006 0.739624 2.82243 0.739624 6.11163V19.611C0.739624 22.9002 3.40605 25.5667 6.69525 25.5667H20.1947C23.4839 25.5667 26.1503 22.9002 26.1503 19.611V6.11163C26.1503 2.82243 23.4839 0.156006 20.1947 0.156006Z" fill="url(#paint0_radial_715_17759)"/>
<path id="Vector_2" d="M20.1947 0.156006H6.69525C3.40605 0.156006 0.739624 2.82243 0.739624 6.11163V19.611C0.739624 22.9002 3.40605 25.5667 6.69525 25.5667H20.1947C23.4839 25.5667 26.1503 22.9002 26.1503 19.611V6.11163C26.1503 2.82243 23.4839 0.156006 20.1947 0.156006Z" fill="url(#paint1_radial_715_17759)"/>
<path id="Vector_3" d="M13.4457 2.9353C10.75 2.9353 10.4116 2.94711 9.35292 2.99526C8.2962 3.0437 7.57487 3.21095 6.94378 3.45642C6.29084 3.70993 5.73707 4.0491 5.18538 4.60099C4.63319 5.15278 4.29402 5.70655 4.03972 6.35919C3.79355 6.99048 3.6261 7.71211 3.57855 8.76834C3.53121 9.82715 3.5188 10.1656 3.5188 12.8614C3.5188 15.5572 3.53071 15.8945 3.57875 16.9532C3.62739 18.01 3.79464 18.7313 4.03992 19.3624C4.29362 20.0153 4.6328 20.5691 5.18469 21.1208C5.73627 21.673 6.29005 22.0129 6.94249 22.2665C7.57408 22.5119 8.2955 22.6792 9.35203 22.7276C10.4108 22.7758 10.7489 22.7876 13.4445 22.7876C16.1405 22.7876 16.4778 22.7758 17.5365 22.7276C18.5933 22.6792 19.3154 22.5119 19.947 22.2665C20.5996 22.0129 21.1526 21.673 21.7041 21.1208C22.2563 20.5691 22.5953 20.0153 22.8498 19.3627C23.0937 18.7313 23.2613 18.0098 23.3109 16.9534C23.3585 15.8947 23.3709 15.5572 23.3709 12.8614C23.3709 10.1656 23.3585 9.82734 23.3109 8.76853C23.2613 7.71181 23.0937 6.99058 22.8498 6.35949C22.5953 5.70655 22.2563 5.15278 21.7041 4.60099C21.152 4.0489 20.5998 3.70973 19.9464 3.45652C19.3136 3.21095 18.5919 3.0436 17.5352 2.99526C16.4763 2.94711 16.1393 2.9353 13.4426 2.9353H13.4457ZM12.5553 4.72407C12.8196 4.72368 13.1145 4.72407 13.4457 4.72407C16.0961 4.72407 16.4101 4.7336 17.4567 4.78115C18.4245 4.82542 18.9498 4.98711 19.2997 5.123C19.763 5.30286 20.0932 5.51796 20.4404 5.86547C20.7878 6.21288 21.0028 6.54371 21.1832 7.00696C21.3191 7.35636 21.4809 7.88164 21.525 8.84943C21.5726 9.89583 21.5829 10.2101 21.5829 12.8592C21.5829 15.5082 21.5726 15.8226 21.525 16.8689C21.4808 17.8367 21.3191 18.3619 21.1832 18.7114C21.0033 19.1747 20.7878 19.5045 20.4404 19.8517C20.093 20.1992 19.7631 20.4142 19.2997 20.5941C18.9502 20.7306 18.4245 20.8919 17.4567 20.9362C16.4103 20.9837 16.0961 20.994 13.4457 20.994C10.7953 20.994 10.4811 20.9837 9.43481 20.9362C8.46703 20.8915 7.94174 20.7298 7.59155 20.5939C7.1284 20.414 6.79747 20.199 6.45006 19.8515C6.10264 19.5041 5.88765 19.1741 5.70729 18.7106C5.5714 18.3612 5.40951 17.8359 5.36544 16.8681C5.31789 15.8217 5.30836 15.5074 5.30836 12.8567C5.30836 10.206 5.31789 9.89335 5.36544 8.84695C5.40971 7.87916 5.5714 7.35388 5.70729 7.00398C5.88725 6.54074 6.10264 6.2099 6.45016 5.86249C6.79757 5.51508 7.1284 5.29998 7.59165 5.11972C7.94154 4.98324 8.46703 4.82194 9.43481 4.77748C10.3505 4.73608 10.7053 4.72368 12.5553 4.72159V4.72407ZM18.7442 6.37219C18.0866 6.37219 17.5531 6.90522 17.5531 7.56292C17.5531 8.22052 18.0866 8.75404 18.7442 8.75404C19.4018 8.75404 19.9354 8.22052 19.9354 7.56292C19.9354 6.90532 19.4018 6.37179 18.7442 6.37179V6.37219ZM13.4457 7.76392C10.6307 7.76392 8.34831 10.0463 8.34831 12.8614C8.34831 15.6766 10.6307 17.9579 13.4457 17.9579C16.2608 17.9579 18.5424 15.6766 18.5424 12.8614C18.5424 10.0464 16.2607 7.76392 13.4455 7.76392H13.4457ZM13.4457 9.55269C15.273 9.55269 16.7545 11.034 16.7545 12.8614C16.7545 14.6887 15.273 16.1702 13.4457 16.1702C11.6183 16.1702 10.1371 14.6887 10.1371 12.8614C10.1371 11.034 11.6183 9.55269 13.4457 9.55269Z" fill="white"/>
</g>
</g>
<defs>
<radialGradient id="paint0_radial_715_17759" cx="0" cy="0" r="1" gradientUnits="userSpaceOnUse" gradientTransform="translate(7.48933 27.5238) rotate(-90) scale(25.1838 23.423)">
<stop stop-color="#FFDD55"/>
<stop offset="0.1" stop-color="#FFDD55"/>
<stop offset="0.5" stop-color="#FF543E"/>
<stop offset="1" stop-color="#C837AB"/>
</radialGradient>
<radialGradient id="paint1_radial_715_17759" cx="0" cy="0" r="1" gradientUnits="userSpaceOnUse" gradientTransform="translate(-3.51676 1.98647) rotate(78.681) scale(11.2573 46.403)">
<stop stop-color="#3771C8"/>
<stop offset="0.128" stop-color="#3771C8"/>
<stop offset="1" stop-color="#6600FF" stop-opacity="0"/>
</radialGradient>
<clipPath id="clip0_715_17759">
<rect width="25.4107" height="25.4107" fill="white" transform="translate(0.739624 0.156006)"/>
</clipPath>
</defs>
</svg>
