<svg width="484" height="191" viewBox="0 0 484 191" fill="none" xmlns="http://www.w3.org/2000/svg">
<path d="M64.1637 41.3681L64.3548 42.0778L64.0972 42.2211L64.0176 42.0781M64.1637 41.3681L64.0178 42.0876C64.0178 42.0872 64.0178 42.0868 64.0178 42.0864C64.0177 42.0837 64.0177 42.081 64.0176 42.0781M64.1637 41.3681C64.1116 41.3966 64.0594 41.425 64.0073 41.4535C64.007 41.4537 64.0066 41.4538 64.0063 41.454C64.0128 41.8101 64.0161 41.9886 64.0176 42.0781M64.1637 41.3681L63.7487 41.5949L64.0176 42.0781M470.694 88.1729C483.4 106.174 479.894 147.993 479.894 147.993M470.694 88.1729L470.109 88.5865M470.694 88.1729L470.109 88.5862C470.109 88.5863 470.109 88.5864 470.109 88.5865M470.694 88.1729C457.974 70.1723 443.409 63.1354 421.818 64.239M479.894 147.993C479.18 147.934 479.18 147.934 479.18 147.933L479.18 147.932L479.181 147.927L479.182 147.905L479.189 147.817C479.195 147.739 479.204 147.621 479.216 147.467C479.238 147.16 479.269 146.704 479.305 146.118C479.375 144.946 479.462 143.249 479.527 141.156C479.657 136.968 479.698 131.2 479.343 124.874C478.989 118.545 478.239 111.672 476.793 105.272C475.344 98.8632 473.208 92.9775 470.109 88.5865M479.894 147.993C480.964 149.708 481.015 150.003 481.411 152.283C481.465 152.595 481.526 152.944 481.597 153.339M479.894 147.993L23.4652 53.5321L27.7141 49.9067L27.72 49.9017C28.1706 49.5256 28.6995 49.2996 29.275 49.2252L29.2808 49.2245L39.8257 47.9489L40.0651 47.92L40.2733 48.0416C40.4498 48.1448 40.6997 48.3399 40.8985 48.7039C41.0933 49.0608 41.215 49.536 41.215 50.1652V53.7768V54.4391L40.5549 54.4913C38.6623 54.6409 36.1399 54.8899 33.6389 55.2923C31.1262 55.6967 28.6838 56.2486 26.9264 56.9884L26.925 56.989C24.1989 58.1297 21.229 59.4908 18.7815 60.7424C17.5572 61.3684 16.4715 61.9631 15.6155 62.4859C14.738 63.0218 14.1665 63.4442 13.9127 63.7205L13.9124 63.7208C13.0199 64.6915 8.84296 70.2974 5.67072 84.204C4.75558 88.2372 3.92294 92.9601 3.2843 98.4705L3.35364 98.4428L3.22327 99.6305C0.537811 124.096 7.75974 140.631 8.22849 141.664L8.26416 141.742L8.28015 141.827C8.9324 145.293 9.7821 148.511 10.7993 151.426L10.8008 151.431C12.7757 157.209 15.3909 161.946 18.4002 165.225C21.4083 168.502 24.7643 170.279 28.2505 170.279L55.3981 170.265C55.4019 170.265 55.4057 170.265 55.4095 170.265C62.028 170.043 68.1408 164.588 72.4605 155.622L72.6797 155.167L73.1818 155.221L186.443 167.245L186.853 167.288L187.021 167.665C190.916 176.356 196.852 182.917 204.655 186.141L204.664 186.145L204.673 186.149C207.456 187.39 210.402 188.113 213.442 188.252L213.465 188.253L213.489 188.256C213.545 188.262 213.615 188.272 213.662 188.279C213.678 188.282 213.692 188.284 213.701 188.285C213.756 188.293 213.781 188.294 213.796 188.294H213.82L213.844 188.296C213.843 188.296 213.845 188.296 213.852 188.296L213.878 188.297C213.9 188.298 213.929 188.299 213.966 188.299C214.039 188.301 214.138 188.302 214.26 188.304C214.505 188.306 214.842 188.309 215.257 188.311C216.088 188.315 217.23 188.317 218.581 188.318C221.283 188.321 224.815 188.319 228.348 188.316C233.466 188.311 238.587 188.302 241.184 188.297C242.172 188.295 242.794 188.294 242.912 188.294C248.86 188.294 253.577 186.727 257.311 183.95C261.053 181.167 263.86 177.132 265.914 172.115L266.101 171.66L266.592 171.67C278.583 171.913 293.075 172.099 302.484 171.827L302.496 171.827C307.759 171.762 313.999 171.957 320.279 172.166C320.7 172.18 321.121 172.194 321.542 172.208C327.41 172.405 333.261 172.601 338.36 172.601C352.086 172.601 370.293 171.289 385.324 170.206C385.911 170.164 386.493 170.122 387.07 170.08L387.074 170.08C388.808 169.965 391.128 169.822 393.877 169.664L394.228 169.644L394.458 169.909C400.595 176.956 409.027 181.379 418.362 181.645L419.058 181.664V181.673H434.065V181.634L434.733 181.589C444.821 180.903 453.792 175.331 459.779 166.898L459.983 166.611L460.334 166.597C461.21 166.56 461.992 166.527 462.665 166.498C464.079 166.437 465.012 166.396 465.331 166.395C466.559 166.355 467.166 166.023 467.561 165.706C467.737 165.564 467.875 165.424 468.032 165.264C468.072 165.223 468.113 165.181 468.157 165.137C468.35 164.943 468.609 164.694 468.955 164.538L468.959 164.536C469.159 164.447 469.407 164.397 469.631 164.362C469.871 164.325 470.148 164.298 470.441 164.278C471.028 164.236 471.718 164.22 472.369 164.215C473.021 164.211 473.646 164.218 474.106 164.227C474.336 164.232 474.526 164.236 474.658 164.24C474.725 164.242 474.776 164.243 474.812 164.244L474.853 164.246L474.863 164.246L474.866 164.246L474.867 164.246H474.867C474.867 164.246 474.867 164.246 474.843 164.962L474.867 164.246L474.94 164.248L475.01 164.265C476.418 164.603 477.182 164.477 477.57 164.318C477.815 164.216 477.939 164.089 477.998 164.008L478.048 163.892L478.131 163.698C478.131 163.697 478.132 163.696 478.132 163.694C478.207 163.515 478.351 163.182 478.548 162.732C478.69 162.39 478.857 161.987 479.023 161.544L479.066 161.429L479.065 161.429L479.07 161.418C479.551 160.192 480.097 158.66 480.477 157.186C480.864 155.683 481.048 154.348 480.891 153.465C480.891 153.465 480.891 153.465 480.891 153.465L481.597 153.339M470.109 88.5865C463.799 79.6564 457.063 73.4911 449.268 69.6859C441.474 65.8809 432.563 64.4074 421.855 64.9547L421.77 64.959L421.687 64.9436L421.818 64.239M421.818 64.239C421.818 64.239 402.317 60.6131 389.826 59.4092M421.818 64.239C421.687 64.9436 421.687 64.9435 421.687 64.9435L421.687 64.9434L421.684 64.9429L421.673 64.941L421.632 64.9332L421.467 64.9028C421.321 64.876 421.106 64.8366 420.828 64.7859C420.271 64.6846 419.461 64.5384 418.451 64.3593C416.43 64.0009 413.605 63.5106 410.39 62.9827C403.956 61.9262 395.977 60.7221 389.757 60.1225L389.543 60.1019L389.375 59.9663L389.826 59.4092M389.826 59.4092C389.826 59.4092 389.454 59.1082 388.796 58.5493M389.826 59.4092L389.375 59.9663L389.375 59.9662L389.375 59.966L389.374 59.9651L389.37 59.9622L389.356 59.9511L389.304 59.9081C389.257 59.8703 389.189 59.8143 389.101 59.7409C388.923 59.5939 388.663 59.377 388.332 59.0955L387.812 58.654L388.227 58.1136L388.227 58.1135L388.227 58.1133C388.227 58.1131 388.227 58.113 388.796 58.5493M388.796 58.5493C388.796 58.5493 392.172 54.1495 390.441 50.5235C388.71 46.8976 385.104 44.8482 382.143 43.5297C381.993 43.4631 381.837 43.3925 381.674 43.319C378.763 42.0049 373.897 39.8081 372.993 44.7652M388.796 58.5493L388.227 58.113L388.227 58.1127L388.232 58.1062L388.256 58.0749C388.277 58.0461 388.309 58.0017 388.35 57.9429C388.432 57.8252 388.55 57.6505 388.686 57.4288C388.961 56.9839 389.308 56.3572 389.603 55.6276C390.204 54.1415 390.53 52.3735 389.794 50.8323C388.181 47.4539 384.789 45.4925 381.851 44.1844C381.695 44.1151 381.535 44.0425 381.369 43.9678C380.727 43.6781 380.015 43.3568 379.269 43.0758C378.328 42.7219 377.392 42.4563 376.559 42.407C375.733 42.3581 375.086 42.5254 374.617 42.9465C374.143 43.3725 373.723 44.1703 373.599 45.6531L372.998 45.6028M372.993 44.7652L228.404 1.79572C190.274 2.88493 152.358 6.62551 133.729 12.3295L133.939 13.0148C152.465 7.34202 190.294 3.6013 228.425 2.51208L228.425 2.51207C247.443 1.96165 267.837 3.39862 285.874 6.02155C303.925 8.64647 319.561 12.4512 329.088 16.6122L329.088 16.6123C334.634 19.0322 342.07 23.7182 349.853 29.1756C357.624 34.6249 365.7 40.8139 372.512 46.2124L372.998 45.6028M372.993 44.7652C373.107 44.8552 373.22 44.945 373.333 45.0346L373.333 45.0342L373.402 45.0891L373.405 45.0915L372.998 45.6028M372.993 44.7652L329.375 15.9554C340.406 20.7693 358.655 34.3474 372.221 45.0682C372.201 45.2191 372.184 45.3743 372.171 45.5337L372.139 45.914L372.437 46.1527L372.509 46.21L372.957 45.6507L372.995 45.6026L372.995 45.6026L372.998 45.6028M481.597 153.339C481.969 155.432 480.71 159.201 479.737 161.68M481.597 153.339L479.737 161.68M479.737 161.68L479.694 161.795C479.522 162.254 479.35 162.669 479.207 163.013C479.007 163.472 478.864 163.801 478.792 163.973L478.707 164.174V164.203L479.737 161.68ZM28.015 45.6577C27.9563 45.7051 27.8717 45.7739 27.7639 45.8623C27.5387 46.047 27.2126 46.3174 26.811 46.6586C26.0074 47.3414 24.9032 48.3062 23.7012 49.4339C21.61 51.3956 19.2653 53.8114 17.6773 56.0749C18.0795 55.9125 18.5648 55.7145 19.0795 55.5035C20.2607 55.0194 21.5911 54.4691 22.4164 54.1277L22.6678 54.0239C22.6702 54.0229 22.6726 54.0219 22.6749 54.0208C22.973 53.8887 23.2388 53.7248 23.4646 53.5326L28.015 45.6577ZM54.3055 46.2148L54.7578 47.5422C52.4018 48.9438 50.0598 50.3742 47.7032 51.8478L46.6066 52.5335V51.2401V48.9041C46.6066 47.9647 46.9521 47.4048 47.3267 47.1421L47.4739 47.0389L47.6523 47.0174L54.3055 46.2148Z" fill="#00CC73" stroke="#F8FCFF" stroke-width="1.4333"/>
<path d="M25.1178 168.058C14.5844 168.058 6.04531 149.142 6.04531 125.808C6.04531 102.474 14.5844 83.558 25.1178 83.558C35.6512 83.558 44.1902 102.474 44.1902 125.808C44.1902 149.142 35.6512 168.058 25.1178 168.058Z" stroke="#F8FCFF" stroke-width="1.4333" stroke-linecap="round" stroke-linejoin="round"/>
<path d="M263.229 96.0697C263.816 98.0332 267.078 108.911 268.495 113.64C268.895 114.988 269.153 115.833 269.153 115.833C269.153 115.833 326.57 118.571 330.519 117.696C334.468 116.822 349.592 103.866 349.592 103.866C349.592 103.866 348.333 103.709 346.129 103.451C331.907 101.716 278.51 95.2385 273.002 94.7655C266.649 94.2066 262.485 93.5473 263.258 96.084L263.229 96.0697Z" stroke="#F8FCFF" stroke-width="1.4333" stroke-linecap="round" stroke-linejoin="round"/>
<path d="M263.23 96.0697C263.817 98.0332 267.079 108.911 268.495 113.64C277.066 114.113 325.097 116.693 328.689 115.89C331.836 115.188 342.081 106.818 346.116 103.451C331.894 101.716 278.497 95.2385 272.988 94.7655C266.635 94.2066 262.472 93.5473 263.244 96.084L263.23 96.0697Z" stroke="#F8FCFF" stroke-width="1.4333" stroke-linecap="round" stroke-linejoin="round"/>
<path d="M267.078 108.939C270.612 109.842 275.935 110.344 276.378 110.014C276.75 109.742 273.545 101.931 272.529 99.4519C272.386 99.1079 272.658 98.7497 273.03 98.7926L286.065 100.211C286.909 100.297 287.681 100.756 288.168 101.444L292.689 107.736C293.963 109.513 295.923 110.702 298.083 111.003L298.842 111.118L294.234 101.114L339.719 106.073C339.719 106.073 329.117 114.085 325.755 114.343C322.392 114.586 267.822 111.405 267.822 111.405L267.092 108.968L267.078 108.939Z" stroke="#F8FCFF" stroke-width="1.4333" stroke-linecap="round" stroke-linejoin="round"/>
<path d="M362.312 107.95L355.015 118.384C354.342 119.344 354.128 120.548 354.428 121.666L362.584 152.393C363.514 155.876 366.662 158.298 370.253 158.283C381.256 158.255 404.291 158.126 414.994 157.638C426.898 157.094 446.256 156.091 456.143 155.016C458.919 154.715 461.137 152.551 461.509 149.77L464.556 119.287C464.757 117.223 464.055 115.174 462.61 113.669L455.714 106.517C454.197 104.941 452.108 104.038 449.919 104.024C441.978 103.952 422.305 103.794 413.234 104.052C402.803 104.353 372.685 105.686 364.873 106.417C363.843 106.517 362.913 107.062 362.312 107.922V107.95Z" stroke="#F8FCFF" stroke-width="1.4333" stroke-linecap="round" stroke-linejoin="round"/>
<path d="M349.564 103.852L365.46 106.403" stroke="#F8FCFF" stroke-width="1.4333" stroke-linecap="round" stroke-linejoin="round"/>
<path d="M471.768 90.1075C471.768 90.1075 466.645 97.9183 452.566 104.511" stroke="#F8FCFF" stroke-width="1.4333" stroke-linecap="round" stroke-linejoin="round"/>
<path d="M471.295 90.7668C471.295 90.7668 474.199 96.5712 475.387 101.344C476.574 106.116 478.392 109.283 476.045 110.645C473.699 112.006 470.422 113.196 468.562 113.726" stroke="#F8FCFF" stroke-width="1.4333" stroke-linecap="round" stroke-linejoin="round"/>
<path d="M456.987 102.247C456.987 102.247 462.968 107.764 465.844 110.803C468.72 113.841 468.634 113.812 468.562 117.18C468.491 119.932 467.275 141.229 466.831 148.954C466.745 150.43 468.076 151.576 469.521 151.29C472.325 150.716 476.432 149.527 478.177 147.305C480.237 144.668 478.807 112.408 477.176 108.61" stroke="#F8FCFF" stroke-width="1.4333" stroke-linecap="round" stroke-linejoin="round"/>
<path d="M327.129 119.445L335.599 152.68C336.171 154.93 334.412 157.094 332.094 156.994L280.657 154.729C278.453 154.629 276.608 153.052 276.178 150.888L269.139 115.819L325.083 117.796C326.056 117.825 326.886 118.499 327.115 119.445H327.129Z" stroke="#F8FCFF" stroke-width="1.4333" stroke-linecap="round" stroke-linejoin="round"/>
<path d="M317.356 117.524L318.73 117.567C320.118 117.61 321.305 118.585 321.634 119.946L329.16 151.06C329.561 152.723 328.288 154.314 326.585 154.271L306.611 153.712" stroke="#F8FCFF" stroke-width="1.4333" stroke-linecap="round" stroke-linejoin="round"/>
<path d="M302.147 117.223C302.147 117.223 304.093 118.785 304.966 122.297C305.638 124.977 309.358 141.96 311.09 149.871C311.533 151.92 309.931 153.841 307.842 153.755L276.808 152.465" stroke="#F8FCFF" stroke-width="1.4333" stroke-linecap="round" stroke-linejoin="round"/>
<path d="M299.385 153.411L301.26 153.482C302.233 153.482 302.948 152.666 302.748 151.705L295.708 117.997C295.579 117.395 295.064 116.951 294.449 116.922L292.503 116.851" stroke="#F8FCFF" stroke-width="1.4333" stroke-linecap="round" stroke-linejoin="round"/>
<path d="M277.165 116.034C277.165 116.034 280.284 118.098 280.942 121.308C281.486 123.974 284.977 143.909 286.15 150.659C286.351 151.806 285.449 152.838 284.29 152.795L282.087 152.709" stroke="#F8FCFF" stroke-width="1.4333" stroke-linecap="round" stroke-linejoin="round"/>
<path d="M265.232 102.749L232.939 100.126" stroke="#F8FCFF" stroke-width="1.4333" stroke-linecap="round" stroke-linejoin="round"/>
<path d="M182.118 127.069C182.332 123.285 182.747 119.416 183.405 115.546C187.841 89.3623 203.78 84.9195 210.032 86.238C216.285 87.5565 231.237 92.6586 237.146 122.784C243.069 152.909 243.069 165.75 245.688 171.841C245.688 171.841 283.876 173.102 302.419 172.558C302.419 172.558 313.078 165.865 317.571 164.876C322.063 163.887 402.817 162.139 419.257 161.307C435.11 160.519 467.389 159.874 476.517 158.126C477.047 158.026 477.576 158.355 477.733 158.871C478.091 160.118 478.678 162.354 478.678 164.102C478.678 164.102 482.126 156.607 481.554 153.325C480.981 150.028 481.081 149.928 479.851 147.979C479.851 147.979 483.356 106.159 470.651 88.1584C457.946 70.1578 443.366 63.1353 421.775 64.2245C421.775 64.2245 402.273 60.5986 389.783 59.3947C389.783 59.3947 348.576 24.325 329.346 15.9266C310.116 7.52823 266.506 0.663336 228.375 1.76688C190.245 2.87042 152.329 6.59667 133.7 12.3007C115.071 18.0047 78.6859 30.7456 43.6315 53.576C43.6315 53.576 32.128 54.0203 26.6481 56.3134C21.1681 58.6064 14.7009 61.8024 13.3846 63.2213C12.0683 64.6401 5.21479 74.0274 2.42475 99.5521C-0.365291 125.077 7.5184 142.031 7.5184 142.031L6.54543 135.324C6.54543 135.324 0.77938 118.57 3.98435 102.605C7.18932 86.6393 12.8552 77.0084 22.0695 76.4208C31.2695 75.8475 41.8717 88.6887 46.1497 118.656C50.4278 148.624 51.6297 153.669 51.6297 153.669L186.296 167.986" stroke="#F8FCFF" stroke-width="2.86661" stroke-linecap="round" stroke-linejoin="round"/>
<path d="M478.678 164.117C478.678 164.117 478.263 165.808 474.772 164.977C474.772 164.977 470.051 164.819 469.178 165.206C468.319 165.593 468.033 167.04 465.272 167.126C462.525 167.212 402.374 169.721 387.036 170.824C371.698 171.928 352.568 173.347 338.275 173.347C327.315 173.347 312.907 172.444 302.419 172.573" stroke="#F8FCFF" stroke-width="1.4333" stroke-linecap="round" stroke-linejoin="round"/>
<path d="M387.537 59.0795C387.537 59.0795 346.373 24.8554 331.65 18.2484C316.927 11.6415 282.13 11.0109 265.218 11.3406C249.007 11.6559 210.276 12.5731 194.795 16.4283C193.822 16.672 193.307 17.7468 193.736 18.6641C196.383 24.3394 204.896 43.0423 210.476 59.6098C210.906 60.871 212.079 61.7022 213.395 61.6735C227.417 61.3726 303.335 59.7531 314.066 59.7531C325.898 59.7531 380.297 59.0938 387.537 59.0938V59.0795Z" stroke="#F8FCFF" stroke-width="1.4333" stroke-linecap="round" stroke-linejoin="round"/>
<path d="M179.027 58.3485C186.482 59.0364 193.235 59.796 198.801 60.6129C198.801 60.6129 188.199 26.4891 180.601 19.7389C172.489 12.5444 153.445 12.53 131.74 19.3376C113.082 25.1849 93.0653 35.2028 87.8286 37.8972C86.9559 38.3415 86.1833 38.9291 85.4965 39.6313L74.6797 50.7957C74.0501 51.455 74.4794 52.5442 75.3951 52.5728C81.4187 52.7735 98.302 53.3611 118.319 54.35C126.117 54.7369 134.086 55.1526 142.37 55.6542" stroke="#F8FCFF" stroke-width="1.4333" stroke-linecap="round" stroke-linejoin="round"/>
<path d="M122.483 15.9554C122.483 15.9554 117.318 19.7533 113.912 25.873C113.912 25.873 106.658 31.6917 101.55 53.5762C101.55 53.5762 97.4296 56.4425 93.1658 61.215C88.8878 65.9874 87.0134 70.8029 86.6843 73.8556C86.6843 73.8556 81.6623 85.5932 82.8928 93.49C84.1232 101.387 93.08 136.127 93.08 136.127C93.08 136.127 73.5211 132.831 66.782 125.923C60.043 119.015 54.6203 90.6953 54.2054 85.5932C53.7904 80.4911 53.0608 76.3779 57.3245 75.5467C61.5883 74.7155 134.086 70.9319 174.02 74.2282C174.02 74.2282 131.339 77.7394 93.0657 82.7842" stroke="#F8FCFF" stroke-width="1.4333" stroke-linecap="round" stroke-linejoin="round"/>
<path d="M82.9785 94.0497C82.9785 94.0497 62.647 92.0144 59.7997 91.4554C56.9524 90.9108 55.0066 90.0078 54.1481 84.7476" stroke="#F8FCFF" stroke-width="1.4333" stroke-linecap="round" stroke-linejoin="round"/>
<path d="M86.6845 73.8555C88.9881 78.2983 93.0801 82.7841 93.0801 82.7841C92.9943 89.6204 94.6397 104.927 95.3837 110.86C96.1277 116.793 97.444 124.332 96.3709 127.786C95.2979 131.24 93.0801 136.127 93.0801 136.127C93.0801 136.127 94.4537 142.06 95.1691 144.196" stroke="#F8FCFF" stroke-width="1.4333" stroke-linecap="round" stroke-linejoin="round"/>
<path d="M48.812 136.772C48.812 136.772 147.379 152.666 182.891 157.925" stroke="#F8FCFF" stroke-width="1.4333" stroke-linecap="round" stroke-linejoin="round"/>
<path d="M93.0798 136.126C93.0798 136.126 130.194 144.467 178.198 152.923" stroke="#F8FCFF" stroke-width="1.4333" stroke-linecap="round" stroke-linejoin="round"/>
<path d="M197.37 60.6129C197.37 60.6129 190.789 67.6355 188.929 69.1689C187.069 70.7024 186.296 71.0894 185.309 72.021C184.322 72.9525 179.614 84.5899 178.627 95.6253C177.64 106.661 176.495 140.656 178.627 156.994" stroke="#F8FCFF" stroke-width="1.4333" stroke-linecap="round" stroke-linejoin="round"/>
<path d="M107.574 75.8763H99.0323C98.603 75.8763 98.3455 76.3636 98.5887 76.7219L100.792 79.8895C101.064 80.2908 101.536 80.4915 102.023 80.4342L107.488 79.7462C107.875 79.7032 108.161 79.3449 108.132 78.9579L107.917 76.2059C107.917 76.0196 107.746 75.8763 107.56 75.8763H107.574Z" stroke="#F8FCFF" stroke-width="1.4333" stroke-linecap="round" stroke-linejoin="round"/>
<mask id="path-28-inside-1_685_33032" fill="white">
<path d="M322.779 91.8419C318.601 88.5312 313.979 85.8082 309.258 83.3431C306.926 82.0533 304.479 80.9784 302.075 79.8319C299.657 78.714 297.168 77.7538 294.707 76.7076C284.777 72.795 274.475 69.8713 264.073 67.5353L256.247 65.8871L248.349 64.5973L244.4 63.9523C243.084 63.766 241.753 63.637 240.423 63.4794L232.467 62.5622C227.159 62.0319 221.822 61.7739 216.5 61.3583L200.489 60.9427C200.089 60.9427 199.759 61.2437 199.759 61.6449C199.759 62.0462 200.06 62.3759 200.461 62.3759H200.503L216.457 62.6052C221.765 62.9491 227.073 63.1498 232.381 63.6227L240.308 64.454C241.624 64.5973 242.955 64.7119 244.271 64.8839L248.22 65.4858L256.104 66.6897L263.93 68.2519C274.332 70.4589 284.634 73.2536 294.578 77.0515C297.039 78.0691 299.528 79.0006 301.961 80.0755C304.379 81.1934 306.826 82.2396 309.172 83.5008C313.908 85.9085 318.558 88.5742 322.779 91.8419Z"/>
</mask>
<path d="M322.779 91.8419C318.601 88.5312 313.979 85.8082 309.258 83.3431C306.926 82.0533 304.479 80.9784 302.075 79.8319C299.657 78.714 297.168 77.7538 294.707 76.7076C284.777 72.795 274.475 69.8713 264.073 67.5353L256.247 65.8871L248.349 64.5973L244.4 63.9523C243.084 63.766 241.753 63.637 240.423 63.4794L232.467 62.5622C227.159 62.0319 221.822 61.7739 216.5 61.3583L200.489 60.9427C200.089 60.9427 199.759 61.2437 199.759 61.6449C199.759 62.0462 200.06 62.3759 200.461 62.3759H200.503L216.457 62.6052C221.765 62.9491 227.073 63.1498 232.381 63.6227L240.308 64.454C241.624 64.5973 242.955 64.7119 244.271 64.8839L248.22 65.4858L256.104 66.6897L263.93 68.2519C274.332 70.4589 284.634 73.2536 294.578 77.0515C297.039 78.0691 299.528 79.0006 301.961 80.0755C304.379 81.1934 306.826 82.2396 309.172 83.5008C313.908 85.9085 318.558 88.5742 322.779 91.8419Z" fill="#00CC73"/>
<path d="M322.779 91.8419L323.669 90.7185L321.901 92.9752L322.779 91.8419ZM309.258 83.3431L308.595 84.6137L308.579 84.6057L308.564 84.5974L309.258 83.3431ZM302.075 79.8319L302.677 78.5309L302.685 78.5345L302.692 78.5382L302.075 79.8319ZM294.707 76.7076L295.232 75.3741L295.25 75.381L295.267 75.3885L294.707 76.7076ZM264.073 67.5353L264.369 66.1327L264.378 66.1347L264.388 66.1368L264.073 67.5353ZM256.247 65.8871L256.478 64.4726L256.51 64.4778L256.542 64.4846L256.247 65.8871ZM248.349 64.5973L248.58 63.1827V63.1827L248.349 64.5973ZM244.4 63.9523L244.601 62.5332L244.616 62.5353L244.631 62.5378L244.4 63.9523ZM240.423 63.4794L240.587 62.0555L240.591 62.056L240.423 63.4794ZM232.467 62.5622L232.61 61.136L232.621 61.137L232.631 61.1383L232.467 62.5622ZM216.5 61.3583L216.537 59.9255L216.574 59.9264L216.611 59.9293L216.5 61.3583ZM200.489 60.9427V59.5094H200.508L200.526 59.5099L200.489 60.9427ZM200.503 62.3759V60.9426H200.514L200.524 60.9427L200.503 62.3759ZM216.457 62.6052L216.477 61.172L216.513 61.1725L216.549 61.1749L216.457 62.6052ZM232.381 63.6227L232.509 62.1951L232.52 62.1961L232.531 62.1972L232.381 63.6227ZM240.308 64.454L240.458 63.0285L240.463 63.0291L240.308 64.454ZM244.271 64.8839L244.457 63.4627L244.472 63.4647L244.487 63.467L244.271 64.8839ZM248.22 65.4858L248.436 64.0689L248.437 64.069L248.22 65.4858ZM256.104 66.6897L256.32 65.2728L256.353 65.2777L256.385 65.2841L256.104 66.6897ZM263.93 68.2519L264.211 66.8463L264.219 66.848L264.228 66.8498L263.93 68.2519ZM294.578 77.0515L295.089 75.7126L295.108 75.7195L295.126 75.727L294.578 77.0515ZM301.961 80.0755L302.54 78.7645L302.551 78.7694L302.562 78.7745L301.961 80.0755ZM309.172 83.5008L308.522 84.7785L308.508 84.771L308.493 84.7633L309.172 83.5008ZM321.889 92.9652C317.81 89.7336 313.277 87.0584 308.595 84.6137L309.921 82.0726C314.682 84.558 319.391 87.3289 323.669 90.7185L321.889 92.9652ZM308.564 84.5974C306.282 83.3354 303.916 82.2978 301.458 81.1255L302.692 78.5382C305.042 79.659 307.569 80.7712 309.952 82.0889L308.564 84.5974ZM301.474 81.1329C299.078 80.0253 296.671 79.1002 294.146 78.0266L295.267 75.3885C297.664 76.4074 300.236 77.4027 302.677 78.5309L301.474 81.1329ZM294.181 78.0411C284.338 74.1627 274.111 71.2585 263.759 68.9337L264.388 66.1368C274.84 68.4842 285.216 71.4274 295.232 75.3741L294.181 78.0411ZM263.778 68.9378L255.952 67.2897L256.542 64.4846L264.369 66.1327L263.778 68.9378ZM256.016 67.3017L248.118 66.0118L248.58 63.1827L256.478 64.4726L256.016 67.3017ZM248.118 66.0118L244.169 65.3669L244.631 62.5378L248.58 63.1827L248.118 66.0118ZM244.199 65.3715C242.902 65.1879 241.627 65.0654 240.254 64.9027L240.591 62.056C241.879 62.2086 243.265 62.3441 244.601 62.5332L244.199 65.3715ZM240.258 64.9033L232.303 63.986L232.631 61.1383L240.587 62.0555L240.258 64.9033ZM232.325 63.9884C227.029 63.4594 221.775 63.2079 216.388 62.7873L216.611 59.9293C221.87 60.3399 227.289 60.6044 232.61 61.136L232.325 63.9884ZM216.463 62.7911L200.452 62.3755L200.526 59.5099L216.537 59.9255L216.463 62.7911ZM200.489 62.376C200.806 62.376 201.193 62.1071 201.193 61.6449H198.326C198.326 60.3802 199.371 59.5094 200.489 59.5094V62.376ZM201.193 61.6449C201.193 61.333 200.928 60.9426 200.461 60.9426V63.8092C199.192 63.8092 198.326 62.7594 198.326 61.6449H201.193ZM200.461 60.9426H200.503V63.8092H200.461V60.9426ZM200.524 60.9427L216.477 61.172L216.436 64.0383L200.483 63.809L200.524 60.9427ZM216.549 61.1749C221.802 61.5152 227.182 61.7205 232.509 62.1951L232.254 65.0504C226.965 64.5791 221.728 64.383 216.364 64.0355L216.549 61.1749ZM232.531 62.1972L240.458 63.0285L240.159 65.8794L232.232 65.0482L232.531 62.1972ZM240.463 63.0291C241.733 63.1674 243.123 63.2885 244.457 63.4627L244.086 66.3051C242.787 66.1354 241.515 66.0272 240.153 65.8788L240.463 63.0291ZM244.487 63.467L248.436 64.0689L248.004 66.9028L244.055 66.3008L244.487 63.467ZM248.437 64.069L256.32 65.2728L255.888 68.1066L248.004 66.9027L248.437 64.069ZM256.385 65.2841L264.211 66.8463L263.65 69.6574L255.823 68.0953L256.385 65.2841ZM264.228 66.8498C274.68 69.0676 285.057 71.8811 295.089 75.7126L294.067 78.3905C284.21 74.6262 273.984 71.8503 263.633 69.6539L264.228 66.8498ZM295.126 75.727C297.518 76.716 300.096 77.6842 302.54 78.7645L301.381 81.3865C298.961 80.317 296.56 79.4221 294.03 78.3761L295.126 75.727ZM302.562 78.7745C304.93 79.8692 307.453 80.9499 309.851 82.2383L308.493 84.7633C306.198 83.5293 303.828 82.5176 301.359 81.3765L302.562 78.7745ZM309.822 82.2231C314.596 84.6503 319.335 87.3628 323.656 90.7085L321.901 92.9752C317.781 89.7856 313.22 87.1668 308.522 84.7785L309.822 82.2231Z" fill="#F8FCFF" mask="url(#path-28-inside-1_685_33032)"/>
<path d="M202.163 61.6593C202.163 61.6593 191.847 33.2251 186.096 24.2535C180.344 15.2818 171.473 12.9744 160.785 12.9744C150.097 12.9744 132.098 16.3424 116.573 23.5942" stroke="#F8FCFF" stroke-width="1.4333" stroke-linecap="round" stroke-linejoin="round"/>
<path d="M185.394 72.0213C185.585 71.9744 185.776 71.9276 185.967 71.881C185.744 71.9312 185.52 71.9817 185.296 72.0323L185.295 72.0325C185.295 72.0326 185.295 72.0328 185.295 72.0329C185.294 72.0344 185.294 72.0356 185.293 72.0362C185.293 72.0363 185.293 72.0364 185.293 72.0367C185.293 72.0368 185.293 72.037 185.293 72.0372C185.294 72.0373 185.294 72.0375 185.294 72.0376C185.295 72.0384 185.296 72.0386 185.296 72.0386C185.296 72.0386 185.296 72.0386 185.296 72.0386C185.296 72.0386 185.296 72.0385 185.297 72.0385L185.374 72.0213H185.394Z" fill="#00CC73" stroke="#F8FCFF" stroke-width="1.4333"/>
<path d="M481.554 153.339C481.554 153.339 474.972 157.137 465.944 157.008C465.944 157.008 426.983 159.187 403.647 160.004C380.311 160.821 313.25 163.301 295.994 160.004C278.739 156.707 278.439 157.195 276.364 151.519" stroke="#F8FCFF" stroke-width="1.4333" stroke-linecap="round" stroke-linejoin="round"/>
<path d="M311.175 163.127C311.175 163.127 273.145 164.274 246.346 160.333C246.346 160.333 239.65 114.385 232.053 98.0615C224.326 81.4654 208.874 73.8123 194.251 87.1838C179.628 100.57 179.299 123.156 179.628 135.897C179.957 148.638 181.574 157.739 181.574 157.739" stroke="#F8FCFF" stroke-width="1.4333" stroke-linecap="round" stroke-linejoin="round"/>
<path d="M190.502 96.5713H186.854L178.598 96.041" stroke="#F8FCFF" stroke-width="1.4333" stroke-linecap="round" stroke-linejoin="round"/>
<path d="M181.489 111.004L177.826 109.614C177.826 109.614 125.573 100.656 94.3248 101.43" stroke="#F8FCFF" stroke-width="1.4333" stroke-linecap="round" stroke-linejoin="round"/>
<path d="M178.198 152.923C178.198 152.923 174.363 146.015 163.518 143.049C152.672 140.082 96.7712 123.787 96.7712 123.787" stroke="#F8FCFF" stroke-width="1.4333" stroke-linecap="round" stroke-linejoin="round"/>
<path d="M185.309 165.636C185.309 165.636 78.8151 155.001 53.8764 151.934C53.8764 151.934 49.3265 112.637 45.1629 100.125C40.9993 87.6138 33.9884 72.0209 24.3449 70.9317C14.7014 69.8281 5.38694 83.042 2.53967 98.6062" stroke="#F8FCFF" stroke-width="1.4333" stroke-linecap="round" stroke-linejoin="round"/>
<path d="M54.8069 89.8067L40.6993 88.5884L37.1939 88.2014" stroke="#F8FCFF" stroke-width="1.4333" stroke-linecap="round" stroke-linejoin="round"/>
<path d="M9.56445 85.794L7.07485 84.7477L4.97158 84.0598" stroke="#F8FCFF" stroke-width="1.4333" stroke-linecap="round" stroke-linejoin="round"/>
<path d="M63.9773 41.4514C63.9773 41.4514 36.5061 41.953 27.6352 45.02C27.6352 45.02 19.5226 51.4979 16.3463 56.7577L21.9407 54.4503C21.9407 54.4503 29.3951 47.7574 31.4697 46.7685C33.5587 45.7796 47.8094 44.4897 60.3002 43.4865" stroke="#F8FCFF" stroke-width="1.4333" stroke-linecap="round" stroke-linejoin="round"/>
<path d="M54.3196 46.9549L29.3523 49.9505C28.9087 50.0078 28.5081 50.1798 28.1647 50.4665L23.9153 54.0927C23.6291 54.3364 23.3001 54.537 22.9424 54.6947C21.3828 55.3397 16.9187 57.1886 16.8472 57.1743C16.7899 57.1743 16.3607 56.773 16.3607 56.773" stroke="#F8FCFF" stroke-width="1.4333" stroke-linecap="round" stroke-linejoin="round"/>
<path d="M47.7671 47.743C47.7671 47.743 47.3228 47.8864 47.3228 48.8897V51.226" stroke="#F8FCFF" stroke-width="1.4333" stroke-linecap="round" stroke-linejoin="round"/>
<path d="M39.8965 48.6746C39.8965 48.6746 40.4841 48.7892 40.4841 50.1652V53.7771" stroke="#F8FCFF" stroke-width="1.4333" stroke-linecap="round" stroke-linejoin="round"/>
<path d="M107.531 35.5468C107.531 35.5468 91.8071 36.9944 86.6705 38.5997" stroke="#F8FCFF" stroke-width="1.4333" stroke-linecap="round" stroke-linejoin="round"/>
<path d="M458.503 103.651C458.503 103.651 465.285 100.326 467.245 98.0616C468.49 96.6284 469.535 95.2239 470.136 94.3783C470.422 93.977 471.023 93.9627 471.309 94.3783C472.554 96.0838 475.372 100.555 477.118 107.893" stroke="#F8FCFF" stroke-width="1.4333" stroke-linecap="round" stroke-linejoin="round"/>
<path d="M471.768 95.0092C471.768 95.0092 476.776 107.807 474.157 109.026C471.525 110.229 466.846 111.892 466.846 111.892" stroke="#F8FCFF" stroke-width="1.4333" stroke-linecap="round" stroke-linejoin="round"/>
<path d="M178.055 64.0816L170.529 68.5678C170.014 68.8688 169.441 69.0265 168.84 69.0265H164.72C164.233 69.0265 163.833 68.6251 163.833 68.1378V63.7662H169.026C169.227 63.7662 169.441 63.7376 169.627 63.6802L177.411 61.301L178.312 63.2072C178.469 63.5226 178.341 63.9096 178.04 64.0816H178.055Z" stroke="#F8FCFF" stroke-width="1.4333" stroke-linecap="round" stroke-linejoin="round"/>
<path d="M177.426 61.3007C177.426 61.3007 179.186 58.0617 179.014 55.8403C178.928 54.6508 178.785 53.7049 178.656 53.0313C178.513 52.2717 178.256 51.5408 177.869 50.8815C176.61 48.7031 173.162 43.5007 168.383 42.4545C162.774 41.2363 149.354 45.0342 143.917 49.5917C143.158 50.2223 142.7 51.1395 142.586 52.1284L142.386 53.8769C142.257 55.0091 142.557 56.1556 143.215 57.0872L144.918 59.4806C145.304 60.0252 145.92 60.3835 146.592 60.4408C149.368 60.6988 157.066 61.272 163.905 60.6128C163.905 60.6128 164.377 61.2434 164.019 62.0889C163.633 62.9918 163.833 63.7657 163.833 63.7657" stroke="#F8FCFF" stroke-width="1.4333" stroke-linecap="round" stroke-linejoin="round"/>
<path d="M130.753 19.6529C130.753 19.6529 122.182 37.6679 118.319 54.3357" stroke="#F8FCFF" stroke-width="1.4333" stroke-linecap="round" stroke-linejoin="round"/>
<path d="M192.735 43.2L186.969 59.1512" stroke="#F8FCFF" stroke-width="1.4333" stroke-linecap="round" stroke-linejoin="round"/>
<path d="M388.752 58.5492C388.752 58.5492 392.129 54.1494 390.398 50.5235C388.666 46.8975 385.061 44.8481 382.099 43.5296C379.137 42.2111 373.371 39.2587 372.842 45.5934" stroke="#F8FCFF" stroke-width="1.4333" stroke-linecap="round" stroke-linejoin="round"/>
<path d="M219.347 90.2226C197.871 91.6988 180.83 113.239 180.83 139.581C180.83 165.923 192.334 187.435 213.724 189.025C214.568 189.083 241.997 189.025 242.841 189.025C255.003 189.025 262.328 182.605 266.506 172.401" stroke="#F8FCFF" stroke-width="2.86661" stroke-linecap="round" stroke-linejoin="round"/>
<path d="M227.604 97.99C223.569 95.5823 219.133 94.2351 214.469 94.2351C195.883 94.2351 180.831 115.46 180.831 141.63C180.831 167.8 195.897 189.025 214.469 189.025C227.117 189.025 238.134 179.193 243.872 164.661" stroke="#F8FCFF" stroke-width="1.4333" stroke-linecap="round" stroke-linejoin="round"/>
<path d="M24.1873 163.285C14.8392 163.285 7.26102 146.743 7.26102 126.338C7.26102 105.933 14.8392 89.391 24.1873 89.391C33.5354 89.391 41.1135 105.933 41.1135 126.338C41.1135 146.743 33.5354 163.285 24.1873 163.285Z" stroke="#F8FCFF" stroke-width="1.4333" stroke-linecap="round" stroke-linejoin="round"/>
<path d="M73.0342 155.962C68.6703 165.019 62.3748 170.781 55.3496 171.01L28.1789 171.024C15.9599 171.024 6.04456 150.745 6.04456 125.722C6.04456 100.699 15.9599 80.4193 28.1789 80.4193C29.5381 80.4193 30.8545 80.663 32.1422 81.1503" stroke="#F8FCFF" stroke-width="2.86661" stroke-linecap="round" stroke-linejoin="round"/>
<path d="M460.293 167.312C454.198 175.897 445.04 181.601 434.71 182.303V182.389H418.27V182.36C408.713 182.088 400.099 177.559 393.847 170.379" stroke="#F8FCFF" stroke-width="2.86661" stroke-linecap="round" stroke-linejoin="round"/>
</svg>
