<svg width="822" height="554" viewBox="0 0 822 554" fill="none" xmlns="http://www.w3.org/2000/svg">
<g opacity="0.32">
<g style="mix-blend-mode:overlay" filter="url(#filter0_f_685_33094)">
<path d="M705.092 236.747L579.299 402.393L526.249 262.215L705.092 236.747Z" stroke="#4BE0AA" stroke-miterlimit="10"/>
</g>
<g style="mix-blend-mode:overlay" filter="url(#filter1_f_685_33094)">
<path d="M705.092 236.747L623.483 128.643L526.249 262.215L705.092 236.747Z" stroke="#4BE0AA" stroke-miterlimit="10"/>
</g>
<g style="mix-blend-mode:overlay" filter="url(#filter2_f_685_33094)">
<path d="M429.918 163.514L623.482 128.644L526.248 262.215L429.918 163.514Z" stroke="#4BE0AA" stroke-miterlimit="10"/>
</g>
<g style="mix-blend-mode:overlay" filter="url(#filter3_f_685_33094)">
<path d="M429.921 163.515L410.977 308.234L526.251 262.215L429.921 163.515Z" stroke="#4BE0AA" stroke-miterlimit="10"/>
</g>
<g style="mix-blend-mode:overlay" filter="url(#filter4_f_685_33094)">
<path d="M579.302 402.393L410.978 308.234L526.252 262.215L579.302 402.393Z" stroke="#4BE0AA" stroke-miterlimit="10"/>
</g>
<g style="mix-blend-mode:overlay" filter="url(#filter5_f_685_33094)">
<path d="M429.92 163.515L410.976 308.234L301.205 228.861L429.92 163.515Z" stroke="#4BE0AA" stroke-miterlimit="10"/>
</g>
<g style="mix-blend-mode:overlay" filter="url(#filter6_f_685_33094)">
<path d="M429.92 163.514L387.478 61.7433L301.205 228.86L429.92 163.514Z" stroke="#4BE0AA" stroke-miterlimit="10"/>
</g>
<g style="mix-blend-mode:overlay" filter="url(#filter7_f_685_33094)">
<path d="M191.986 175.558L387.479 61.7433L301.206 228.86L191.986 175.558Z" stroke="#4BE0AA" stroke-miterlimit="10"/>
</g>
<g style="mix-blend-mode:overlay" filter="url(#filter8_f_685_33094)">
<path d="M191.986 175.558L201.017 353.348L301.206 228.86L191.986 175.558Z" stroke="#4BE0AA" stroke-miterlimit="10"/>
</g>
<g style="mix-blend-mode:overlay" filter="url(#filter9_f_685_33094)">
<path d="M410.975 308.233L201.015 353.348L301.204 228.86L410.975 308.233Z" stroke="#4BE0AA" stroke-miterlimit="10"/>
</g>
<g style="mix-blend-mode:overlay" filter="url(#filter10_f_685_33094)">
<path d="M705.092 236.747L623.483 128.644L779.071 107.754L705.092 236.747Z" stroke="#4BE0AA" stroke-miterlimit="10"/>
</g>
<g style="mix-blend-mode:overlay" filter="url(#filter11_f_685_33094)">
<path d="M429.918 163.514L623.482 128.643L523.149 4.00023L429.918 163.514Z" stroke="#4BE0AA" stroke-miterlimit="10"/>
</g>
<g style="mix-blend-mode:overlay" filter="url(#filter12_f_685_33094)">
<path d="M429.92 163.514L387.478 61.7435L523.151 4.00011L429.92 163.514Z" stroke="#4BE0AA" stroke-miterlimit="10"/>
</g>
<g style="mix-blend-mode:overlay" filter="url(#filter13_f_685_33094)">
<path d="M705.092 236.747L579.299 402.393L714.476 435.171L705.092 236.747Z" stroke="#4BE0AA" stroke-miterlimit="10"/>
</g>
<g style="mix-blend-mode:overlay" filter="url(#filter14_f_685_33094)">
<path d="M191.984 175.558L201.015 353.348L40.0022 245.482L191.984 175.558Z" stroke="#4BE0AA" stroke-miterlimit="10"/>
</g>
<g style="mix-blend-mode:overlay" filter="url(#filter15_f_685_33094)">
<path d="M191.986 175.559L387.479 61.7446L164.507 21.6377L191.986 175.559Z" stroke="#4BE0AA" stroke-miterlimit="10"/>
</g>
<g style="mix-blend-mode:overlay" filter="url(#filter16_f_685_33094)">
<path d="M609.049 550L579.299 402.393L714.476 435.171L609.049 550Z" stroke="#4BE0AA" stroke-miterlimit="10"/>
</g>
<g style="mix-blend-mode:overlay" filter="url(#filter17_f_685_33094)">
<path d="M705.094 236.747L819 307.64L714.477 435.171L705.094 236.747Z" stroke="#4BE0AA" stroke-miterlimit="10"/>
</g>
<g style="mix-blend-mode:overlay" filter="url(#filter18_f_685_33094)">
<path d="M191.984 175.558L4 102.38L40.0024 245.482L191.984 175.558Z" stroke="#4BE0AA" stroke-miterlimit="10"/>
</g>
<g style="mix-blend-mode:overlay" filter="url(#filter19_f_685_33094)">
<path d="M191.984 175.559L4.00024 102.382L164.506 21.6376L191.984 175.559Z" stroke="#4BE0AA" stroke-miterlimit="10"/>
</g>
<g style="mix-blend-mode:color-dodge" filter="url(#filter20_f_685_33094)">
<path d="M201.015 346.513C196.461 346.513 192.778 349.565 192.778 353.339C192.778 357.113 196.472 360.165 201.015 360.165C205.558 360.165 209.252 357.104 209.252 353.339C209.252 349.574 205.558 346.513 201.015 346.513Z" fill="url(#paint0_radial_685_33094)" style="mix-blend-mode:color-dodge"/>
</g>
<g style="mix-blend-mode:color-dodge" filter="url(#filter21_f_685_33094)">
<path d="M387.476 54.9083C382.921 54.9083 379.239 57.9604 379.239 61.7344C379.239 65.5085 382.932 68.5605 387.476 68.5605C392.019 68.5605 395.713 65.5085 395.713 61.7344C395.713 57.9604 392.019 54.9083 387.476 54.9083Z" fill="url(#paint1_radial_685_33094)" style="mix-blend-mode:color-dodge"/>
</g>
<g style="mix-blend-mode:color-dodge" filter="url(#filter22_f_685_33094)">
<path d="M429.918 149.853C420.809 149.853 413.433 155.967 413.433 163.515C413.433 171.063 420.809 177.176 429.918 177.176C439.026 177.176 446.403 171.063 446.403 163.515C446.403 155.967 439.026 149.853 429.918 149.853Z" fill="url(#paint2_radial_685_33094)" style="mix-blend-mode:color-dodge"/>
</g>
<g style="mix-blend-mode:color-dodge" filter="url(#filter23_f_685_33094)">
<path d="M705.09 223.085C695.993 223.085 688.605 229.199 688.605 236.747C688.605 244.295 695.982 250.408 705.09 250.408C714.198 250.408 721.575 244.295 721.575 236.747C721.575 229.199 714.198 223.085 705.09 223.085Z" fill="url(#paint3_radial_685_33094)" style="mix-blend-mode:color-dodge"/>
</g>
<g style="mix-blend-mode:color-dodge" filter="url(#filter24_f_685_33094)">
<path d="M526.248 248.553C517.151 248.553 509.763 254.666 509.763 262.214C509.763 269.762 517.14 275.876 526.248 275.876C535.356 275.876 542.733 269.762 542.733 262.214C542.733 254.666 535.356 248.553 526.248 248.553Z" fill="url(#paint4_radial_685_33094)" style="mix-blend-mode:color-dodge"/>
</g>
<g style="mix-blend-mode:color-dodge" filter="url(#filter25_f_685_33094)">
<path d="M191.982 161.896C182.885 161.896 175.497 168.01 175.497 175.558C175.497 183.106 182.874 189.219 191.982 189.219C201.09 189.219 208.467 183.106 208.467 175.558C208.467 168.01 201.09 161.896 191.982 161.896Z" fill="url(#paint5_radial_685_33094)" style="mix-blend-mode:color-dodge"/>
</g>
<g style="mix-blend-mode:color-dodge" filter="url(#filter26_f_685_33094)">
<path d="M579.299 395.557C574.745 395.557 571.062 398.618 571.062 402.383C571.062 406.148 574.756 409.21 579.299 409.21C583.842 409.21 587.536 406.148 587.536 402.383C587.536 398.618 583.842 395.557 579.299 395.557Z" fill="url(#paint6_radial_685_33094)" style="mix-blend-mode:color-dodge"/>
</g>
<g style="mix-blend-mode:color-dodge" filter="url(#filter27_f_685_33094)">
<path d="M714.475 428.336C709.921 428.336 706.238 431.388 706.238 435.162C706.238 438.936 709.932 441.988 714.475 441.988C719.018 441.988 722.712 438.936 722.712 435.162C722.712 431.388 719.018 428.336 714.475 428.336Z" fill="url(#paint7_radial_685_33094)" style="mix-blend-mode:color-dodge"/>
</g>
<g style="mix-blend-mode:color-dodge" filter="url(#filter28_f_685_33094)">
<path d="M623.484 121.808C618.929 121.808 615.247 124.86 615.247 128.634C615.247 132.408 618.929 135.46 623.484 135.46C628.038 135.46 631.721 132.408 631.721 128.634C631.721 124.86 628.038 121.808 623.484 121.808Z" fill="url(#paint8_radial_685_33094)" style="mix-blend-mode:color-dodge"/>
</g>
</g>
<defs>
<filter id="filter0_f_685_33094" x="523.55" y="234.071" width="184.685" height="171.354" filterUnits="userSpaceOnUse" color-interpolation-filters="sRGB">
<feFlood flood-opacity="0" result="BackgroundImageFix"/>
<feBlend mode="normal" in="SourceGraphic" in2="BackgroundImageFix" result="shape"/>
<feGaussianBlur stdDeviation="1.00492" result="effect1_foregroundBlur_685_33094"/>
</filter>
<filter id="filter1_f_685_33094" x="523.139" y="125.794" width="184.873" height="139.092" filterUnits="userSpaceOnUse" color-interpolation-filters="sRGB">
<feFlood flood-opacity="0" result="BackgroundImageFix"/>
<feBlend mode="normal" in="SourceGraphic" in2="BackgroundImageFix" result="shape"/>
<feGaussianBlur stdDeviation="1.00492" result="effect1_foregroundBlur_685_33094"/>
</filter>
<filter id="filter2_f_685_33094" x="426.893" y="125.921" width="199.737" height="139.077" filterUnits="userSpaceOnUse" color-interpolation-filters="sRGB">
<feFlood flood-opacity="0" result="BackgroundImageFix"/>
<feBlend mode="normal" in="SourceGraphic" in2="BackgroundImageFix" result="shape"/>
<feGaussianBlur stdDeviation="1.00492" result="effect1_foregroundBlur_685_33094"/>
</filter>
<filter id="filter3_f_685_33094" x="408.361" y="160.418" width="120.781" height="150.606" filterUnits="userSpaceOnUse" color-interpolation-filters="sRGB">
<feFlood flood-opacity="0" result="BackgroundImageFix"/>
<feBlend mode="normal" in="SourceGraphic" in2="BackgroundImageFix" result="shape"/>
<feGaussianBlur stdDeviation="1.00492" result="effect1_foregroundBlur_685_33094"/>
</filter>
<filter id="filter4_f_685_33094" x="407.809" y="259.552" width="174.455" height="145.957" filterUnits="userSpaceOnUse" color-interpolation-filters="sRGB">
<feFlood flood-opacity="0" result="BackgroundImageFix"/>
<feBlend mode="normal" in="SourceGraphic" in2="BackgroundImageFix" result="shape"/>
<feGaussianBlur stdDeviation="1.00492" result="effect1_foregroundBlur_685_33094"/>
</filter>
<filter id="filter5_f_685_33094" x="298.238" y="160.63" width="134.311" height="150.511" filterUnits="userSpaceOnUse" color-interpolation-filters="sRGB">
<feFlood flood-opacity="0" result="BackgroundImageFix"/>
<feBlend mode="normal" in="SourceGraphic" in2="BackgroundImageFix" result="shape"/>
<feGaussianBlur stdDeviation="1.00492" result="effect1_foregroundBlur_685_33094"/>
</filter>
<filter id="filter6_f_685_33094" x="298.04" y="58.5501" width="134.53" height="173.467" filterUnits="userSpaceOnUse" color-interpolation-filters="sRGB">
<feFlood flood-opacity="0" result="BackgroundImageFix"/>
<feBlend mode="normal" in="SourceGraphic" in2="BackgroundImageFix" result="shape"/>
<feGaussianBlur stdDeviation="1.00492" result="effect1_foregroundBlur_685_33094"/>
</filter>
<filter id="filter7_f_685_33094" x="188.915" y="58.4379" width="201.805" height="173.096" filterUnits="userSpaceOnUse" color-interpolation-filters="sRGB">
<feFlood flood-opacity="0" result="BackgroundImageFix"/>
<feBlend mode="normal" in="SourceGraphic" in2="BackgroundImageFix" result="shape"/>
<feGaussianBlur stdDeviation="1.00492" result="effect1_foregroundBlur_685_33094"/>
</filter>
<filter id="filter8_f_685_33094" x="189.434" y="172.727" width="114.564" height="183.966" filterUnits="userSpaceOnUse" color-interpolation-filters="sRGB">
<feFlood flood-opacity="0" result="BackgroundImageFix"/>
<feBlend mode="normal" in="SourceGraphic" in2="BackgroundImageFix" result="shape"/>
<feGaussianBlur stdDeviation="1.00492" result="effect1_foregroundBlur_685_33094"/>
</filter>
<filter id="filter9_f_685_33094" x="197.731" y="226.167" width="216.457" height="129.976" filterUnits="userSpaceOnUse" color-interpolation-filters="sRGB">
<feFlood flood-opacity="0" result="BackgroundImageFix"/>
<feBlend mode="normal" in="SourceGraphic" in2="BackgroundImageFix" result="shape"/>
<feGaussianBlur stdDeviation="1.00492" result="effect1_foregroundBlur_685_33094"/>
</filter>
<filter id="filter10_f_685_33094" x="620.559" y="105.114" width="161.46" height="134.549" filterUnits="userSpaceOnUse" color-interpolation-filters="sRGB">
<feFlood flood-opacity="0" result="BackgroundImageFix"/>
<feBlend mode="normal" in="SourceGraphic" in2="BackgroundImageFix" result="shape"/>
<feGaussianBlur stdDeviation="1.00492" result="effect1_foregroundBlur_685_33094"/>
</filter>
<filter id="filter11_f_685_33094" x="426.929" y="1.11162" width="199.48" height="165.097" filterUnits="userSpaceOnUse" color-interpolation-filters="sRGB">
<feFlood flood-opacity="0" result="BackgroundImageFix"/>
<feBlend mode="normal" in="SourceGraphic" in2="BackgroundImageFix" result="shape"/>
<feGaussianBlur stdDeviation="1.00492" result="effect1_foregroundBlur_685_33094"/>
</filter>
<filter id="filter12_f_685_33094" x="384.816" y="0.938833" width="141.539" height="165.704" filterUnits="userSpaceOnUse" color-interpolation-filters="sRGB">
<feFlood flood-opacity="0" result="BackgroundImageFix"/>
<feBlend mode="normal" in="SourceGraphic" in2="BackgroundImageFix" result="shape"/>
<feGaussianBlur stdDeviation="1.00492" result="effect1_foregroundBlur_685_33094"/>
</filter>
<filter id="filter13_f_685_33094" x="576.429" y="233.338" width="140.588" height="204.486" filterUnits="userSpaceOnUse" color-interpolation-filters="sRGB">
<feFlood flood-opacity="0" result="BackgroundImageFix"/>
<feBlend mode="normal" in="SourceGraphic" in2="BackgroundImageFix" result="shape"/>
<feGaussianBlur stdDeviation="1.00492" result="effect1_foregroundBlur_685_33094"/>
</filter>
<filter id="filter14_f_685_33094" x="36.9728" y="172.785" width="166.602" height="183.543" filterUnits="userSpaceOnUse" color-interpolation-filters="sRGB">
<feFlood flood-opacity="0" result="BackgroundImageFix"/>
<feBlend mode="normal" in="SourceGraphic" in2="BackgroundImageFix" result="shape"/>
<feGaussianBlur stdDeviation="1.00492" result="effect1_foregroundBlur_685_33094"/>
</filter>
<filter id="filter15_f_685_33094" x="161.879" y="19.0086" width="229.036" height="159.352" filterUnits="userSpaceOnUse" color-interpolation-filters="sRGB">
<feFlood flood-opacity="0" result="BackgroundImageFix"/>
<feBlend mode="normal" in="SourceGraphic" in2="BackgroundImageFix" result="shape"/>
<feGaussianBlur stdDeviation="1.00492" result="effect1_foregroundBlur_685_33094"/>
</filter>
<filter id="filter16_f_685_33094" x="576.644" y="399.712" width="140.783" height="153.36" filterUnits="userSpaceOnUse" color-interpolation-filters="sRGB">
<feFlood flood-opacity="0" result="BackgroundImageFix"/>
<feBlend mode="normal" in="SourceGraphic" in2="BackgroundImageFix" result="shape"/>
<feGaussianBlur stdDeviation="1.00492" result="effect1_foregroundBlur_685_33094"/>
</filter>
<filter id="filter17_f_685_33094" x="702.539" y="233.809" width="119.218" height="204.695" filterUnits="userSpaceOnUse" color-interpolation-filters="sRGB">
<feFlood flood-opacity="0" result="BackgroundImageFix"/>
<feBlend mode="normal" in="SourceGraphic" in2="BackgroundImageFix" result="shape"/>
<feGaussianBlur stdDeviation="1.00492" result="effect1_foregroundBlur_685_33094"/>
</filter>
<filter id="filter18_f_685_33094" x="1.26897" y="99.5531" width="194.005" height="148.645" filterUnits="userSpaceOnUse" color-interpolation-filters="sRGB">
<feFlood flood-opacity="0" result="BackgroundImageFix"/>
<feBlend mode="normal" in="SourceGraphic" in2="BackgroundImageFix" result="shape"/>
<feGaussianBlur stdDeviation="1.00492" result="effect1_foregroundBlur_685_33094"/>
</filter>
<filter id="filter19_f_685_33094" x="0.761892" y="18.8798" width="193.881" height="159.478" filterUnits="userSpaceOnUse" color-interpolation-filters="sRGB">
<feFlood flood-opacity="0" result="BackgroundImageFix"/>
<feBlend mode="normal" in="SourceGraphic" in2="BackgroundImageFix" result="shape"/>
<feGaussianBlur stdDeviation="1.00492" result="effect1_foregroundBlur_685_33094"/>
</filter>
<filter id="filter20_f_685_33094" x="190.768" y="344.503" width="20.4935" height="17.672" filterUnits="userSpaceOnUse" color-interpolation-filters="sRGB">
<feFlood flood-opacity="0" result="BackgroundImageFix"/>
<feBlend mode="normal" in="SourceGraphic" in2="BackgroundImageFix" result="shape"/>
<feGaussianBlur stdDeviation="1.00492" result="effect1_foregroundBlur_685_33094"/>
</filter>
<filter id="filter21_f_685_33094" x="377.229" y="52.8984" width="20.4935" height="17.672" filterUnits="userSpaceOnUse" color-interpolation-filters="sRGB">
<feFlood flood-opacity="0" result="BackgroundImageFix"/>
<feBlend mode="normal" in="SourceGraphic" in2="BackgroundImageFix" result="shape"/>
<feGaussianBlur stdDeviation="1.00492" result="effect1_foregroundBlur_685_33094"/>
</filter>
<filter id="filter22_f_685_33094" x="411.423" y="147.843" width="36.9896" height="31.3425" filterUnits="userSpaceOnUse" color-interpolation-filters="sRGB">
<feFlood flood-opacity="0" result="BackgroundImageFix"/>
<feBlend mode="normal" in="SourceGraphic" in2="BackgroundImageFix" result="shape"/>
<feGaussianBlur stdDeviation="1.00492" result="effect1_foregroundBlur_685_33094"/>
</filter>
<filter id="filter23_f_685_33094" x="686.595" y="221.075" width="36.9896" height="31.3425" filterUnits="userSpaceOnUse" color-interpolation-filters="sRGB">
<feFlood flood-opacity="0" result="BackgroundImageFix"/>
<feBlend mode="normal" in="SourceGraphic" in2="BackgroundImageFix" result="shape"/>
<feGaussianBlur stdDeviation="1.00492" result="effect1_foregroundBlur_685_33094"/>
</filter>
<filter id="filter24_f_685_33094" x="507.753" y="246.543" width="36.9896" height="31.3425" filterUnits="userSpaceOnUse" color-interpolation-filters="sRGB">
<feFlood flood-opacity="0" result="BackgroundImageFix"/>
<feBlend mode="normal" in="SourceGraphic" in2="BackgroundImageFix" result="shape"/>
<feGaussianBlur stdDeviation="1.00492" result="effect1_foregroundBlur_685_33094"/>
</filter>
<filter id="filter25_f_685_33094" x="173.487" y="159.887" width="36.9896" height="31.3425" filterUnits="userSpaceOnUse" color-interpolation-filters="sRGB">
<feFlood flood-opacity="0" result="BackgroundImageFix"/>
<feBlend mode="normal" in="SourceGraphic" in2="BackgroundImageFix" result="shape"/>
<feGaussianBlur stdDeviation="1.00492" result="effect1_foregroundBlur_685_33094"/>
</filter>
<filter id="filter26_f_685_33094" x="569.052" y="393.547" width="20.4935" height="17.672" filterUnits="userSpaceOnUse" color-interpolation-filters="sRGB">
<feFlood flood-opacity="0" result="BackgroundImageFix"/>
<feBlend mode="normal" in="SourceGraphic" in2="BackgroundImageFix" result="shape"/>
<feGaussianBlur stdDeviation="1.00492" result="effect1_foregroundBlur_685_33094"/>
</filter>
<filter id="filter27_f_685_33094" x="704.228" y="426.326" width="20.4935" height="17.6719" filterUnits="userSpaceOnUse" color-interpolation-filters="sRGB">
<feFlood flood-opacity="0" result="BackgroundImageFix"/>
<feBlend mode="normal" in="SourceGraphic" in2="BackgroundImageFix" result="shape"/>
<feGaussianBlur stdDeviation="1.00492" result="effect1_foregroundBlur_685_33094"/>
</filter>
<filter id="filter28_f_685_33094" x="613.237" y="119.798" width="20.4935" height="17.672" filterUnits="userSpaceOnUse" color-interpolation-filters="sRGB">
<feFlood flood-opacity="0" result="BackgroundImageFix"/>
<feBlend mode="normal" in="SourceGraphic" in2="BackgroundImageFix" result="shape"/>
<feGaussianBlur stdDeviation="1.00492" result="effect1_foregroundBlur_685_33094"/>
</filter>
<radialGradient id="paint0_radial_685_33094" cx="0" cy="0" r="1" gradientUnits="userSpaceOnUse" gradientTransform="translate(201.015 353.348) rotate(-90) scale(6.82614 8.23699)">
<stop stop-color="white"/>
<stop offset="1" stop-opacity="0"/>
</radialGradient>
<radialGradient id="paint1_radial_685_33094" cx="0" cy="0" r="1" gradientUnits="userSpaceOnUse" gradientTransform="translate(387.476 61.7435) rotate(-90) scale(6.82614 8.23699)">
<stop stop-color="white"/>
<stop offset="1" stop-opacity="0"/>
</radialGradient>
<radialGradient id="paint2_radial_685_33094" cx="0" cy="0" r="1" gradientUnits="userSpaceOnUse" gradientTransform="translate(429.918 163.515) rotate(-90) scale(13.6614 16.485)">
<stop stop-color="white"/>
<stop offset="1" stop-opacity="0"/>
</radialGradient>
<radialGradient id="paint3_radial_685_33094" cx="0" cy="0" r="1" gradientUnits="userSpaceOnUse" gradientTransform="translate(705.09 236.747) rotate(-90) scale(13.6614 16.485)">
<stop stop-color="white"/>
<stop offset="1" stop-opacity="0"/>
</radialGradient>
<radialGradient id="paint4_radial_685_33094" cx="0" cy="0" r="1" gradientUnits="userSpaceOnUse" gradientTransform="translate(526.248 262.214) rotate(-90) scale(13.6614 16.485)">
<stop stop-color="white"/>
<stop offset="1" stop-opacity="0"/>
</radialGradient>
<radialGradient id="paint5_radial_685_33094" cx="0" cy="0" r="1" gradientUnits="userSpaceOnUse" gradientTransform="translate(191.982 175.558) rotate(-90) scale(13.6614 16.485)">
<stop stop-color="white"/>
<stop offset="1" stop-opacity="0"/>
</radialGradient>
<radialGradient id="paint6_radial_685_33094" cx="0" cy="0" r="1" gradientUnits="userSpaceOnUse" gradientTransform="translate(579.299 402.393) rotate(-90) scale(6.82614 8.23699)">
<stop stop-color="white"/>
<stop offset="1" stop-opacity="0"/>
</radialGradient>
<radialGradient id="paint7_radial_685_33094" cx="0" cy="0" r="1" gradientUnits="userSpaceOnUse" gradientTransform="translate(714.475 435.171) rotate(-90) scale(6.82614 8.23699)">
<stop stop-color="white"/>
<stop offset="1" stop-opacity="0"/>
</radialGradient>
<radialGradient id="paint8_radial_685_33094" cx="0" cy="0" r="1" gradientUnits="userSpaceOnUse" gradientTransform="translate(623.484 128.643) rotate(-90) scale(6.82614 8.23699)">
<stop stop-color="white"/>
<stop offset="1" stop-opacity="0"/>
</radialGradient>
</defs>
</svg>
