<svg width="1008" height="321" viewBox="0 0 1008 321" fill="none" xmlns="http://www.w3.org/2000/svg">
<g opacity="0.24">
<path style="mix-blend-mode:screen" opacity="0.14" d="M133.852 148.587C139.669 121.459 121.535 94.9288 93.3502 89.3306C65.1651 83.7324 37.6016 101.186 31.7853 128.314C25.969 155.442 44.1024 181.972 72.2874 187.57C100.472 193.168 128.036 175.715 133.852 148.587Z" fill="url(#paint0_radial_1177_3126)"/>
<path style="mix-blend-mode:screen" d="M751.836 79.7414C753.679 79.5566 755.33 80.8318 755.522 82.6058C755.714 84.3799 754.389 85.9692 752.546 86.154C750.703 86.3388 749.052 85.0637 748.86 83.2896C748.668 81.5155 749.993 79.9262 751.836 79.7414Z" fill="url(#paint1_radial_1177_3126)"/>
<path style="mix-blend-mode:screen" d="M332.969 52.1154C334.754 51.6349 336.597 52.6513 337.097 54.3514C337.596 56.0701 336.54 57.8442 334.773 58.3246C333.007 58.8051 331.145 57.7887 330.645 56.0886C330.146 54.3699 331.202 52.5958 332.969 52.1154Z" fill="url(#paint2_radial_1177_3126)"/>
<path style="mix-blend-mode:screen" d="M307.932 32.0275C308.354 33.7647 307.241 35.5018 305.436 35.9083C303.631 36.3149 301.826 35.2431 301.404 33.506C300.982 31.7688 302.095 30.0317 303.9 29.6252C305.705 29.2186 307.509 30.2904 307.932 32.0275Z" fill="url(#paint3_radial_1177_3126)"/>
<path style="mix-blend-mode:screen" d="M233.417 285.628C235.03 284.76 237.084 285.314 237.987 286.867C238.889 288.419 238.313 290.396 236.7 291.265C235.088 292.133 233.033 291.579 232.131 290.027C231.228 288.474 231.804 286.497 233.417 285.628Z" fill="url(#paint4_radial_1177_3126)"/>
<path style="mix-blend-mode:screen" d="M294.626 90.0343C292.783 89.9789 291.324 88.482 291.4 86.6895C291.458 84.9154 293.013 83.5109 294.876 83.5848C296.719 83.6403 298.178 85.1371 298.101 86.9297C298.044 88.7038 296.488 90.1083 294.626 90.0343Z" fill="url(#paint5_radial_1177_3126)"/>
<path style="mix-blend-mode:screen" d="M244.649 0.000703998C246.492 -0.036256 248.028 1.38671 248.066 3.17926C248.105 4.95334 246.626 6.43174 244.764 6.4687C242.921 6.50566 241.385 5.08271 241.346 3.29015C241.308 1.51608 242.786 0.037664 244.649 0.000703998Z" fill="url(#paint6_radial_1177_3126)"/>
<path style="mix-blend-mode:screen" d="M236.143 223.111C240.079 223.592 242.863 227.066 242.364 230.855C241.864 234.643 238.255 237.323 234.319 236.842C230.383 236.362 227.599 232.887 228.098 229.099C228.597 225.311 232.207 222.631 236.143 223.111Z" fill="url(#paint7_radial_1177_3126)"/>
<path style="mix-blend-mode:screen" d="M580.188 27.9435C583.912 29.2556 585.832 33.2288 584.488 36.8139C583.125 40.399 578.997 42.2655 575.272 40.9534C571.548 39.6413 569.608 35.6681 570.972 32.083C572.335 28.4979 576.463 26.6314 580.188 27.9435Z" fill="url(#paint8_radial_1177_3126)"/>
<path style="mix-blend-mode:screen" d="M110.997 51.395C114.952 51.1363 118.389 54.0192 118.658 57.8261C118.927 61.633 115.932 64.9409 111.976 65.1996C108.021 65.4583 104.584 62.5754 104.316 58.7686C104.047 54.9617 107.042 51.6538 110.997 51.395Z" fill="url(#paint9_radial_1177_3126)"/>
<path style="mix-blend-mode:screen" d="M279.669 179.571C276.405 177.39 275.599 173.066 277.884 169.943C280.149 166.801 284.642 166.025 287.887 168.224C291.151 170.405 291.957 174.729 289.672 177.852C287.407 180.994 282.914 181.752 279.669 179.571Z" fill="url(#paint10_radial_1177_3126)"/>
<path style="mix-blend-mode:screen" d="M363.862 263.86C365.436 260.348 369.679 258.741 373.327 260.274C376.975 261.79 378.646 265.874 377.052 269.385C375.458 272.896 371.234 274.504 367.586 272.97C363.938 271.436 362.268 267.371 363.862 263.86Z" fill="url(#paint11_radial_1177_3126)"/>
<path style="mix-blend-mode:screen" d="M221.416 302.446C225.371 302.778 228.29 306.142 227.944 309.949C227.599 313.755 224.104 316.564 220.149 316.232C216.194 315.899 213.275 312.536 213.621 308.729C213.967 304.922 217.461 302.113 221.416 302.446Z" fill="url(#paint12_radial_1177_3126)"/>
<path style="mix-blend-mode:screen" d="M837.967 32.7677C841.02 35.2071 841.442 39.5684 838.908 42.5252C836.374 45.4635 831.842 45.87 828.79 43.4307C825.737 40.9913 825.314 36.63 827.849 33.6917C830.383 30.7534 834.914 30.3468 837.967 32.7862V32.7677Z" fill="url(#paint13_radial_1177_3126)"/>
<path style="mix-blend-mode:screen" d="M250.293 89.7764C254.267 89.7764 257.474 92.8996 257.455 96.7249C257.455 100.55 254.21 103.636 250.235 103.618C246.261 103.618 243.055 100.495 243.074 96.6695C243.074 92.8441 246.319 89.758 250.293 89.7764Z" fill="url(#paint14_radial_1177_3126)"/>
<path style="mix-blend-mode:screen" d="M653.032 270.123C657.199 263.932 665.8 262.176 672.213 266.187C678.645 270.197 680.469 278.476 676.303 284.648C672.136 290.839 663.535 292.595 657.122 288.584C650.709 284.574 648.866 276.295 653.032 270.123Z" fill="url(#paint15_radial_1177_3126)"/>
<path style="mix-blend-mode:screen" d="M14.1142 52.9455C21.775 53.0748 27.8805 59.1547 27.7461 66.5282C27.6117 73.9018 21.295 79.7784 13.6342 79.6491C5.97339 79.5197 -0.132223 73.4398 0.00217696 66.0662C0.136577 58.6927 6.45339 52.8161 14.1142 52.9455Z" fill="url(#paint16_radial_1177_3126)"/>
<path style="mix-blend-mode:screen" d="M421.096 58.8404C428.757 59.0992 434.728 65.2899 434.46 72.6635C434.191 80.037 427.759 85.7843 420.098 85.5256C412.437 85.2668 406.466 79.076 406.735 71.7025C407.004 64.329 413.436 58.5817 421.096 58.8404Z" fill="url(#paint17_radial_1177_3126)"/>
<path style="mix-blend-mode:screen" opacity="0.14" d="M616.618 196.395C650.48 163.803 650.48 110.962 616.618 78.3707C582.757 45.7792 527.857 45.7792 493.996 78.3707C460.135 110.962 460.135 163.803 493.996 196.395C527.857 228.986 582.757 228.986 616.618 196.395Z" fill="url(#paint18_radial_1177_3126)"/>
<path style="mix-blend-mode:screen" opacity="0.14" d="M929.402 251.931C973.048 209.922 973.048 141.811 929.402 99.8012C885.755 57.7917 814.991 57.7917 771.344 99.8013C727.698 141.811 727.698 209.922 771.344 251.931C814.991 293.941 885.755 293.941 929.402 251.931Z" fill="url(#paint19_radial_1177_3126)"/>
</g>
<defs>
<radialGradient id="paint0_radial_1177_3126" cx="0" cy="0" r="1" gradientUnits="userSpaceOnUse" gradientTransform="translate(82.8334 138.39) scale(52.1088 50.1547)">
<stop offset="0.53" stop-color="#18FFFF"/>
<stop offset="0.61" stop-color="#13D3D3" stop-opacity="0.83"/>
<stop offset="0.88" stop-color="#053C3C" stop-opacity="0.24"/>
<stop offset="0.99" stop-opacity="0"/>
</radialGradient>
<radialGradient id="paint1_radial_1177_3126" cx="0" cy="0" r="1" gradientUnits="userSpaceOnUse" gradientTransform="translate(750.927 82.3305) rotate(-96.3461) scale(3.23546 3.35847)">
<stop stop-color="white"/>
<stop offset="0.06" stop-color="#17F5F5" stop-opacity="0.96"/>
<stop offset="0.1" stop-color="#12C7C7" stop-opacity="0.78"/>
<stop offset="0.14" stop-color="#0E9C9C" stop-opacity="0.61"/>
<stop offset="0.19" stop-color="#0B7777" stop-opacity="0.47"/>
<stop offset="0.24" stop-color="#085656" stop-opacity="0.34"/>
<stop offset="0.3" stop-color="#053B3B" stop-opacity="0.23"/>
<stop offset="0.36" stop-color="#032525" stop-opacity="0.15"/>
<stop offset="0.43" stop-color="#011414" stop-opacity="0.08"/>
<stop offset="0.52" stop-color="#000808" stop-opacity="0.03"/>
<stop offset="0.65" stop-color="#000101" stop-opacity="0"/>
<stop offset="1" stop-opacity="0"/>
</radialGradient>
<radialGradient id="paint2_radial_1177_3126" cx="0" cy="0" r="1" gradientUnits="userSpaceOnUse" gradientTransform="translate(335.156 56.3394) rotate(-106.125) scale(3.24322 3.35045)">
<stop stop-color="white"/>
<stop offset="0.06" stop-color="#17F5F5" stop-opacity="0.96"/>
<stop offset="0.1" stop-color="#12C7C7" stop-opacity="0.78"/>
<stop offset="0.14" stop-color="#0E9C9C" stop-opacity="0.61"/>
<stop offset="0.19" stop-color="#0B7777" stop-opacity="0.47"/>
<stop offset="0.24" stop-color="#085656" stop-opacity="0.34"/>
<stop offset="0.3" stop-color="#053B3B" stop-opacity="0.23"/>
<stop offset="0.36" stop-color="#032525" stop-opacity="0.15"/>
<stop offset="0.43" stop-color="#011414" stop-opacity="0.08"/>
<stop offset="0.52" stop-color="#000808" stop-opacity="0.03"/>
<stop offset="0.65" stop-color="#000101" stop-opacity="0"/>
<stop offset="1" stop-opacity="0"/>
</radialGradient>
<radialGradient id="paint3_radial_1177_3126" cx="0" cy="0" r="1" gradientUnits="userSpaceOnUse" gradientTransform="translate(304.412 34.2811) rotate(-12.8471) scale(3.3534 3.24034)">
<stop stop-color="white"/>
<stop offset="0.06" stop-color="#17F5F5" stop-opacity="0.96"/>
<stop offset="0.1" stop-color="#12C7C7" stop-opacity="0.78"/>
<stop offset="0.14" stop-color="#0E9C9C" stop-opacity="0.61"/>
<stop offset="0.19" stop-color="#0B7777" stop-opacity="0.47"/>
<stop offset="0.24" stop-color="#085656" stop-opacity="0.34"/>
<stop offset="0.3" stop-color="#053B3B" stop-opacity="0.23"/>
<stop offset="0.36" stop-color="#032525" stop-opacity="0.15"/>
<stop offset="0.43" stop-color="#011414" stop-opacity="0.08"/>
<stop offset="0.52" stop-color="#000808" stop-opacity="0.03"/>
<stop offset="0.65" stop-color="#000101" stop-opacity="0"/>
<stop offset="1" stop-opacity="0"/>
</radialGradient>
<radialGradient id="paint4_radial_1177_3126" cx="0" cy="0" r="1" gradientUnits="userSpaceOnUse" gradientTransform="translate(234.089 288.192) rotate(-120.142) scale(3.26444 3.32868)">
<stop stop-color="white"/>
<stop offset="0.06" stop-color="#17F5F5" stop-opacity="0.96"/>
<stop offset="0.1" stop-color="#12C7C7" stop-opacity="0.78"/>
<stop offset="0.14" stop-color="#0E9C9C" stop-opacity="0.61"/>
<stop offset="0.19" stop-color="#0B7777" stop-opacity="0.47"/>
<stop offset="0.24" stop-color="#085656" stop-opacity="0.34"/>
<stop offset="0.3" stop-color="#053B3B" stop-opacity="0.23"/>
<stop offset="0.36" stop-color="#032525" stop-opacity="0.15"/>
<stop offset="0.43" stop-color="#011414" stop-opacity="0.08"/>
<stop offset="0.52" stop-color="#000808" stop-opacity="0.03"/>
<stop offset="0.65" stop-color="#000101" stop-opacity="0"/>
<stop offset="1" stop-opacity="0"/>
</radialGradient>
<radialGradient id="paint5_radial_1177_3126" cx="0" cy="0" r="1" gradientUnits="userSpaceOnUse" gradientTransform="translate(295.097 87.2048) rotate(92.0675) scale(3.23415 3.35984)">
<stop stop-color="white"/>
<stop offset="0.06" stop-color="#17F5F5" stop-opacity="0.96"/>
<stop offset="0.1" stop-color="#12C7C7" stop-opacity="0.78"/>
<stop offset="0.14" stop-color="#0E9C9C" stop-opacity="0.61"/>
<stop offset="0.19" stop-color="#0B7777" stop-opacity="0.47"/>
<stop offset="0.24" stop-color="#085656" stop-opacity="0.34"/>
<stop offset="0.3" stop-color="#053B3B" stop-opacity="0.23"/>
<stop offset="0.36" stop-color="#032525" stop-opacity="0.15"/>
<stop offset="0.43" stop-color="#011414" stop-opacity="0.08"/>
<stop offset="0.52" stop-color="#000808" stop-opacity="0.03"/>
<stop offset="0.65" stop-color="#000101" stop-opacity="0"/>
<stop offset="1" stop-opacity="0"/>
</radialGradient>
<radialGradient id="paint6_radial_1177_3126" cx="0" cy="0" r="1" gradientUnits="userSpaceOnUse" gradientTransform="translate(245.801 3.01319) rotate(-91.0078) scale(3.23404 3.35996)">
<stop stop-color="white"/>
<stop offset="0.06" stop-color="#17F5F5" stop-opacity="0.96"/>
<stop offset="0.1" stop-color="#12C7C7" stop-opacity="0.78"/>
<stop offset="0.14" stop-color="#0E9C9C" stop-opacity="0.61"/>
<stop offset="0.19" stop-color="#0B7777" stop-opacity="0.47"/>
<stop offset="0.24" stop-color="#085656" stop-opacity="0.34"/>
<stop offset="0.3" stop-color="#053B3B" stop-opacity="0.23"/>
<stop offset="0.36" stop-color="#032525" stop-opacity="0.15"/>
<stop offset="0.43" stop-color="#011414" stop-opacity="0.08"/>
<stop offset="0.52" stop-color="#000808" stop-opacity="0.03"/>
<stop offset="0.65" stop-color="#000101" stop-opacity="0"/>
<stop offset="1" stop-opacity="0"/>
</radialGradient>
<radialGradient id="paint7_radial_1177_3126" cx="0" cy="0" r="1" gradientUnits="userSpaceOnUse" gradientTransform="translate(235.058 229.013) rotate(-82.4085) scale(6.93446 7.19536)">
<stop stop-color="white"/>
<stop offset="0.06" stop-color="#17F5F5" stop-opacity="0.96"/>
<stop offset="0.1" stop-color="#12C7C7" stop-opacity="0.78"/>
<stop offset="0.14" stop-color="#0E9C9C" stop-opacity="0.61"/>
<stop offset="0.19" stop-color="#0B7777" stop-opacity="0.47"/>
<stop offset="0.24" stop-color="#085656" stop-opacity="0.34"/>
<stop offset="0.3" stop-color="#053B3B" stop-opacity="0.23"/>
<stop offset="0.36" stop-color="#032525" stop-opacity="0.15"/>
<stop offset="0.43" stop-color="#011414" stop-opacity="0.08"/>
<stop offset="0.52" stop-color="#000808" stop-opacity="0.03"/>
<stop offset="0.65" stop-color="#000101" stop-opacity="0"/>
<stop offset="1" stop-opacity="0"/>
</radialGradient>
<radialGradient id="paint8_radial_1177_3126" cx="0" cy="0" r="1" gradientUnits="userSpaceOnUse" gradientTransform="translate(577.322 34.4863) rotate(-69.2548) scale(6.96223 7.16672)">
<stop stop-color="white"/>
<stop offset="0.06" stop-color="#17F5F5" stop-opacity="0.96"/>
<stop offset="0.1" stop-color="#12C7C7" stop-opacity="0.78"/>
<stop offset="0.14" stop-color="#0E9C9C" stop-opacity="0.61"/>
<stop offset="0.19" stop-color="#0B7777" stop-opacity="0.47"/>
<stop offset="0.24" stop-color="#085656" stop-opacity="0.34"/>
<stop offset="0.3" stop-color="#053B3B" stop-opacity="0.23"/>
<stop offset="0.36" stop-color="#032525" stop-opacity="0.15"/>
<stop offset="0.43" stop-color="#011414" stop-opacity="0.08"/>
<stop offset="0.52" stop-color="#000808" stop-opacity="0.03"/>
<stop offset="0.65" stop-color="#000101" stop-opacity="0"/>
<stop offset="1" stop-opacity="0"/>
</radialGradient>
<radialGradient id="paint9_radial_1177_3126" cx="0" cy="0" r="1" gradientUnits="userSpaceOnUse" gradientTransform="translate(111.12 59.0352) rotate(-94.093) scale(6.9313 7.19864)">
<stop stop-color="white"/>
<stop offset="0.06" stop-color="#17F5F5" stop-opacity="0.96"/>
<stop offset="0.1" stop-color="#12C7C7" stop-opacity="0.78"/>
<stop offset="0.14" stop-color="#0E9C9C" stop-opacity="0.61"/>
<stop offset="0.19" stop-color="#0B7777" stop-opacity="0.47"/>
<stop offset="0.24" stop-color="#085656" stop-opacity="0.34"/>
<stop offset="0.3" stop-color="#053B3B" stop-opacity="0.23"/>
<stop offset="0.36" stop-color="#032525" stop-opacity="0.15"/>
<stop offset="0.43" stop-color="#011414" stop-opacity="0.08"/>
<stop offset="0.52" stop-color="#000808" stop-opacity="0.03"/>
<stop offset="0.65" stop-color="#000101" stop-opacity="0"/>
<stop offset="1" stop-opacity="0"/>
</radialGradient>
<radialGradient id="paint10_radial_1177_3126" cx="0" cy="0" r="1" gradientUnits="userSpaceOnUse" gradientTransform="translate(284.153 172.725) rotate(125.894) scale(7.01934 7.10833)">
<stop stop-color="white"/>
<stop offset="0.06" stop-color="#17F5F5" stop-opacity="0.96"/>
<stop offset="0.1" stop-color="#12C7C7" stop-opacity="0.78"/>
<stop offset="0.14" stop-color="#0E9C9C" stop-opacity="0.61"/>
<stop offset="0.19" stop-color="#0B7777" stop-opacity="0.47"/>
<stop offset="0.24" stop-color="#085656" stop-opacity="0.34"/>
<stop offset="0.3" stop-color="#053B3B" stop-opacity="0.23"/>
<stop offset="0.36" stop-color="#032525" stop-opacity="0.15"/>
<stop offset="0.43" stop-color="#011414" stop-opacity="0.08"/>
<stop offset="0.52" stop-color="#000808" stop-opacity="0.03"/>
<stop offset="0.65" stop-color="#000101" stop-opacity="0"/>
<stop offset="1" stop-opacity="0"/>
</radialGradient>
<radialGradient id="paint11_radial_1177_3126" cx="0" cy="0" r="1" gradientUnits="userSpaceOnUse" gradientTransform="translate(370.031 267.037) rotate(-157.31) scale(7.15781 6.97084)">
<stop stop-color="white"/>
<stop offset="0.06" stop-color="#17F5F5" stop-opacity="0.96"/>
<stop offset="0.1" stop-color="#12C7C7" stop-opacity="0.78"/>
<stop offset="0.14" stop-color="#0E9C9C" stop-opacity="0.61"/>
<stop offset="0.19" stop-color="#0B7777" stop-opacity="0.47"/>
<stop offset="0.24" stop-color="#085656" stop-opacity="0.34"/>
<stop offset="0.3" stop-color="#053B3B" stop-opacity="0.23"/>
<stop offset="0.36" stop-color="#032525" stop-opacity="0.15"/>
<stop offset="0.43" stop-color="#011414" stop-opacity="0.08"/>
<stop offset="0.52" stop-color="#000808" stop-opacity="0.03"/>
<stop offset="0.65" stop-color="#000101" stop-opacity="0"/>
<stop offset="1" stop-opacity="0"/>
</radialGradient>
<radialGradient id="paint12_radial_1177_3126" cx="0" cy="0" r="1" gradientUnits="userSpaceOnUse" gradientTransform="translate(220.124 309.251) rotate(-84.7543) scale(6.93214 7.19781)">
<stop stop-color="white"/>
<stop offset="0.06" stop-color="#17F5F5" stop-opacity="0.96"/>
<stop offset="0.1" stop-color="#12C7C7" stop-opacity="0.78"/>
<stop offset="0.14" stop-color="#0E9C9C" stop-opacity="0.61"/>
<stop offset="0.19" stop-color="#0B7777" stop-opacity="0.47"/>
<stop offset="0.24" stop-color="#085656" stop-opacity="0.34"/>
<stop offset="0.3" stop-color="#053B3B" stop-opacity="0.23"/>
<stop offset="0.36" stop-color="#032525" stop-opacity="0.15"/>
<stop offset="0.43" stop-color="#011414" stop-opacity="0.08"/>
<stop offset="0.52" stop-color="#000808" stop-opacity="0.03"/>
<stop offset="0.65" stop-color="#000101" stop-opacity="0"/>
<stop offset="1" stop-opacity="0"/>
</radialGradient>
<radialGradient id="paint13_radial_1177_3126" cx="0" cy="0" r="1" gradientUnits="userSpaceOnUse" gradientTransform="translate(831.949 36.4355) rotate(-49.2102) scale(7.04145 7.08601)">
<stop stop-color="white"/>
<stop offset="0.06" stop-color="#17F5F5" stop-opacity="0.96"/>
<stop offset="0.1" stop-color="#12C7C7" stop-opacity="0.78"/>
<stop offset="0.14" stop-color="#0E9C9C" stop-opacity="0.61"/>
<stop offset="0.19" stop-color="#0B7777" stop-opacity="0.47"/>
<stop offset="0.24" stop-color="#085656" stop-opacity="0.34"/>
<stop offset="0.3" stop-color="#053B3B" stop-opacity="0.23"/>
<stop offset="0.36" stop-color="#032525" stop-opacity="0.15"/>
<stop offset="0.43" stop-color="#011414" stop-opacity="0.08"/>
<stop offset="0.52" stop-color="#000808" stop-opacity="0.03"/>
<stop offset="0.65" stop-color="#000101" stop-opacity="0"/>
<stop offset="1" stop-opacity="0"/>
</radialGradient>
<radialGradient id="paint14_radial_1177_3126" cx="0" cy="0" r="1" gradientUnits="userSpaceOnUse" gradientTransform="translate(249.824 95.9881) rotate(-89.7299) scale(6.93001 7.19998)">
<stop stop-color="white"/>
<stop offset="0.06" stop-color="#17F5F5" stop-opacity="0.96"/>
<stop offset="0.1" stop-color="#12C7C7" stop-opacity="0.78"/>
<stop offset="0.14" stop-color="#0E9C9C" stop-opacity="0.61"/>
<stop offset="0.19" stop-color="#0B7777" stop-opacity="0.47"/>
<stop offset="0.24" stop-color="#085656" stop-opacity="0.34"/>
<stop offset="0.3" stop-color="#053B3B" stop-opacity="0.23"/>
<stop offset="0.36" stop-color="#032525" stop-opacity="0.15"/>
<stop offset="0.43" stop-color="#011414" stop-opacity="0.08"/>
<stop offset="0.52" stop-color="#000808" stop-opacity="0.03"/>
<stop offset="0.65" stop-color="#000101" stop-opacity="0"/>
<stop offset="1" stop-opacity="0"/>
</radialGradient>
<radialGradient id="paint15_radial_1177_3126" cx="0" cy="0" r="1" gradientUnits="userSpaceOnUse" gradientTransform="translate(664.867 276.019) rotate(-148.012) scale(13.7105 13.4905)">
<stop stop-color="white"/>
<stop offset="0.06" stop-color="#17F5F5" stop-opacity="0.96"/>
<stop offset="0.1" stop-color="#12C7C7" stop-opacity="0.78"/>
<stop offset="0.14" stop-color="#0E9C9C" stop-opacity="0.61"/>
<stop offset="0.19" stop-color="#0B7777" stop-opacity="0.47"/>
<stop offset="0.24" stop-color="#085656" stop-opacity="0.34"/>
<stop offset="0.3" stop-color="#053B3B" stop-opacity="0.23"/>
<stop offset="0.36" stop-color="#032525" stop-opacity="0.15"/>
<stop offset="0.43" stop-color="#011414" stop-opacity="0.08"/>
<stop offset="0.52" stop-color="#000808" stop-opacity="0.03"/>
<stop offset="0.65" stop-color="#000101" stop-opacity="0"/>
<stop offset="1" stop-opacity="0"/>
</radialGradient>
<radialGradient id="paint16_radial_1177_3126" cx="0" cy="0" r="1" gradientUnits="userSpaceOnUse" gradientTransform="translate(15.6549 66.6833) rotate(-88.9922) scale(13.3427 13.8622)">
<stop stop-color="white"/>
<stop offset="0.06" stop-color="#17F5F5" stop-opacity="0.96"/>
<stop offset="0.1" stop-color="#12C7C7" stop-opacity="0.78"/>
<stop offset="0.14" stop-color="#0E9C9C" stop-opacity="0.61"/>
<stop offset="0.19" stop-color="#0B7777" stop-opacity="0.47"/>
<stop offset="0.24" stop-color="#085656" stop-opacity="0.34"/>
<stop offset="0.3" stop-color="#053B3B" stop-opacity="0.23"/>
<stop offset="0.36" stop-color="#032525" stop-opacity="0.15"/>
<stop offset="0.43" stop-color="#011414" stop-opacity="0.08"/>
<stop offset="0.52" stop-color="#000808" stop-opacity="0.03"/>
<stop offset="0.65" stop-color="#000101" stop-opacity="0"/>
<stop offset="1" stop-opacity="0"/>
</radialGradient>
<radialGradient id="paint17_radial_1177_3126" cx="0" cy="0" r="1" gradientUnits="userSpaceOnUse" gradientTransform="translate(420.566 70.8157) rotate(-87.8598) scale(13.3432 13.8617)">
<stop stop-color="white"/>
<stop offset="0.06" stop-color="#17F5F5" stop-opacity="0.96"/>
<stop offset="0.1" stop-color="#12C7C7" stop-opacity="0.78"/>
<stop offset="0.14" stop-color="#0E9C9C" stop-opacity="0.61"/>
<stop offset="0.19" stop-color="#0B7777" stop-opacity="0.47"/>
<stop offset="0.24" stop-color="#085656" stop-opacity="0.34"/>
<stop offset="0.3" stop-color="#053B3B" stop-opacity="0.23"/>
<stop offset="0.36" stop-color="#032525" stop-opacity="0.15"/>
<stop offset="0.43" stop-color="#011414" stop-opacity="0.08"/>
<stop offset="0.52" stop-color="#000808" stop-opacity="0.03"/>
<stop offset="0.65" stop-color="#000101" stop-opacity="0"/>
<stop offset="1" stop-opacity="0"/>
</radialGradient>
<radialGradient id="paint18_radial_1177_3126" cx="0" cy="0" r="1" gradientUnits="userSpaceOnUse" gradientTransform="translate(555.308 137.385) scale(86.7072 83.4557)">
<stop offset="0.53" stop-color="#18FFFF"/>
<stop offset="0.57" stop-color="#14D6D6" stop-opacity="0.84"/>
<stop offset="0.63" stop-color="#0E9696" stop-opacity="0.59"/>
<stop offset="0.7" stop-color="#096060" stop-opacity="0.38"/>
<stop offset="0.75" stop-color="#053636" stop-opacity="0.21"/>
<stop offset="0.8" stop-color="#021818" stop-opacity="0.1"/>
<stop offset="0.85" stop-color="#000606" stop-opacity="0.03"/>
<stop offset="0.88" stop-opacity="0"/>
</radialGradient>
<radialGradient id="paint19_radial_1177_3126" cx="0" cy="0" r="1" gradientUnits="userSpaceOnUse" gradientTransform="translate(850.383 175.861) scale(111.763 107.572)">
<stop offset="0.53" stop-color="#18FFFF"/>
<stop offset="0.57" stop-color="#14D6D6" stop-opacity="0.84"/>
<stop offset="0.63" stop-color="#0E9696" stop-opacity="0.59"/>
<stop offset="0.7" stop-color="#096060" stop-opacity="0.38"/>
<stop offset="0.75" stop-color="#053636" stop-opacity="0.21"/>
<stop offset="0.8" stop-color="#021818" stop-opacity="0.1"/>
<stop offset="0.85" stop-color="#000606" stop-opacity="0.03"/>
<stop offset="0.88" stop-opacity="0"/>
</radialGradient>
</defs>
</svg>
