<svg width="328" height="1009" viewBox="0 0 328 1009" fill="none" xmlns="http://www.w3.org/2000/svg">
<g opacity="0.24">
<path style="mix-blend-mode:screen" opacity="0.14" d="M148.587 133.848C121.459 139.665 94.9288 121.531 89.3306 93.3463C83.7324 65.1612 101.186 37.5977 128.314 31.7814C155.442 25.9651 181.972 44.0985 187.57 72.2835C193.168 100.469 175.715 128.032 148.587 133.848Z" fill="url(#paint0_radial_948_16226)"/>
<path style="mix-blend-mode:screen" d="M79.7405 751.838C79.5557 753.681 80.8308 755.333 82.6049 755.525C84.3789 755.717 85.9682 754.392 86.153 752.549C86.3378 750.705 85.0627 749.054 83.2886 748.862C81.5145 748.67 79.9253 749.995 79.7405 751.838Z" fill="url(#paint1_radial_948_16226)"/>
<path style="mix-blend-mode:screen" d="M52.1154 332.971C51.6349 334.756 52.6513 336.599 54.3514 337.099C56.0701 337.598 57.8442 336.542 58.3246 334.775C58.8051 333.009 57.7887 331.147 56.0886 330.647C54.3699 330.148 52.5958 331.204 52.1154 332.971Z" fill="url(#paint2_radial_948_16226)"/>
<path style="mix-blend-mode:screen" d="M32.0275 307.93C33.7647 308.352 35.5018 307.239 35.9083 305.434C36.3149 303.629 35.2431 301.824 33.506 301.402C31.7688 300.98 30.0317 302.093 29.6252 303.898C29.2186 305.703 30.2904 307.507 32.0275 307.93Z" fill="url(#paint3_radial_948_16226)"/>
<path style="mix-blend-mode:screen" d="M285.629 233.416C284.761 235.029 285.315 237.083 286.868 237.986C288.42 238.888 290.397 238.312 291.266 236.699C292.134 235.087 291.58 233.032 290.028 232.13C288.475 231.227 286.498 231.803 285.629 233.416Z" fill="url(#paint4_radial_948_16226)"/>
<path style="mix-blend-mode:screen" d="M90.0343 294.627C89.9789 292.784 88.482 291.325 86.6895 291.401C84.9154 291.459 83.5109 293.014 83.5848 294.877C83.6403 296.72 85.1371 298.179 86.9297 298.102C88.7038 298.045 90.1083 296.489 90.0343 294.627Z" fill="url(#paint5_radial_948_16226)"/>
<path style="mix-blend-mode:screen" d="M0.000703998 244.647C-0.036256 246.49 1.38671 248.026 3.17926 248.064C4.95334 248.103 6.43174 246.625 6.4687 244.762C6.50566 242.919 5.08271 241.383 3.29015 241.344C1.51608 241.306 0.037664 242.785 0.000703998 244.647Z" fill="url(#paint6_radial_948_16226)"/>
<path style="mix-blend-mode:screen" d="M223.11 236.142C223.591 240.078 227.065 242.862 230.854 242.363C234.642 241.863 237.322 238.254 236.841 234.318C236.361 230.382 232.886 227.598 229.098 228.097C225.31 228.596 222.63 232.206 223.11 236.142Z" fill="url(#paint7_radial_948_16226)"/>
<path style="mix-blend-mode:screen" d="M27.9435 580.184C29.2556 583.909 33.2288 585.829 36.8139 584.485C40.399 583.121 42.2655 578.993 40.9534 575.268C39.6413 571.544 35.6681 569.604 32.083 570.968C28.4979 572.331 26.6314 576.459 27.9435 580.184Z" fill="url(#paint8_radial_948_16226)"/>
<path style="mix-blend-mode:screen" d="M51.395 110.995C51.1363 114.95 54.0192 118.387 57.8261 118.656C61.633 118.925 64.9409 115.93 65.1996 111.974C65.4583 108.019 62.5754 104.582 58.7686 104.314C54.9617 104.045 51.6538 107.04 51.395 110.995Z" fill="url(#paint9_radial_948_16226)"/>
<path style="mix-blend-mode:screen" d="M179.571 279.672C177.39 276.408 173.066 275.602 169.943 277.886C166.801 280.152 166.025 284.645 168.224 287.89C170.405 291.154 174.729 291.96 177.852 289.675C180.994 287.41 181.752 282.917 179.571 279.672Z" fill="url(#paint10_radial_948_16226)"/>
<path style="mix-blend-mode:screen" d="M263.86 363.862C260.348 365.436 258.741 369.679 260.274 373.327C261.79 376.975 265.874 378.646 269.385 377.052C272.896 375.458 274.504 371.234 272.97 367.586C271.436 363.938 267.371 362.268 263.86 363.862Z" fill="url(#paint11_radial_948_16226)"/>
<path style="mix-blend-mode:screen" d="M302.445 221.417C302.777 225.372 306.141 228.29 309.948 227.945C313.754 227.599 316.563 224.105 316.231 220.15C315.898 216.194 312.535 213.276 308.728 213.622C304.921 213.967 302.112 217.462 302.445 221.417Z" fill="url(#paint12_radial_948_16226)"/>
<path style="mix-blend-mode:screen" d="M32.7667 837.97C35.2061 841.022 39.5674 841.445 42.5242 838.91C45.4625 836.376 45.8691 831.845 43.4297 828.792C40.9903 825.739 36.6291 825.317 33.6907 827.851C30.7524 830.386 30.3459 834.917 32.7852 837.97H32.7667Z" fill="url(#paint13_radial_948_16226)"/>
<path style="mix-blend-mode:screen" d="M89.7774 250.29C89.7774 254.264 92.9005 257.47 96.7259 257.451C100.551 257.451 103.637 254.206 103.619 250.232C103.619 246.258 100.496 243.051 96.6705 243.07C92.8451 243.07 89.7589 246.315 89.7774 250.29Z" fill="url(#paint14_radial_948_16226)"/>
<path style="mix-blend-mode:screen" d="M270.123 653.035C263.932 657.202 262.176 665.803 266.187 672.216C270.197 678.648 278.476 680.472 284.648 676.306C290.839 672.139 292.595 663.538 288.584 657.125C284.574 650.712 276.295 648.869 270.123 653.035Z" fill="url(#paint15_radial_948_16226)"/>
<path style="mix-blend-mode:screen" d="M52.9455 14.1142C53.0748 21.775 59.1547 27.8805 66.5282 27.7461C73.9018 27.6117 79.7784 21.295 79.6491 13.6342C79.5197 5.97339 73.4398 -0.132223 66.0662 0.00217696C58.6927 0.136577 52.8161 6.45339 52.9455 14.1142Z" fill="url(#paint16_radial_948_16226)"/>
<path style="mix-blend-mode:screen" d="M58.8404 421.097C59.0992 428.758 65.2899 434.729 72.6635 434.46C80.037 434.191 85.7843 427.759 85.5256 420.099C85.2668 412.438 79.076 406.466 71.7025 406.735C64.329 407.004 58.5817 413.436 58.8404 421.097Z" fill="url(#paint17_radial_948_16226)"/>
<path style="mix-blend-mode:screen" opacity="0.14" d="M196.395 616.621C163.803 650.483 110.962 650.483 78.3707 616.621C45.7792 582.76 45.7792 527.86 78.3707 493.999C110.962 460.138 163.803 460.137 196.395 493.999C228.986 527.86 228.986 582.76 196.395 616.621Z" fill="url(#paint18_radial_948_16226)"/>
<path style="mix-blend-mode:screen" opacity="0.14" d="M251.932 929.398C209.923 973.044 141.812 973.044 99.8022 929.398C57.7927 885.752 57.7927 814.987 99.8022 771.341C141.812 727.695 209.923 727.695 251.932 771.341C293.942 814.987 293.942 885.752 251.932 929.398Z" fill="url(#paint19_radial_948_16226)"/>
</g>
<defs>
<radialGradient id="paint0_radial_948_16226" cx="0" cy="0" r="1" gradientUnits="userSpaceOnUse" gradientTransform="translate(138.39 82.8295) rotate(90) scale(52.1088 50.1547)">
<stop offset="0.53" stop-color="#18FFFF"/>
<stop offset="0.61" stop-color="#13D3D3" stop-opacity="0.83"/>
<stop offset="0.88" stop-color="#053C3C" stop-opacity="0.24"/>
<stop offset="0.99" stop-opacity="0"/>
</radialGradient>
<radialGradient id="paint1_radial_948_16226" cx="0" cy="0" r="1" gradientUnits="userSpaceOnUse" gradientTransform="translate(82.3296 750.929) rotate(-173.654) scale(3.23546 3.35847)">
<stop stop-color="white"/>
<stop offset="0.06" stop-color="#17F5F5" stop-opacity="0.96"/>
<stop offset="0.1" stop-color="#12C7C7" stop-opacity="0.78"/>
<stop offset="0.14" stop-color="#0E9C9C" stop-opacity="0.61"/>
<stop offset="0.19" stop-color="#0B7777" stop-opacity="0.47"/>
<stop offset="0.24" stop-color="#085656" stop-opacity="0.34"/>
<stop offset="0.3" stop-color="#053B3B" stop-opacity="0.23"/>
<stop offset="0.36" stop-color="#032525" stop-opacity="0.15"/>
<stop offset="0.43" stop-color="#011414" stop-opacity="0.08"/>
<stop offset="0.52" stop-color="#000808" stop-opacity="0.03"/>
<stop offset="0.65" stop-color="#000101" stop-opacity="0"/>
<stop offset="1" stop-opacity="0"/>
</radialGradient>
<radialGradient id="paint2_radial_948_16226" cx="0" cy="0" r="1" gradientUnits="userSpaceOnUse" gradientTransform="translate(56.3394 335.158) rotate(-163.875) scale(3.24322 3.35045)">
<stop stop-color="white"/>
<stop offset="0.06" stop-color="#17F5F5" stop-opacity="0.96"/>
<stop offset="0.1" stop-color="#12C7C7" stop-opacity="0.78"/>
<stop offset="0.14" stop-color="#0E9C9C" stop-opacity="0.61"/>
<stop offset="0.19" stop-color="#0B7777" stop-opacity="0.47"/>
<stop offset="0.24" stop-color="#085656" stop-opacity="0.34"/>
<stop offset="0.3" stop-color="#053B3B" stop-opacity="0.23"/>
<stop offset="0.36" stop-color="#032525" stop-opacity="0.15"/>
<stop offset="0.43" stop-color="#011414" stop-opacity="0.08"/>
<stop offset="0.52" stop-color="#000808" stop-opacity="0.03"/>
<stop offset="0.65" stop-color="#000101" stop-opacity="0"/>
<stop offset="1" stop-opacity="0"/>
</radialGradient>
<radialGradient id="paint3_radial_948_16226" cx="0" cy="0" r="1" gradientUnits="userSpaceOnUse" gradientTransform="translate(34.2811 304.41) rotate(102.847) scale(3.3534 3.24034)">
<stop stop-color="white"/>
<stop offset="0.06" stop-color="#17F5F5" stop-opacity="0.96"/>
<stop offset="0.1" stop-color="#12C7C7" stop-opacity="0.78"/>
<stop offset="0.14" stop-color="#0E9C9C" stop-opacity="0.61"/>
<stop offset="0.19" stop-color="#0B7777" stop-opacity="0.47"/>
<stop offset="0.24" stop-color="#085656" stop-opacity="0.34"/>
<stop offset="0.3" stop-color="#053B3B" stop-opacity="0.23"/>
<stop offset="0.36" stop-color="#032525" stop-opacity="0.15"/>
<stop offset="0.43" stop-color="#011414" stop-opacity="0.08"/>
<stop offset="0.52" stop-color="#000808" stop-opacity="0.03"/>
<stop offset="0.65" stop-color="#000101" stop-opacity="0"/>
<stop offset="1" stop-opacity="0"/>
</radialGradient>
<radialGradient id="paint4_radial_948_16226" cx="0" cy="0" r="1" gradientUnits="userSpaceOnUse" gradientTransform="translate(288.193 234.088) rotate(-149.858) scale(3.26444 3.32868)">
<stop stop-color="white"/>
<stop offset="0.06" stop-color="#17F5F5" stop-opacity="0.96"/>
<stop offset="0.1" stop-color="#12C7C7" stop-opacity="0.78"/>
<stop offset="0.14" stop-color="#0E9C9C" stop-opacity="0.61"/>
<stop offset="0.19" stop-color="#0B7777" stop-opacity="0.47"/>
<stop offset="0.24" stop-color="#085656" stop-opacity="0.34"/>
<stop offset="0.3" stop-color="#053B3B" stop-opacity="0.23"/>
<stop offset="0.36" stop-color="#032525" stop-opacity="0.15"/>
<stop offset="0.43" stop-color="#011414" stop-opacity="0.08"/>
<stop offset="0.52" stop-color="#000808" stop-opacity="0.03"/>
<stop offset="0.65" stop-color="#000101" stop-opacity="0"/>
<stop offset="1" stop-opacity="0"/>
</radialGradient>
<radialGradient id="paint5_radial_948_16226" cx="0" cy="0" r="1" gradientUnits="userSpaceOnUse" gradientTransform="translate(87.2048 295.098) rotate(-2.06747) scale(3.23415 3.35984)">
<stop stop-color="white"/>
<stop offset="0.06" stop-color="#17F5F5" stop-opacity="0.96"/>
<stop offset="0.1" stop-color="#12C7C7" stop-opacity="0.78"/>
<stop offset="0.14" stop-color="#0E9C9C" stop-opacity="0.61"/>
<stop offset="0.19" stop-color="#0B7777" stop-opacity="0.47"/>
<stop offset="0.24" stop-color="#085656" stop-opacity="0.34"/>
<stop offset="0.3" stop-color="#053B3B" stop-opacity="0.23"/>
<stop offset="0.36" stop-color="#032525" stop-opacity="0.15"/>
<stop offset="0.43" stop-color="#011414" stop-opacity="0.08"/>
<stop offset="0.52" stop-color="#000808" stop-opacity="0.03"/>
<stop offset="0.65" stop-color="#000101" stop-opacity="0"/>
<stop offset="1" stop-opacity="0"/>
</radialGradient>
<radialGradient id="paint6_radial_948_16226" cx="0" cy="0" r="1" gradientUnits="userSpaceOnUse" gradientTransform="translate(3.01319 245.799) rotate(-178.992) scale(3.23404 3.35996)">
<stop stop-color="white"/>
<stop offset="0.06" stop-color="#17F5F5" stop-opacity="0.96"/>
<stop offset="0.1" stop-color="#12C7C7" stop-opacity="0.78"/>
<stop offset="0.14" stop-color="#0E9C9C" stop-opacity="0.61"/>
<stop offset="0.19" stop-color="#0B7777" stop-opacity="0.47"/>
<stop offset="0.24" stop-color="#085656" stop-opacity="0.34"/>
<stop offset="0.3" stop-color="#053B3B" stop-opacity="0.23"/>
<stop offset="0.36" stop-color="#032525" stop-opacity="0.15"/>
<stop offset="0.43" stop-color="#011414" stop-opacity="0.08"/>
<stop offset="0.52" stop-color="#000808" stop-opacity="0.03"/>
<stop offset="0.65" stop-color="#000101" stop-opacity="0"/>
<stop offset="1" stop-opacity="0"/>
</radialGradient>
<radialGradient id="paint7_radial_948_16226" cx="0" cy="0" r="1" gradientUnits="userSpaceOnUse" gradientTransform="translate(229.012 235.057) rotate(172.408) scale(6.93446 7.19536)">
<stop stop-color="white"/>
<stop offset="0.06" stop-color="#17F5F5" stop-opacity="0.96"/>
<stop offset="0.1" stop-color="#12C7C7" stop-opacity="0.78"/>
<stop offset="0.14" stop-color="#0E9C9C" stop-opacity="0.61"/>
<stop offset="0.19" stop-color="#0B7777" stop-opacity="0.47"/>
<stop offset="0.24" stop-color="#085656" stop-opacity="0.34"/>
<stop offset="0.3" stop-color="#053B3B" stop-opacity="0.23"/>
<stop offset="0.36" stop-color="#032525" stop-opacity="0.15"/>
<stop offset="0.43" stop-color="#011414" stop-opacity="0.08"/>
<stop offset="0.52" stop-color="#000808" stop-opacity="0.03"/>
<stop offset="0.65" stop-color="#000101" stop-opacity="0"/>
<stop offset="1" stop-opacity="0"/>
</radialGradient>
<radialGradient id="paint8_radial_948_16226" cx="0" cy="0" r="1" gradientUnits="userSpaceOnUse" gradientTransform="translate(34.4863 577.318) rotate(159.255) scale(6.96223 7.16672)">
<stop stop-color="white"/>
<stop offset="0.06" stop-color="#17F5F5" stop-opacity="0.96"/>
<stop offset="0.1" stop-color="#12C7C7" stop-opacity="0.78"/>
<stop offset="0.14" stop-color="#0E9C9C" stop-opacity="0.61"/>
<stop offset="0.19" stop-color="#0B7777" stop-opacity="0.47"/>
<stop offset="0.24" stop-color="#085656" stop-opacity="0.34"/>
<stop offset="0.3" stop-color="#053B3B" stop-opacity="0.23"/>
<stop offset="0.36" stop-color="#032525" stop-opacity="0.15"/>
<stop offset="0.43" stop-color="#011414" stop-opacity="0.08"/>
<stop offset="0.52" stop-color="#000808" stop-opacity="0.03"/>
<stop offset="0.65" stop-color="#000101" stop-opacity="0"/>
<stop offset="1" stop-opacity="0"/>
</radialGradient>
<radialGradient id="paint9_radial_948_16226" cx="0" cy="0" r="1" gradientUnits="userSpaceOnUse" gradientTransform="translate(59.0352 111.118) rotate(-175.907) scale(6.9313 7.19864)">
<stop stop-color="white"/>
<stop offset="0.06" stop-color="#17F5F5" stop-opacity="0.96"/>
<stop offset="0.1" stop-color="#12C7C7" stop-opacity="0.78"/>
<stop offset="0.14" stop-color="#0E9C9C" stop-opacity="0.61"/>
<stop offset="0.19" stop-color="#0B7777" stop-opacity="0.47"/>
<stop offset="0.24" stop-color="#085656" stop-opacity="0.34"/>
<stop offset="0.3" stop-color="#053B3B" stop-opacity="0.23"/>
<stop offset="0.36" stop-color="#032525" stop-opacity="0.15"/>
<stop offset="0.43" stop-color="#011414" stop-opacity="0.08"/>
<stop offset="0.52" stop-color="#000808" stop-opacity="0.03"/>
<stop offset="0.65" stop-color="#000101" stop-opacity="0"/>
<stop offset="1" stop-opacity="0"/>
</radialGradient>
<radialGradient id="paint10_radial_948_16226" cx="0" cy="0" r="1" gradientUnits="userSpaceOnUse" gradientTransform="translate(172.725 284.156) rotate(-35.8935) scale(7.01934 7.10833)">
<stop stop-color="white"/>
<stop offset="0.06" stop-color="#17F5F5" stop-opacity="0.96"/>
<stop offset="0.1" stop-color="#12C7C7" stop-opacity="0.78"/>
<stop offset="0.14" stop-color="#0E9C9C" stop-opacity="0.61"/>
<stop offset="0.19" stop-color="#0B7777" stop-opacity="0.47"/>
<stop offset="0.24" stop-color="#085656" stop-opacity="0.34"/>
<stop offset="0.3" stop-color="#053B3B" stop-opacity="0.23"/>
<stop offset="0.36" stop-color="#032525" stop-opacity="0.15"/>
<stop offset="0.43" stop-color="#011414" stop-opacity="0.08"/>
<stop offset="0.52" stop-color="#000808" stop-opacity="0.03"/>
<stop offset="0.65" stop-color="#000101" stop-opacity="0"/>
<stop offset="1" stop-opacity="0"/>
</radialGradient>
<radialGradient id="paint11_radial_948_16226" cx="0" cy="0" r="1" gradientUnits="userSpaceOnUse" gradientTransform="translate(267.037 370.031) rotate(-112.69) scale(7.15781 6.97084)">
<stop stop-color="white"/>
<stop offset="0.06" stop-color="#17F5F5" stop-opacity="0.96"/>
<stop offset="0.1" stop-color="#12C7C7" stop-opacity="0.78"/>
<stop offset="0.14" stop-color="#0E9C9C" stop-opacity="0.61"/>
<stop offset="0.19" stop-color="#0B7777" stop-opacity="0.47"/>
<stop offset="0.24" stop-color="#085656" stop-opacity="0.34"/>
<stop offset="0.3" stop-color="#053B3B" stop-opacity="0.23"/>
<stop offset="0.36" stop-color="#032525" stop-opacity="0.15"/>
<stop offset="0.43" stop-color="#011414" stop-opacity="0.08"/>
<stop offset="0.52" stop-color="#000808" stop-opacity="0.03"/>
<stop offset="0.65" stop-color="#000101" stop-opacity="0"/>
<stop offset="1" stop-opacity="0"/>
</radialGradient>
<radialGradient id="paint12_radial_948_16226" cx="0" cy="0" r="1" gradientUnits="userSpaceOnUse" gradientTransform="translate(309.25 220.124) rotate(174.754) scale(6.93214 7.19781)">
<stop stop-color="white"/>
<stop offset="0.06" stop-color="#17F5F5" stop-opacity="0.96"/>
<stop offset="0.1" stop-color="#12C7C7" stop-opacity="0.78"/>
<stop offset="0.14" stop-color="#0E9C9C" stop-opacity="0.61"/>
<stop offset="0.19" stop-color="#0B7777" stop-opacity="0.47"/>
<stop offset="0.24" stop-color="#085656" stop-opacity="0.34"/>
<stop offset="0.3" stop-color="#053B3B" stop-opacity="0.23"/>
<stop offset="0.36" stop-color="#032525" stop-opacity="0.15"/>
<stop offset="0.43" stop-color="#011414" stop-opacity="0.08"/>
<stop offset="0.52" stop-color="#000808" stop-opacity="0.03"/>
<stop offset="0.65" stop-color="#000101" stop-opacity="0"/>
<stop offset="1" stop-opacity="0"/>
</radialGradient>
<radialGradient id="paint13_radial_948_16226" cx="0" cy="0" r="1" gradientUnits="userSpaceOnUse" gradientTransform="translate(36.4345 831.951) rotate(139.21) scale(7.04145 7.08601)">
<stop stop-color="white"/>
<stop offset="0.06" stop-color="#17F5F5" stop-opacity="0.96"/>
<stop offset="0.1" stop-color="#12C7C7" stop-opacity="0.78"/>
<stop offset="0.14" stop-color="#0E9C9C" stop-opacity="0.61"/>
<stop offset="0.19" stop-color="#0B7777" stop-opacity="0.47"/>
<stop offset="0.24" stop-color="#085656" stop-opacity="0.34"/>
<stop offset="0.3" stop-color="#053B3B" stop-opacity="0.23"/>
<stop offset="0.36" stop-color="#032525" stop-opacity="0.15"/>
<stop offset="0.43" stop-color="#011414" stop-opacity="0.08"/>
<stop offset="0.52" stop-color="#000808" stop-opacity="0.03"/>
<stop offset="0.65" stop-color="#000101" stop-opacity="0"/>
<stop offset="1" stop-opacity="0"/>
</radialGradient>
<radialGradient id="paint14_radial_948_16226" cx="0" cy="0" r="1" gradientUnits="userSpaceOnUse" gradientTransform="translate(95.9891 249.82) rotate(179.73) scale(6.93001 7.19998)">
<stop stop-color="white"/>
<stop offset="0.06" stop-color="#17F5F5" stop-opacity="0.96"/>
<stop offset="0.1" stop-color="#12C7C7" stop-opacity="0.78"/>
<stop offset="0.14" stop-color="#0E9C9C" stop-opacity="0.61"/>
<stop offset="0.19" stop-color="#0B7777" stop-opacity="0.47"/>
<stop offset="0.24" stop-color="#085656" stop-opacity="0.34"/>
<stop offset="0.3" stop-color="#053B3B" stop-opacity="0.23"/>
<stop offset="0.36" stop-color="#032525" stop-opacity="0.15"/>
<stop offset="0.43" stop-color="#011414" stop-opacity="0.08"/>
<stop offset="0.52" stop-color="#000808" stop-opacity="0.03"/>
<stop offset="0.65" stop-color="#000101" stop-opacity="0"/>
<stop offset="1" stop-opacity="0"/>
</radialGradient>
<radialGradient id="paint15_radial_948_16226" cx="0" cy="0" r="1" gradientUnits="userSpaceOnUse" gradientTransform="translate(276.019 664.87) rotate(-121.988) scale(13.7105 13.4905)">
<stop stop-color="white"/>
<stop offset="0.06" stop-color="#17F5F5" stop-opacity="0.96"/>
<stop offset="0.1" stop-color="#12C7C7" stop-opacity="0.78"/>
<stop offset="0.14" stop-color="#0E9C9C" stop-opacity="0.61"/>
<stop offset="0.19" stop-color="#0B7777" stop-opacity="0.47"/>
<stop offset="0.24" stop-color="#085656" stop-opacity="0.34"/>
<stop offset="0.3" stop-color="#053B3B" stop-opacity="0.23"/>
<stop offset="0.36" stop-color="#032525" stop-opacity="0.15"/>
<stop offset="0.43" stop-color="#011414" stop-opacity="0.08"/>
<stop offset="0.52" stop-color="#000808" stop-opacity="0.03"/>
<stop offset="0.65" stop-color="#000101" stop-opacity="0"/>
<stop offset="1" stop-opacity="0"/>
</radialGradient>
<radialGradient id="paint16_radial_948_16226" cx="0" cy="0" r="1" gradientUnits="userSpaceOnUse" gradientTransform="translate(66.6833 15.6549) rotate(178.992) scale(13.3427 13.8622)">
<stop stop-color="white"/>
<stop offset="0.06" stop-color="#17F5F5" stop-opacity="0.96"/>
<stop offset="0.1" stop-color="#12C7C7" stop-opacity="0.78"/>
<stop offset="0.14" stop-color="#0E9C9C" stop-opacity="0.61"/>
<stop offset="0.19" stop-color="#0B7777" stop-opacity="0.47"/>
<stop offset="0.24" stop-color="#085656" stop-opacity="0.34"/>
<stop offset="0.3" stop-color="#053B3B" stop-opacity="0.23"/>
<stop offset="0.36" stop-color="#032525" stop-opacity="0.15"/>
<stop offset="0.43" stop-color="#011414" stop-opacity="0.08"/>
<stop offset="0.52" stop-color="#000808" stop-opacity="0.03"/>
<stop offset="0.65" stop-color="#000101" stop-opacity="0"/>
<stop offset="1" stop-opacity="0"/>
</radialGradient>
<radialGradient id="paint17_radial_948_16226" cx="0" cy="0" r="1" gradientUnits="userSpaceOnUse" gradientTransform="translate(70.8157 420.567) rotate(177.86) scale(13.3432 13.8617)">
<stop stop-color="white"/>
<stop offset="0.06" stop-color="#17F5F5" stop-opacity="0.96"/>
<stop offset="0.1" stop-color="#12C7C7" stop-opacity="0.78"/>
<stop offset="0.14" stop-color="#0E9C9C" stop-opacity="0.61"/>
<stop offset="0.19" stop-color="#0B7777" stop-opacity="0.47"/>
<stop offset="0.24" stop-color="#085656" stop-opacity="0.34"/>
<stop offset="0.3" stop-color="#053B3B" stop-opacity="0.23"/>
<stop offset="0.36" stop-color="#032525" stop-opacity="0.15"/>
<stop offset="0.43" stop-color="#011414" stop-opacity="0.08"/>
<stop offset="0.52" stop-color="#000808" stop-opacity="0.03"/>
<stop offset="0.65" stop-color="#000101" stop-opacity="0"/>
<stop offset="1" stop-opacity="0"/>
</radialGradient>
<radialGradient id="paint18_radial_948_16226" cx="0" cy="0" r="1" gradientUnits="userSpaceOnUse" gradientTransform="translate(137.385 555.311) rotate(90) scale(86.7072 83.4557)">
<stop offset="0.53" stop-color="#18FFFF"/>
<stop offset="0.57" stop-color="#14D6D6" stop-opacity="0.84"/>
<stop offset="0.63" stop-color="#0E9696" stop-opacity="0.59"/>
<stop offset="0.7" stop-color="#096060" stop-opacity="0.38"/>
<stop offset="0.75" stop-color="#053636" stop-opacity="0.21"/>
<stop offset="0.8" stop-color="#021818" stop-opacity="0.1"/>
<stop offset="0.85" stop-color="#000606" stop-opacity="0.03"/>
<stop offset="0.88" stop-opacity="0"/>
</radialGradient>
<radialGradient id="paint19_radial_948_16226" cx="0" cy="0" r="1" gradientUnits="userSpaceOnUse" gradientTransform="translate(175.862 850.379) rotate(90) scale(111.763 107.572)">
<stop offset="0.53" stop-color="#18FFFF"/>
<stop offset="0.57" stop-color="#14D6D6" stop-opacity="0.84"/>
<stop offset="0.63" stop-color="#0E9696" stop-opacity="0.59"/>
<stop offset="0.7" stop-color="#096060" stop-opacity="0.38"/>
<stop offset="0.75" stop-color="#053636" stop-opacity="0.21"/>
<stop offset="0.8" stop-color="#021818" stop-opacity="0.1"/>
<stop offset="0.85" stop-color="#000606" stop-opacity="0.03"/>
<stop offset="0.88" stop-opacity="0"/>
</radialGradient>
</defs>
</svg>
