<svg width="104" height="86" viewBox="0 0 104 86" fill="none" xmlns="http://www.w3.org/2000/svg">
<path d="M66.3377 55.1986C66.3377 55.1986 68.6941 55.0497 69.6668 54.0833C70.5726 53.1835 70.8293 51.0278 70.8293 51.0278L62.2543 42.6861C63.0029 41.5607 63.5651 40.369 63.9407 39.1111C64.3137 37.8533 64.5002 36.5292 64.5002 35.1389C64.5002 31.2329 63.0887 27.9386 60.2658 25.256C57.4401 22.5761 54.0877 21.2361 50.2085 21.2361C46.3293 21.2361 42.9783 22.5761 40.1553 25.256C37.3297 27.9386 35.9168 31.2329 35.9168 35.1389C35.9168 39.0449 37.3297 42.3392 40.1553 45.0218C42.9783 47.7017 46.3293 49.0417 50.2085 49.0417C51.6377 49.0417 52.9824 48.8603 54.2428 48.4975C55.5005 48.132 56.7418 47.5852 57.9668 46.857L66.3377 55.1986ZM50.2085 43.0833C47.9627 43.0833 46.0408 42.3048 44.4428 40.7477C42.8422 39.1932 42.0418 37.3236 42.0418 35.1389C42.0418 32.9542 42.8422 31.0833 44.4428 29.5261C46.0408 27.9717 47.9627 27.1945 50.2085 27.1945C52.3863 27.1945 54.2918 27.9717 55.9252 29.5261C57.5585 31.0833 58.3752 32.9542 58.3752 35.1389C58.3752 37.3236 57.5762 39.1932 55.9782 40.7477C54.3776 42.3048 52.4543 43.0833 50.2085 43.0833ZM11.4168 78.8333C10.2599 78.8333 9.29077 78.452 8.5095 77.6893C7.7255 76.9293 7.3335 75.9866 7.3335 74.8611C7.3335 73.7357 7.7255 72.7929 8.5095 72.0329C9.29077 71.2702 10.2599 70.8889 11.4168 70.8889H93.0835C94.2404 70.8889 95.2096 71.2702 95.9908 72.0329C96.7748 72.7929 97.1668 73.7357 97.1668 74.8611C97.1668 75.9866 96.7748 76.9293 95.9908 77.6893C95.2096 78.452 94.2404 78.8333 93.0835 78.8333H11.4168ZM19.5835 66.9167C17.3377 66.9167 15.4158 66.1394 13.8178 64.585C12.2172 63.0279 11.4168 61.157 11.4168 58.9722V15.2778C11.4168 13.0931 12.2172 11.2221 13.8178 9.66504C15.4158 8.11057 17.3377 7.33334 19.5835 7.33334H84.9168C87.1627 7.33334 89.0859 8.11057 90.6866 9.66504C92.2845 11.2221 93.0835 13.0931 93.0835 15.2778V58.9722C93.0835 61.157 92.2845 63.0279 90.6866 64.585C89.0859 66.1394 87.1627 66.9167 84.9168 66.9167H19.5835ZM18.1632 61.0447H86.3371V13.378H18.1632V61.0447Z" fill="url(#paint0_linear_662_7534)"/>
<defs>
<linearGradient id="paint0_linear_662_7534" x1="-17.0583" y1="64.0402" x2="96.2154" y2="84.1836" gradientUnits="userSpaceOnUse">
<stop stop-color="#20B9F4"/>
<stop offset="1" stop-color="#00CC73"/>
</linearGradient>
</defs>
</svg>
