<svg width="78" height="86" viewBox="0 0 78 86" fill="none" xmlns="http://www.w3.org/2000/svg">
<path d="M71.9998 66.8447V43.7813C71.9995 43.3459 71.8899 42.9176 71.6812 42.5358C71.4985 42.232 71.2244 41.994 70.8984 41.856C70.5568 41.7119 70.1968 41.6166 69.8288 41.5731C69.4408 41.5246 69.0502 41.5002 68.6591 41.5001H67.4485V19.2215C67.5896 18.9113 67.7944 18.5463 68.0538 18.1174C68.3132 17.6885 68.5636 17.214 68.8002 16.6939C69.0369 16.1692 69.2508 15.681 69.4374 15.2339C69.6029 14.8861 69.7002 14.5098 69.7241 14.1252C69.6569 13.6308 69.5504 13.1426 69.4055 12.6652C69.1935 11.9074 68.9552 11.1571 68.691 10.4159C68.4223 9.65393 68.1492 8.8935 67.8718 8.13468C67.6788 7.61894 67.5027 7.09702 67.3438 6.56975C67.1703 6.117 66.8739 5.72191 66.4882 5.42913C66.1094 5.14379 65.6466 4.9929 65.1728 5.00026H56.0702C55.5841 5.0204 55.1144 5.18211 54.7185 5.46563C54.3294 5.73092 54.0408 6.11988 53.8993 6.56975C53.7184 7.10666 53.5287 7.64054 53.3303 8.17118C53.0564 8.92653 52.7969 9.68708 52.5521 10.4524C52.2881 11.26 52.0514 12.0082 51.8375 12.7017C51.6236 13.3861 51.5189 13.8652 51.5189 14.1252C51.5189 14.4583 51.61 14.837 51.8057 15.2658C51.9923 15.6947 52.2153 16.1692 52.4793 16.6939C52.9025 17.5443 53.341 18.387 53.7946 19.2215V41.5001H52.5839C52.1807 41.498 51.7778 41.5224 51.3778 41.5731C51.0057 41.6175 50.644 41.7255 50.3083 41.8925C49.9941 42.045 49.7257 42.2779 49.53 42.5677C49.3184 42.9356 49.2187 43.3574 49.2433 43.7813V66.8447C49.2433 68.3868 49.5528 69.8377 50.1672 71.1927C50.7862 72.5478 51.6145 73.734 52.6568 74.756C54.7839 76.8436 57.6447 78.0088 60.6215 77.9999C62.1371 77.9999 63.5844 77.7034 64.9589 77.1103C66.3009 76.5372 67.5295 75.7275 68.5863 74.7195C69.6371 73.7174 70.4827 72.5194 71.0759 71.1927C71.6942 69.8275 72.0094 68.344 71.9998 66.8447ZM62.8972 41.5001H58.3459V18.6877C58.3452 18.3275 58.2594 17.9726 58.0956 17.652L56.2477 13.9473L57.7041 9.56274H63.5389L64.9953 13.9427L63.1475 17.652C62.9837 17.9726 62.8979 18.3275 62.8972 18.6877V41.5001ZM53.7946 50.6251V46.0626H67.4485V50.6251H53.7946ZM67.4485 55.1875V66.5938C67.4701 67.5017 67.2881 68.4028 66.916 69.2309C66.5593 70.0547 66.0531 70.8051 65.4232 71.4437C64.1466 72.7156 62.4214 73.432 60.6215 73.4375C59.7157 73.4605 58.8164 73.278 57.9909 72.9037C56.7502 72.3817 55.6905 71.5049 54.9442 70.3826C54.1979 69.2604 53.798 67.9425 53.7946 66.5938V55.1875H67.4485ZM21.9355 7.47312C21.936 7.0991 21.8447 6.73068 21.6698 6.40032C21.4949 6.06996 21.2416 5.78779 20.9322 5.57866C20.6229 5.36953 20.267 5.23985 19.8959 5.20104C19.5248 5.16224 19.1499 5.2155 18.8042 5.35613C15.144 6.84018 11.9897 9.3529 9.72073 12.5919C7.45175 15.8309 6.16482 19.6582 6.0148 23.6133C5.86477 27.5683 6.85805 31.4825 8.8751 34.8849C10.8922 38.2873 13.847 41.0329 17.3842 42.7913V68.875C17.3842 71.2951 18.3432 73.6161 20.0503 75.3273C21.7573 77.0386 24.0726 77.9999 26.4868 77.9999C28.9009 77.9999 31.2162 77.0386 32.9233 75.3273C34.6303 73.6161 35.5894 71.2951 35.5894 68.875V42.7958C39.1281 41.0388 42.0847 38.2937 44.103 34.8911C46.1213 31.4884 47.1153 27.5734 46.9653 23.6176C46.8152 19.6617 45.5275 15.8337 43.2573 12.5945C40.987 9.35538 37.831 6.84325 34.1694 5.36069C33.8236 5.22006 33.4487 5.1668 33.0776 5.2056C32.7065 5.24441 32.3506 5.37409 32.0413 5.58322C31.732 5.79235 31.4787 6.07453 31.3037 6.40489C31.1288 6.73525 31.0376 7.10366 31.0381 7.47768V23.2502C31.0381 24.4602 30.5586 25.6207 29.705 26.4763C28.8515 27.332 27.6938 27.8127 26.4868 27.8127C25.2797 27.8127 24.122 27.332 23.2685 26.4763C22.415 25.6207 21.9355 24.4602 21.9355 23.2502V7.47312ZM10.5572 24.3999C10.5572 18.9706 13.2561 14.18 17.3842 11.2874V23.2411C17.3842 25.6611 18.3432 27.9821 20.0503 29.6934C21.7573 31.4046 24.0726 32.366 26.4868 32.366C28.9009 32.366 31.2162 31.4046 32.9233 29.6934C34.6303 27.9821 35.5894 25.6611 35.5894 23.2411V11.2874C37.9457 12.9318 39.815 15.1839 40.9996 17.8056C42.1843 20.4273 42.6404 23.3212 42.3196 26.1813C41.9988 29.0414 40.9131 31.7615 39.1772 34.054C37.4413 36.3466 35.1198 38.1263 32.4581 39.2052C32.0386 39.3758 31.6795 39.6679 31.4266 40.0442C31.1736 40.4205 31.0383 40.8639 31.0381 41.3176V68.875C31.0381 70.085 30.5586 71.2455 29.705 72.1012C28.8515 72.9568 27.6938 73.4375 26.4868 73.4375C25.2797 73.4375 24.122 72.9568 23.2685 72.1012C22.415 71.2455 21.9355 70.085 21.9355 68.875V41.3176C21.9352 40.8639 21.7999 40.4205 21.547 40.0442C21.294 39.6679 20.9349 39.3758 20.5155 39.2052C17.5721 38.0115 15.0516 35.9635 13.2773 33.324C11.503 30.6844 10.5558 27.5737 10.5572 24.3908V24.3999Z" fill="url(#paint0_linear_662_7528)"/>
<defs>
<linearGradient id="paint0_linear_662_7528" x1="-11.9205" y1="62.8965" x2="72.5495" y2="73.7058" gradientUnits="userSpaceOnUse">
<stop stop-color="#20B9F4"/>
<stop offset="1" stop-color="#00CC73"/>
</linearGradient>
</defs>
</svg>
