<svg width="109" height="86" viewBox="0 0 109 86" fill="none" xmlns="http://www.w3.org/2000/svg">
<path d="M96.1897 78.8333C96.1897 78.8333 102.125 78.8333 102.125 72.8611C102.125 66.8889 96.1897 48.9722 72.4501 48.9722C48.7105 48.9722 42.7756 66.8889 42.7756 72.8611C42.7756 78.8333 48.7105 78.8333 48.7105 78.8333H96.1897ZM48.8411 72.8611C48.7973 72.855 48.7537 72.8471 48.7105 72.8372C48.7165 71.2606 49.7017 66.6858 53.2211 62.565C56.4971 58.701 62.254 54.9444 72.4501 54.9444C82.6403 54.9444 88.3972 58.7069 91.6792 62.565C95.1986 66.6858 96.1778 71.2665 96.1897 72.8372L96.1422 72.8492C96.1146 72.8539 96.0869 72.8578 96.0591 72.8611H48.8411ZM72.4501 37.0278C75.5982 37.0278 78.6173 35.7693 80.8433 33.5293C83.0693 31.2893 84.3199 28.2512 84.3199 25.0833C84.3199 21.9155 83.0693 18.8773 80.8433 16.6373C78.6173 14.3973 75.5982 13.1389 72.4501 13.1389C69.302 13.1389 66.2829 14.3973 64.0569 16.6373C61.8309 18.8773 60.5803 21.9155 60.5803 25.0833C60.5803 28.2512 61.8309 31.2893 64.0569 33.5293C66.2829 35.7693 69.302 37.0278 72.4501 37.0278ZM90.2548 25.0833C90.2548 27.4362 89.7943 29.766 88.8995 31.9397C88.0047 34.1135 86.6933 36.0886 85.0399 37.7523C83.3866 39.416 81.4238 40.7358 79.2637 41.6362C77.1035 42.5366 74.7883 43 72.4501 43C70.112 43 67.7967 42.5366 65.6366 41.6362C63.4764 40.7358 61.5136 39.416 59.8603 37.7523C58.207 36.0886 56.8955 34.1135 56.0007 31.9397C55.106 29.766 54.6454 27.4362 54.6454 25.0833C54.6454 20.3315 56.5213 15.7744 59.8603 12.4143C63.1993 9.0543 67.728 7.16666 72.4501 7.16666C77.1722 7.16666 81.7009 9.0543 85.0399 12.4143C88.379 15.7744 90.2548 20.3315 90.2548 25.0833ZM48.3307 50.6444C45.9566 49.8922 43.5094 49.3976 41.0308 49.1693C39.638 49.036 38.2397 48.9703 36.8407 48.9722C13.1012 48.9722 7.16626 66.8889 7.16626 72.8611C7.16626 76.8446 9.14258 78.8333 13.1012 78.8333H38.1227C37.2429 76.9689 36.8041 74.9247 36.8407 72.8611C36.8407 66.8292 39.0782 60.6658 43.3098 55.5178C44.752 53.7619 46.4315 52.1196 48.3307 50.6444ZM36.3659 54.9444C32.8534 60.2554 30.9559 66.4817 30.9058 72.8611H13.1012C13.1012 71.3083 14.0745 66.7097 17.6117 62.565C20.8462 58.7667 26.4665 55.0639 36.3659 54.9504V54.9444ZM16.0686 28.0694C16.0686 23.3176 17.9445 18.7605 21.2835 15.4004C24.6225 12.0404 29.1512 10.1528 33.8733 10.1528C38.5954 10.1528 43.1241 12.0404 46.4631 15.4004C49.8021 18.7605 51.678 23.3176 51.678 28.0694C51.678 32.8212 49.8021 37.3784 46.4631 40.7384C43.1241 44.0985 38.5954 45.9861 33.8733 45.9861C29.1512 45.9861 24.6225 44.0985 21.2835 40.7384C17.9445 37.3784 16.0686 32.8212 16.0686 28.0694ZM33.8733 16.125C30.7252 16.125 27.7061 17.3834 25.4801 19.6234C23.2541 21.8635 22.0035 24.9016 22.0035 28.0694C22.0035 31.2373 23.2541 34.2754 25.4801 36.5154C27.7061 38.7555 30.7252 40.0139 33.8733 40.0139C37.0214 40.0139 40.0405 38.7555 42.2665 36.5154C44.4925 34.2754 45.7431 31.2373 45.7431 28.0694C45.7431 24.9016 44.4925 21.8635 42.2665 19.6234C40.0405 17.3834 37.0214 16.125 33.8733 16.125Z" fill="url(#paint0_linear_662_7522)"/>
<defs>
<linearGradient id="paint0_linear_662_7522" x1="-18.6171" y1="64.0057" x2="100.709" y2="86.3837" gradientUnits="userSpaceOnUse">
<stop stop-color="#20B9F4"/>
<stop offset="1" stop-color="#00CC73"/>
</linearGradient>
</defs>
</svg>
