<svg width="88" height="58" viewBox="0 0 88 58" fill="none" xmlns="http://www.w3.org/2000/svg">
<g id="Logo" clip-path="url(#clip0_862_9492)">
<g id="Group">
<path id="Vector" d="M50.3013 11.1532C49.6403 10.2592 48.7193 10.3028 47.5381 11.2622C46.4003 12.1235 46.1403 12.9738 46.7688 13.8133L53.6714 23.6689C53.8989 23.996 53.6714 24.4539 53.2596 24.4539H33.7546C32.4759 24.4321 31.8258 25.2389 31.7933 26.8524C31.7716 28.4223 32.4001 29.2073 33.6787 29.2291L58.721 29.2945C59.3386 29.2945 59.9021 29.1419 60.4114 28.793C60.6281 28.6513 60.8015 28.4441 60.9315 28.1716C61.2566 27.4847 61.1158 26.6562 60.6823 26.0347C57.2148 21.0742 53.758 16.1028 50.2905 11.1423L50.3013 11.1532Z" fill="white"/>
<path id="Vector_2" d="M44.9155 11.9922C44.9155 12.2866 44.8613 12.57 44.7421 12.8426C44.6337 13.1152 44.4712 13.3441 44.2761 13.5294C44.0811 13.7257 43.8535 13.8674 43.5935 13.9873C43.3334 14.0964 43.0516 14.1618 42.7374 14.1618C42.1523 14.1618 41.6538 13.9546 41.2312 13.5403C40.8194 13.1261 40.6135 12.6137 40.6135 12.0031C40.6135 11.3926 40.8194 10.8802 41.2312 10.4659C41.643 10.0516 42.1414 9.84448 42.7374 9.84448C43.0516 9.84448 43.3334 9.89899 43.5935 10.0189C43.8535 10.1279 44.0811 10.2915 44.2761 10.4877C44.4712 10.684 44.6337 10.9129 44.7421 11.1746C44.8504 11.4362 44.9155 11.7088 44.9155 12.0031V11.9922Z" fill="#31BBED"/>
<path id="Vector_3" d="M50.7346 1.9406C50.7346 1.50451 50.6263 0.817669 49.9328 0.305263C49.5318 0.0218045 49.0876 0 48.86 0C44.4497 0.0327068 40.0719 0 35.6508 0.0327068C35.174 0.0327068 34.7839 0.425188 34.7839 0.904887C34.7839 2.18045 34.8272 3.28158 34.8272 4.54624L34.7839 10.4008C34.7839 11.0876 34.5672 11.7526 34.1879 12.3086C31.0779 16.8331 27.9788 21.3575 24.8689 25.882C24.2079 26.9504 24.5329 27.888 25.8333 28.7056C27.1336 29.5233 28.1197 29.3925 28.7807 28.335L38.8149 12.9737C39.2267 12.3523 39.4434 11.6109 39.4434 10.8695V4.96053C39.4434 4.69887 39.6493 4.49173 39.9094 4.49173C43.0193 4.45902 46.1185 4.41541 49.2284 4.38271C49.3801 4.35 49.5968 4.28459 49.8244 4.13195C50.7671 3.51053 50.7563 2.15865 50.7455 1.9406H50.7346Z" fill="#31BBED"/>
</g>
<g id="Group_2">
<path id="Vector_4" d="M3.41347 56.5389C3.41347 57.4656 2.83915 57.9343 1.70136 57.9343C0.563571 57.9343 -0.0107422 57.4656 -0.0107422 56.5389V36.3915C-0.0107422 35.9445 0.119291 35.552 0.368521 35.1922C0.617752 34.8216 1.10538 34.6362 1.82056 34.6362H11.6597C12.3533 34.6362 12.7217 35.1268 12.7542 36.0971C12.7975 37.0892 12.4291 37.5798 11.6597 37.5798H3.41347V56.5389ZM10.8254 45.7347C10.8254 46.0618 10.7603 46.3889 10.6195 46.6941C10.5003 46.9885 10.3269 47.2392 10.0993 47.4464C9.88262 47.6644 9.63339 47.8389 9.35165 47.9697C9.05908 48.0896 8.74483 48.1441 8.39808 48.1441C7.73707 48.1441 7.18443 47.9152 6.71848 47.4464C6.25253 46.9776 6.02497 46.4107 6.02497 45.7238C6.02497 45.037 6.25253 44.4701 6.71848 44.0013C7.18443 43.5325 7.73707 43.3035 8.39808 43.3035C8.74483 43.3035 9.05908 43.3689 9.35165 43.5107C9.64423 43.6306 9.89346 43.805 10.0993 44.034C10.3269 44.252 10.5003 44.5028 10.6195 44.7862C10.7495 45.0806 10.8254 45.3859 10.8254 45.7129V45.7347Z" fill="#31BBED"/>
<path id="Vector_5" d="M18.9201 56.5387C18.9201 57.4654 18.3891 57.9342 17.3272 57.9342C16.2653 57.9342 15.7018 57.4654 15.7018 56.5387V41.5154C15.7018 40.5887 16.2436 40.1199 17.3272 40.1199C18.4108 40.1199 18.9201 40.5887 18.9201 41.5154V56.5387ZM19.5269 36.4458C19.5269 37.0672 19.3102 37.5906 18.8876 38.0157C18.465 38.4409 17.9449 38.659 17.3272 38.659C16.7095 38.659 16.1786 38.4409 15.7343 38.0157C15.3117 37.5906 15.095 37.0672 15.095 36.4458C15.095 35.8244 15.3117 35.2684 15.7343 34.8432C16.1786 34.418 16.7095 34.2 17.3272 34.2C17.9449 34.2 18.465 34.418 18.8876 34.8432C19.3102 35.2684 19.5269 35.8026 19.5269 36.4458Z" fill="#31BBED"/>
<path id="Vector_6" d="M30.1573 48.853L35.0227 55.7541C35.1527 55.9503 35.2286 56.1575 35.2286 56.3973C35.2286 56.8007 34.936 57.215 34.3617 57.6184C33.9932 57.8691 33.6465 58 33.3214 58C33.1264 58 32.9205 57.9345 32.7146 57.7928C32.5195 57.662 32.3353 57.4876 32.1619 57.2695L28.1959 51.6439C27.9034 52.0473 27.5891 52.4943 27.2423 52.9849C26.9173 53.4755 26.5813 53.9661 26.2346 54.4676C25.8878 54.9582 25.5411 55.4379 25.1943 55.9285C24.8692 56.4191 24.555 56.8552 24.2733 57.2695C23.9048 57.7601 23.5147 58 23.0813 58C22.7129 58 22.3661 57.8691 22.041 57.6184C21.7701 57.4221 21.5534 57.2368 21.4017 57.0624C21.2717 56.8661 21.1958 56.659 21.1958 56.4191C21.1958 56.1793 21.2717 55.9612 21.4234 55.7541L26.2238 48.853C25.5086 47.8282 24.7609 46.7488 23.9698 45.6259C23.1788 44.503 22.4311 43.4127 21.7159 42.3661C21.6401 42.2353 21.5642 42.0827 21.4884 41.93C21.4342 41.7556 21.4017 41.6248 21.4017 41.5267C21.4017 41.1233 21.6726 40.7417 22.2144 40.3928H22.1819C22.3769 40.2947 22.5503 40.2184 22.702 40.1639C22.8754 40.0876 23.0379 40.0439 23.1896 40.0439C23.7098 40.0439 24.1649 40.3274 24.555 40.8834L28.2068 46.0947L31.8585 40.8834C32.2595 40.3165 32.7146 40.0439 33.2239 40.0439C33.3973 40.0439 33.5598 40.0876 33.7115 40.1639C33.8632 40.2184 34.0366 40.2947 34.2316 40.3928H34.1991C34.7626 40.7417 35.0335 41.1233 35.0335 41.5267C35.0335 41.7556 34.9143 42.0391 34.6867 42.3661L30.1681 48.8639L30.1573 48.853Z" fill="#31BBED"/>
<path id="Vector_7" d="M41.7083 57.7927C40.9931 57.7927 40.5163 57.6074 40.2562 57.2367C40.007 56.8661 39.877 56.4627 39.877 56.0157V35.8901C39.877 34.9634 40.4404 34.4946 41.5565 34.4946C42.6727 34.4946 43.2903 34.9634 43.2903 35.8901V54.8491H52.9561C53.6496 54.8491 53.9964 55.3288 53.9964 56.2773C54.0397 57.2912 53.693 57.7927 52.9561 57.7927H41.6974H41.7083Z" fill="#F8FBFF"/>
<path id="Vector_8" d="M60.7799 57.7601C60.1839 57.7601 59.6096 57.6838 59.0678 57.5311C58.526 57.3567 58.0059 57.1168 57.5074 56.8007V56.8334C56.5647 56.2338 56.0879 55.1217 56.0879 53.5082V52.08C56.0879 51.2841 56.2179 50.5973 56.4888 50.0086C56.7814 49.4089 57.1715 48.9292 57.6808 48.5804H57.6483C58.1359 48.2533 58.6452 48.0026 59.187 47.8499C59.7288 47.6755 60.249 47.5883 60.7474 47.5883H67.1407V44.8845C67.1407 44.3939 66.989 43.9578 66.6748 43.5762C66.3822 43.1729 65.8837 42.9657 65.1685 42.9657H61.7768C61.04 42.9657 60.5307 43.151 60.2381 43.5217C59.9672 43.8706 59.8372 44.2849 59.8372 44.7755V45.0044C59.8372 46.0183 59.2954 46.5198 58.2118 46.5198C57.1282 46.5198 56.5864 46.0183 56.5864 45.0044V44.7428C56.5864 43.9469 56.7164 43.2819 56.9873 42.7368C57.2799 42.1917 57.6591 41.7338 58.1468 41.3631H58.1142C58.6127 41.036 59.1328 40.7635 59.6746 40.5454C60.2381 40.3274 60.7691 40.2292 61.2676 40.2292H65.667C66.1546 40.2292 66.6639 40.3383 67.2057 40.5454C67.7692 40.7635 68.2893 41.036 68.7661 41.3631H68.7336C69.2321 41.7338 69.6222 42.2135 69.8931 42.824C70.164 43.4018 70.294 44.0886 70.294 44.8627V56.539C70.294 57.4657 69.7631 57.9345 68.7011 57.9345C68.4844 57.9345 68.2893 57.9345 68.0943 57.9018C67.9209 57.88 67.7584 57.8364 67.6067 57.7601C67.4766 57.662 67.3574 57.542 67.2599 57.3785C67.1841 57.2041 67.1407 56.9751 67.1407 56.7135L67.1082 50.3356H61.2567C60.8341 50.3356 60.509 50.3792 60.2706 50.4774C60.0431 50.5755 59.8589 50.7281 59.718 50.9462C59.5663 51.2732 59.4471 51.5349 59.3712 51.7311C59.3171 51.9056 59.2845 52.1127 59.2845 52.3417V53.4755C59.2845 53.977 59.4254 54.3695 59.718 54.642C60.0214 54.8928 60.5524 55.0236 61.2784 55.0236H64.5184C65.2336 55.0236 65.5912 55.4815 65.5912 56.3973C65.5912 56.7898 65.5045 57.1168 65.3311 57.3894C65.1577 57.6402 64.8868 57.771 64.5184 57.771H60.7257L60.7799 57.7601Z" fill="#F8FBFF"/>
<path id="Vector_9" d="M77.2287 56.5388C77.2287 57.0076 77.0662 57.3565 76.7411 57.5854C76.416 57.8144 76.0584 57.9343 75.6683 57.9343C74.6064 57.9343 74.0754 57.4655 74.0754 56.5388V35.8681C74.0754 34.9415 74.6064 34.4727 75.6683 34.4727C76.7303 34.4727 77.2613 34.9415 77.2613 35.8681V40.2399H83.3728C84.3589 40.2399 85.3775 40.6106 86.4394 41.3411C87.4797 42.0824 87.9998 43.249 87.9998 44.8407V53.5189C87.9998 55.1324 87.523 56.2336 86.5803 56.8441C85.6376 57.4655 84.554 57.7708 83.3403 57.7708H79.9269C79.2334 57.7708 78.865 57.3129 78.8325 56.3971C78.8325 55.4813 79.2009 55.0234 79.9269 55.0234H82.8202C83.5354 55.0234 84.0447 54.8926 84.3589 54.6418C84.6623 54.3693 84.8249 53.9768 84.8249 53.4753V45.0915C84.8249 44.5899 84.6731 44.0993 84.3589 43.6306L84.3914 43.6633C84.1422 43.1945 83.6329 42.9655 82.8527 42.9655H77.2721L77.2396 56.5388H77.2287Z" fill="#F8FBFF"/>
</g>
</g>
<defs>
<clipPath id="clip0_862_9492">
<rect width="88" height="58" fill="white"/>
</clipPath>
</defs>
</svg>
