<?xml version="1.0" encoding="utf-8"?>
<!-- Generated by IcoMoon.io -->
<svg version="1.1" xmlns="http://www.w3.org/2000/svg" xmlns:xlink="http://www.w3.org/1999/xlink">
<defs>
<symbol id="icon-arrow" viewBox="0 0 48 32">
<path d="M45.333 2.667v13.365h-2.67v-8.791l-16.023 16.038-8.012-8.019-14.083 14.075-1.878-1.879 15.961-15.996 8.012 8.019 14.125-14.137h-8.784v-2.673h13.353z"></path>
</symbol>
<symbol id="icon-computer-search" viewBox="0 0 39 32">
<path d="M24.684 20.539c0 0 0.877-0.055 1.239-0.415 0.337-0.335 0.433-1.137 0.433-1.137l-3.191-3.104c0.279-0.419 0.488-0.862 0.628-1.33s0.208-0.961 0.208-1.478c0-1.453-0.525-2.679-1.576-3.677-1.051-0.997-2.299-1.496-3.742-1.496s-2.69 0.499-3.741 1.496c-1.051 0.998-1.577 2.224-1.577 3.677s0.526 2.679 1.577 3.677c1.050 0.997 2.297 1.496 3.741 1.496 0.532 0 1.032-0.067 1.501-0.203 0.468-0.136 0.93-0.339 1.386-0.61l3.115 3.104zM18.682 16.031c-0.836 0-1.551-0.29-2.145-0.869s-0.893-1.274-0.893-2.087 0.298-1.509 0.893-2.088c0.595-0.578 1.31-0.868 2.145-0.868 0.81 0 1.519 0.289 2.127 0.868 0.608 0.579 0.912 1.276 0.912 2.088s-0.297 1.509-0.892 2.087c-0.596 0.579-1.311 0.869-2.147 0.869zM4.248 29.333c-0.43 0-0.791-0.142-1.082-0.426-0.292-0.283-0.438-0.634-0.438-1.052s0.146-0.77 0.438-1.052c0.291-0.284 0.651-0.426 1.082-0.426h30.388c0.43 0 0.791 0.142 1.082 0.426 0.292 0.283 0.438 0.634 0.438 1.052s-0.146 0.77-0.438 1.052c-0.291 0.284-0.651 0.426-1.082 0.426h-30.388zM7.287 24.899c-0.836 0-1.551-0.289-2.145-0.868s-0.893-1.276-0.893-2.088v-16.258c0-0.813 0.298-1.509 0.893-2.088 0.595-0.578 1.31-0.868 2.145-0.868h24.31c0.836 0 1.551 0.289 2.147 0.868 0.595 0.579 0.892 1.276 0.892 2.088v16.258c0 0.813-0.297 1.509-0.892 2.088-0.596 0.578-1.311 0.868-2.147 0.868h-24.31zM6.758 22.714h25.367v-17.736h-25.367v17.736z"></path>
</symbol>
<symbol id="icon-people" viewBox="0 0 41 32">
<path d="M35.792 29.333c0 0 2.208 0 2.208-2.222s-2.208-8.889-11.042-8.889c-8.833 0-11.042 6.667-11.042 8.889s2.208 2.222 2.208 2.222h17.667zM18.173 27.111c-0.016-0.002-0.033-0.005-0.049-0.009 0.002-0.587 0.369-2.289 1.678-3.822 1.219-1.438 3.361-2.836 7.155-2.836 3.792 0 5.934 1.4 7.155 2.836 1.31 1.533 1.674 3.238 1.678 3.822l-0.018 0.004c-0.010 0.002-0.021 0.003-0.031 0.004h-17.57zM26.958 13.778c1.171 0 2.295-0.468 3.123-1.302s1.294-1.964 1.294-3.143c0-1.179-0.465-2.309-1.294-3.143s-1.952-1.302-3.123-1.302c-1.171 0-2.295 0.468-3.123 1.302s-1.294 1.964-1.294 3.143c0 1.179 0.465 2.309 1.294 3.143s1.952 1.302 3.123 1.302zM33.583 9.333c0 0.876-0.171 1.742-0.504 2.551s-0.821 1.544-1.436 2.163c-0.615 0.619-1.346 1.11-2.149 1.445s-1.665 0.507-2.535 0.507c-0.87 0-1.732-0.172-2.535-0.507s-1.534-0.826-2.149-1.445-1.103-1.354-1.436-2.163c-0.333-0.809-0.504-1.676-0.504-2.551 0-1.768 0.698-3.464 1.94-4.714s2.928-1.953 4.685-1.953 3.442 0.702 4.685 1.953c1.242 1.25 1.94 2.946 1.94 4.714zM17.984 18.844c-0.883-0.28-1.794-0.464-2.716-0.549-0.518-0.050-1.039-0.074-1.559-0.073-8.833 0-11.042 6.667-11.042 8.889 0 1.482 0.735 2.222 2.208 2.222h9.31c-0.327-0.694-0.491-1.454-0.477-2.222 0-2.244 0.833-4.538 2.407-6.453 0.537-0.653 1.162-1.264 1.868-1.813zM13.531 20.444c-1.307 1.976-2.013 4.293-2.032 6.667h-6.625c0-0.578 0.362-2.289 1.678-3.831 1.204-1.413 3.295-2.791 6.978-2.833v-0.002zM5.979 10.444c0-1.768 0.698-3.464 1.94-4.714s2.928-1.953 4.685-1.953 3.442 0.702 4.685 1.953c1.242 1.25 1.94 2.946 1.94 4.714s-0.698 3.464-1.94 4.714c-1.242 1.25-2.928 1.953-4.685 1.953s-3.442-0.702-4.685-1.953c-1.242-1.25-1.94-2.946-1.94-4.714zM12.604 6c-1.171 0-2.295 0.468-3.123 1.302s-1.294 1.964-1.294 3.143c0 1.179 0.465 2.309 1.294 3.143s1.952 1.302 3.123 1.302 2.295-0.468 3.123-1.302c0.828-0.834 1.294-1.964 1.294-3.143s-0.465-2.309-1.294-3.143c-0.828-0.833-1.952-1.302-3.123-1.302z"></path>
</symbol>
<symbol id="icon-tools" viewBox="0 0 29 32">
<path d="M26.791 24.872v-8.582c-0-0.162-0.041-0.321-0.119-0.463-0.068-0.113-0.17-0.202-0.291-0.253-0.127-0.054-0.261-0.089-0.398-0.105-0.144-0.018-0.29-0.027-0.435-0.027h-0.45v-8.29c0.052-0.115 0.129-0.251 0.225-0.411s0.19-0.336 0.278-0.53c0.088-0.195 0.168-0.377 0.237-0.543 0.062-0.129 0.098-0.269 0.107-0.413-0.025-0.184-0.065-0.366-0.119-0.543-0.079-0.282-0.168-0.561-0.266-0.837-0.1-0.284-0.202-0.566-0.305-0.849-0.072-0.192-0.137-0.386-0.196-0.582-0.065-0.168-0.175-0.315-0.318-0.424-0.141-0.106-0.313-0.162-0.489-0.16h-3.387c-0.181 0.008-0.356 0.068-0.503 0.173-0.145 0.099-0.252 0.243-0.305 0.411-0.067 0.2-0.138 0.398-0.212 0.596-0.102 0.281-0.198 0.564-0.29 0.849-0.098 0.301-0.186 0.579-0.266 0.837-0.080 0.255-0.119 0.433-0.119 0.53 0 0.124 0.034 0.265 0.107 0.424 0.069 0.16 0.152 0.336 0.251 0.531 0.157 0.316 0.321 0.63 0.489 0.941v8.29h-0.451c-0.15-0.001-0.3 0.008-0.449 0.027-0.138 0.017-0.273 0.057-0.398 0.119-0.117 0.057-0.217 0.143-0.29 0.251-0.079 0.137-0.116 0.294-0.107 0.452v8.582c0 0.574 0.115 1.114 0.344 1.618 0.23 0.504 0.539 0.946 0.926 1.326 0.791 0.777 1.856 1.21 2.964 1.207 0.564 0 1.102-0.11 1.614-0.331 0.499-0.213 0.956-0.515 1.35-0.89 0.391-0.373 0.706-0.819 0.926-1.312 0.23-0.508 0.347-1.060 0.344-1.618zM23.404 15.442h-1.694v-8.488c-0-0.134-0.032-0.266-0.093-0.385l-0.688-1.378 0.542-1.631h2.171l0.542 1.63-0.688 1.38c-0.061 0.119-0.093 0.251-0.093 0.385v8.488zM20.017 18.837v-1.698h5.081v1.698h-5.081zM25.097 20.535v4.244c0.008 0.338-0.060 0.673-0.198 0.981-0.133 0.307-0.321 0.586-0.555 0.823-0.475 0.473-1.117 0.74-1.787 0.742-0.337 0.009-0.672-0.059-0.979-0.199-0.462-0.194-0.856-0.52-1.134-0.938s-0.427-0.908-0.428-1.41v-4.244h5.081zM8.162 2.781c0-0.139-0.034-0.276-0.099-0.399s-0.159-0.228-0.274-0.306c-0.115-0.078-0.248-0.126-0.386-0.141s-0.278 0.005-0.406 0.058c-1.362 0.552-2.536 1.487-3.38 2.692s-1.323 2.629-1.379 4.101c-0.056 1.472 0.314 2.928 1.064 4.194s1.85 2.288 3.166 2.942v9.706c0 0.901 0.357 1.764 0.992 2.401s1.497 0.994 2.395 0.994c0.898 0 1.76-0.358 2.395-0.994s0.992-1.5 0.992-2.401v-9.704c1.317-0.654 2.417-1.675 3.168-2.941s1.121-2.723 1.065-4.195c-0.056-1.472-0.535-2.896-1.38-4.102s-2.019-2.14-3.382-2.692c-0.129-0.052-0.268-0.072-0.406-0.058s-0.271 0.063-0.386 0.141c-0.115 0.078-0.209 0.183-0.274 0.306s-0.099 0.26-0.099 0.399v5.869c0 0.45-0.178 0.882-0.496 1.2s-0.748 0.497-1.197 0.497c-0.449 0-0.88-0.179-1.197-0.497s-0.496-0.75-0.496-1.2v-5.871zM3.928 9.079c0-2.020 1.004-3.803 2.54-4.879v4.448c0 0.9 0.357 1.764 0.992 2.401s1.497 0.994 2.395 0.994c0.898 0 1.76-0.358 2.395-0.994s0.992-1.5 0.992-2.401v-4.448c0.877 0.612 1.572 1.45 2.013 2.425s0.611 2.052 0.491 3.117-0.523 2.076-1.169 2.929c-0.646 0.853-1.51 1.515-2.5 1.917-0.156 0.063-0.29 0.172-0.384 0.312s-0.144 0.305-0.145 0.474v10.254c0 0.45-0.178 0.882-0.496 1.2s-0.748 0.497-1.197 0.497c-0.449 0-0.88-0.179-1.197-0.497s-0.496-0.75-0.496-1.2v-10.254c-0-0.169-0.050-0.334-0.145-0.474s-0.228-0.249-0.384-0.312c-1.095-0.444-2.033-1.206-2.693-2.188s-1.013-2.14-1.012-3.324v0.003z"></path>
</symbol>
</defs>
</svg>
